<svg width="34" height="34" viewBox="0 0 34 34" fill="none" xmlns="http://www.w3.org/2000/svg">
<path fill-rule="evenodd" clip-rule="evenodd" d="M17 34C26.3888 34 34 26.3888 34 17C34 7.61116 26.3888 0 17 0C7.61116 0 0 7.61116 0 17C0 26.3888 7.61116 34 17 34ZM13.8833 24.7917C14.2967 24.7917 14.4857 24.6077 14.7141 24.3854L14.7333 24.3667L16.7752 22.3811L21.0233 25.5197C21.8051 25.951 22.3693 25.7277 22.5641 24.7939L25.3528 11.6524C25.6383 10.5077 24.9164 9.98856 24.1685 10.3281L7.79327 16.6423C6.6755 17.0907 6.68202 17.7143 7.58952 17.9921L11.7918 19.3037L21.5205 13.166C21.9797 12.8875 22.4012 13.0372 22.0553 13.3443L14.1727 20.4577L14.1725 20.4577L14.1725 20.4579L14.1723 20.4581L14.1725 20.4582L13.8833 24.7917Z" fill="white" fill-opacity="0.6"/>
</svg>
