<svg width="34" height="34" viewBox="0 0 34 34" fill="none" xmlns="http://www.w3.org/2000/svg">
<path fill-rule="evenodd" clip-rule="evenodd" d="M34 17C34 26.3888 26.3888 34 17 34C7.61116 34 0 26.3888 0 17C0 7.61116 7.61116 0 17 0C26.3888 0 34 7.61116 34 17ZM17.5562 26.458H17.5603C23.1338 26.4558 27.6668 21.9217 27.669 16.3494C27.6701 13.6484 26.6196 11.1087 24.7111 9.198C22.8025 7.28724 20.2645 6.2345 17.5602 6.23333C11.9884 6.23333 7.45364 10.7679 7.45142 16.3414C7.45066 18.1231 7.91614 19.862 8.80077 21.3951L7.36667 26.6333L12.7255 25.2276C14.2019 26.033 15.8643 26.4574 17.5562 26.458Z" fill="white" fill-opacity="0.6"/>
<path fill-rule="evenodd" clip-rule="evenodd" d="M13.2806 23.5797L12.9738 23.3976L9.7938 24.2318L10.6426 21.1313L10.4428 20.8134C9.60176 19.4757 9.15755 17.9296 9.1582 16.342C9.16004 11.7095 12.9292 7.94073 17.5637 7.94073C19.8079 7.94151 21.9174 8.81656 23.5037 10.4047C25.09 11.9929 25.9631 14.1038 25.9622 16.3488C25.9604 20.9816 22.1913 24.7508 17.5604 24.7508H17.557C16.0493 24.7503 14.5706 24.3452 13.2806 23.5797ZM22.3071 18.5258C22.4832 18.6109 22.6022 18.6684 22.653 18.7532C22.7161 18.8585 22.7161 19.3643 22.5058 19.9544C22.2952 20.5443 21.2861 21.0828 20.8008 21.1553C20.3657 21.2204 19.815 21.2475 19.2099 21.0552C18.8431 20.9388 18.3726 20.7834 17.77 20.5232C15.4021 19.5007 13.8019 17.2057 13.4994 16.7719C13.4782 16.7416 13.4634 16.7203 13.4551 16.7093L13.4531 16.7065C13.3194 16.5282 12.4238 15.3332 12.4238 14.0964C12.4238 12.9329 12.9953 12.3231 13.2584 12.0424C13.2764 12.0232 13.293 12.0055 13.3078 11.9893C13.5393 11.7364 13.813 11.6732 13.9814 11.6732C14.1497 11.6732 14.3183 11.6747 14.4655 11.6821C14.4836 11.683 14.5025 11.6829 14.522 11.6828C14.6692 11.6819 14.8527 11.6809 15.0338 12.1157C15.1034 12.283 15.2053 12.5311 15.3128 12.7928C15.5301 13.3219 15.7703 13.9066 15.8125 13.9912C15.8757 14.1176 15.9178 14.265 15.8336 14.4337C15.8209 14.459 15.8092 14.4828 15.7981 14.5056C15.7348 14.6347 15.6883 14.7297 15.581 14.855C15.5388 14.9043 15.4952 14.9574 15.4516 15.0105C15.3647 15.1164 15.2778 15.2222 15.2021 15.2975C15.0757 15.4235 14.944 15.5601 15.0914 15.813C15.2387 16.0659 15.7456 16.893 16.4965 17.5628C17.3037 18.2827 18.0052 18.587 18.3608 18.7413C18.4302 18.7714 18.4865 18.7958 18.5277 18.8164C18.7802 18.9429 18.9276 18.9217 19.0749 18.7532C19.2223 18.5847 19.7063 18.0157 19.8747 17.7628C20.043 17.5101 20.2115 17.5522 20.443 17.6364C20.6746 17.7208 21.9164 18.3318 22.1689 18.4582C22.2183 18.4829 22.2643 18.5051 22.3071 18.5258Z" fill="white" fill-opacity="0.6"/>
</svg>
