<svg width="45" height="54" viewBox="0 0 45 54" fill="none" xmlns="http://www.w3.org/2000/svg">
<path d="M44.0089 13.1038H34.2857C35.8456 11.7218 36.8454 9.74677 36.8454 7.52206C36.8454 3.37608 33.4059 0 29.1714 0C26.2937 0 23.8099 1.58487 22.5026 3.89455C21.1918 1.58487 18.708 0 15.8232 0C11.5958 0 8.15278 3.37608 8.15278 7.52206C8.15278 9.74677 9.15614 11.7218 10.7196 13.1038H0.992836C0.446964 13.1038 0 13.5442 0 14.0783V22.2714C0 22.8124 0.448731 23.2494 0.992836 23.2494H1.66943V53.0255C1.66943 53.5665 2.11462 54 2.66226 54H42.3342C42.8889 54 43.3306 53.5665 43.3306 53.0255V23.2511H44.0072C44.5566 23.2511 45 22.8141 45 22.2731V14.08C45.0018 13.5442 44.5566 13.1038 44.0089 13.1038ZM43.0108 15.0545V21.3004H23.4955V15.0545H29.1785H43.0108ZM29.1714 1.95074C32.3106 1.95074 34.858 4.44942 34.858 7.52206C34.858 10.5999 32.3124 13.1038 29.1785 13.1038H23.4955V7.52206C23.4955 4.45116 26.0428 1.95074 29.1714 1.95074ZM10.1366 7.52206C10.1366 4.45116 12.6964 1.95074 15.8232 1.95074C18.9589 1.95074 21.5098 4.44942 21.5098 7.52206V13.1038H15.8232C12.6893 13.1038 10.1366 10.6016 10.1366 7.52206ZM1.99095 15.0545H21.5098V21.3004H1.99095V15.0545ZM21.5081 23.2511V36.6722H3.66038V23.2511H21.5081ZM3.66038 38.623H21.5098V52.0475H3.66038V38.623ZM23.4955 52.0475V38.623H41.3414V52.0475H23.4955ZM41.3414 36.6722H23.4955V23.2511H41.3414V36.6722Z" fill="#64D2FF"/>
</svg>
