<svg width="53" height="51" viewBox="0 0 53 51" fill="none" xmlns="http://www.w3.org/2000/svg">
<path fill-rule="evenodd" clip-rule="evenodd" d="M47.5551 0.645671C37.3723 7.47529 16.7855 28.0528 16.7855 28.0528L16.7936 28.0609C16.7406 28.1104 16.6841 28.1542 16.6334 28.206C15.3571 29.48 14.8319 31.2044 15.007 32.8678C12.8218 32.3575 10.4397 32.9588 8.73601 34.7062C4.93589 38.6066 5.62703 42.8156 5.62703 42.8156C5.17664 46.9935 0 48.4426 0 48.4426C9.59994 55.1905 18.2622 44.4801 18.2622 44.4801C19.9924 42.7039 20.5649 40.2111 20.0235 37.9408C21.711 38.1389 23.4677 37.6171 24.7624 36.3235C24.8142 36.2716 24.858 36.2164 24.9064 36.1634L24.9145 36.1714C24.9145 36.1714 45.5139 15.6054 52.3527 5.43643C53.3192 4.09101 53.2063 2.21226 51.9945 1.00276C50.785 -0.205583 48.9028 -0.318469 47.5551 0.645671ZM16.5378 43.0319C16.4952 43.0826 11.8853 48.4504 6.41374 48.4504C5.91151 48.4504 5.41965 48.4055 4.93354 48.3156C6.30776 47.1234 7.62784 45.141 7.87895 42.8142C7.86743 42.707 7.42971 39.2732 10.3498 36.276C11.1964 35.4074 12.3207 34.9271 13.5106 34.9271C14.6959 34.9271 15.804 35.4144 16.6587 36.2702C19.6928 39.3032 16.5378 43.0319 16.5378 43.0319ZM24.9041 32.9011L23.114 34.7108C22.4828 35.342 21.6534 35.7175 20.7342 35.7175C19.815 35.7175 18.9131 35.342 18.2622 34.6912C17.6126 34.0427 17.2785 33.1787 17.2785 32.2618C17.2785 31.3449 17.6114 30.4844 18.2622 29.8359L20.0557 28.0654C20.1514 27.9721 20.2804 27.8466 20.3863 27.7429L25.2209 32.5774C25.1195 32.6811 24.9951 32.809 24.9041 32.9011ZM50.482 4.09098C45.6394 11.2881 32.7093 24.8667 26.7897 30.9671L21.999 26.1752C28.1064 20.2602 41.6769 7.36123 48.8394 2.55895C49.094 2.37811 49.3267 2.30323 49.5709 2.30323C49.746 2.30323 50.0812 2.34585 50.368 2.63268C50.7596 3.02432 50.8069 3.63713 50.482 4.09098Z" fill="#64D2FF"/>
</svg>
