<svg width="67" height="50" viewBox="0 0 67 50" fill="none" xmlns="http://www.w3.org/2000/svg">
<path fill-rule="evenodd" clip-rule="evenodd" d="M40.3912 13.6752C32.7813 13.6752 26.5903 19.7779 26.5903 27.2792C26.5903 34.7805 32.7813 40.8832 40.3912 40.8832C48.001 40.8832 54.1921 34.7805 54.1921 27.2792C54.1921 19.7779 48.001 13.6752 40.3912 13.6752ZM61.2009 9.11681H56.8495C56.3812 9.11681 55.9601 8.8604 55.7507 8.44744L53.0436 3.11026C52.0703 1.19188 50.114 0 47.938 0H32.8443C30.6682 0 28.712 1.19188 27.7387 3.1104L25.0315 8.44744C24.8221 8.86026 24.401 9.11681 23.9328 9.11681H16.0408V7.90598C16.0408 6.68846 15.036 5.69801 13.8009 5.69801H6.86432C5.62918 5.69801 4.62439 6.68846 4.62439 7.90598V9.2198C1.99354 9.72051 0 12.0063 0 14.7436V44.3732C0 47.4758 2.56075 50 5.70823 50H61.2009C64.3483 50 66.9091 47.4758 66.9091 44.3732V14.7436C66.9091 11.641 64.3483 9.11681 61.2009 9.11681ZM32.8442 2.13679H47.938C49.2876 2.13679 50.501 2.87597 51.1048 4.066L51.3545 4.55845H29.4277L29.6774 4.066C30.2812 2.87597 31.4946 2.13679 32.8442 2.13679ZM6.86431 7.8347H13.8009C13.8408 7.8347 13.8731 7.86661 13.8731 7.90592V9.11675H6.79205V7.90592C6.79205 7.86661 6.82442 7.8347 6.86431 7.8347ZM2.16765 44.3734V14.7438C2.16765 12.8194 3.75598 11.2538 5.70819 11.2538H16.1853V47.8635H5.70819C3.75598 47.8635 2.16765 46.2978 2.16765 44.3734ZM64.7414 44.3731C64.7414 46.2974 63.1531 47.8631 61.2009 47.8631H18.3531V11.2534H23.9328C25.2274 11.2534 26.3914 10.5443 26.9705 9.40283L28.3439 6.69499H52.4384L53.812 9.40283C54.3909 10.5443 55.5548 11.2534 56.8495 11.2534H61.2009C63.1531 11.2534 64.7414 12.8191 64.7414 14.7434V44.3731ZM58.3106 13.6754C56.7381 13.6754 55.3759 14.5805 54.7321 15.8901C51.3517 11.7624 46.1793 9.11698 40.3912 9.11698C30.2314 9.11698 21.9659 17.2646 21.9659 27.2794C21.9659 37.2942 30.2314 45.4418 40.3912 45.4418C50.5509 45.4418 58.8164 37.2942 58.8164 27.2794C58.8164 25.2537 58.478 23.3044 57.8544 21.4835C58.0043 21.5005 58.1563 21.5101 58.3106 21.5101C60.502 21.5101 62.2847 19.7529 62.2847 17.5928C62.2847 15.4326 60.502 13.6754 58.3106 13.6754ZM40.3911 38.7465C33.9765 38.7465 28.7579 33.6023 28.7579 27.2792C28.7579 20.9562 33.9765 15.812 40.3911 15.812C46.8057 15.812 52.0244 20.9562 52.0244 27.2792C52.0244 33.6023 46.8057 38.7465 40.3911 38.7465ZM40.3911 20.5128C36.6062 20.5128 33.5268 23.5483 33.5268 27.2792C33.5268 31.0101 36.6062 34.0456 40.3911 34.0456C44.176 34.0456 47.2554 31.0101 47.2554 27.2792C47.2554 23.5483 44.176 20.5128 40.3911 20.5128ZM40.3911 31.9088C37.8014 31.9088 35.6945 29.8319 35.6945 27.2792C35.6945 24.7265 37.8014 22.6496 40.3911 22.6496C42.9808 22.6496 45.0877 24.7265 45.0877 27.2792C45.0877 29.8319 42.9808 31.9088 40.3911 31.9088ZM40.3911 25.2136C39.2357 25.2136 38.2957 26.1403 38.2957 27.2791C38.2957 28.418 39.2357 29.3447 40.3911 29.3447C41.5465 29.3447 42.4865 28.418 42.4865 27.2791C42.4865 26.1403 41.5465 25.2136 40.3911 25.2136ZM40.3911 43.3051C31.4266 43.3051 24.1335 36.116 24.1335 27.2794C24.1335 18.4428 31.4266 11.2538 40.3911 11.2538C49.3557 11.2538 56.6487 18.4428 56.6487 27.2794C56.6487 36.116 49.3557 43.3051 40.3911 43.3051ZM58.3106 19.3732C57.3145 19.3732 56.5042 18.5745 56.5042 17.5926C56.5042 16.6107 57.3145 15.812 58.3106 15.812C59.3068 15.812 60.117 16.6107 60.117 17.5926C60.117 18.5745 59.3068 19.3732 58.3106 19.3732ZM12.6448 13.6752C12.0462 13.6752 11.5609 14.1535 11.5609 14.7436V44.3732C11.5609 44.9632 12.0462 45.4416 12.6448 45.4416C13.2433 45.4416 13.7286 44.9632 13.7286 44.3732V14.7436C13.7286 14.1535 13.2433 13.6752 12.6448 13.6752Z" fill="#64D2FF"/>
</svg>
