<svg width="51" height="87" viewBox="0 0 51 87" fill="none" xmlns="http://www.w3.org/2000/svg">
<path d="M7.48217 8.55506C8.91065 10.059 11.2306 10.0503 12.6639 8.53544C14.0973 7.02062 14.1012 4.57339 12.6727 3.0694C11.2442 1.56541 8.92424 1.5742 7.49092 3.08902C6.05759 4.60384 6.05368 7.05107 7.48217 8.55506Z" fill="#2276C3"/>
<path d="M25.2919 27.3061C26.7204 28.8101 29.0404 28.8013 30.4737 27.2865C31.907 25.7717 31.9109 23.3244 30.4824 21.8204C29.0539 20.3164 26.7339 20.3252 25.3006 21.84C23.8673 23.3548 23.8634 25.8021 25.2919 27.3061Z" fill="#2276C3"/>
<path d="M7.42201 46.1923C8.85051 47.6963 11.1705 47.6875 12.6038 46.1727C14.0371 44.6579 14.041 42.2106 12.6125 40.7066C11.184 39.2026 8.86406 39.2114 7.43074 40.7262C5.99741 42.2411 5.9935 44.6883 7.42201 46.1923Z" fill="#2276C3"/>
<path d="M43.1016 46.057C44.53 47.561 46.85 47.5522 48.2833 46.0374C49.7166 44.5226 49.7206 42.0753 48.2921 40.5714C46.8636 39.0674 44.5436 39.0761 43.1103 40.591C41.677 42.1058 41.6731 44.553 43.1016 46.057Z" fill="#2276C3"/>
<path d="M25.2317 64.9433C26.6602 66.4473 28.9802 66.4385 30.4135 64.9237C31.8468 63.4088 31.8507 60.9616 30.4222 59.4576C28.9937 57.9536 26.6738 57.9624 25.2404 59.4772C23.8071 60.992 23.8032 63.4393 25.2317 64.9433Z" fill="#2276C3"/>
<path d="M7.36181 83.829C8.7903 85.3329 11.1103 85.3242 12.5436 83.8093C13.9769 82.2945 13.9808 79.8473 12.5523 78.3433C11.1238 76.8393 8.80388 76.8481 7.37056 78.3629C5.93724 79.8778 5.93333 82.325 7.36181 83.829Z" fill="#2276C3"/>
</svg>
