<svg width="86" height="124" viewBox="0 0 86 124" fill="none" xmlns="http://www.w3.org/2000/svg">
<path d="M74.5512 8.22255C75.9797 9.72654 78.2997 9.71776 79.733 8.20294C81.1663 6.68812 81.1702 4.24089 79.7417 2.73689C78.3132 1.2329 75.9933 1.24168 74.56 2.7565C73.1266 4.27132 73.1227 6.71855 74.5512 8.22255Z" fill="#439BEC"/>
<path d="M56.6813 27.1083C58.1098 28.6123 60.4297 28.6035 61.8631 27.0887C63.2964 25.5739 63.3003 23.1266 61.8718 21.6226C60.4433 20.1186 58.1233 20.1274 56.69 21.6422C55.2567 23.1571 55.2528 25.6043 56.6813 27.1083Z" fill="#439BEC"/>
<path d="M38.8113 45.994C40.2398 47.498 42.5598 47.4892 43.9931 45.9744C45.4264 44.4596 45.4304 42.0124 44.0019 40.5084C42.5734 39.0044 40.2534 39.0132 38.8201 40.528C37.3868 42.0428 37.3828 44.49 38.8113 45.994Z" fill="#439BEC"/>
<path d="M20.9415 64.8808C22.37 66.3847 24.6899 66.376 26.1233 64.8612C27.5566 63.3463 27.5605 60.8991 26.132 59.3951C24.7035 57.8911 22.3835 57.8999 20.9502 59.4147C19.5169 60.9295 19.513 63.3768 20.9415 64.8808Z" fill="#439BEC"/>
<path d="M3.07149 83.7665C4.49999 85.2705 6.81995 85.2617 8.25326 83.7469C9.68658 82.2321 9.69049 79.7848 8.26199 78.2808C6.8335 76.7768 4.51354 76.7856 3.08023 78.3004C1.64691 79.8152 1.643 82.2625 3.07149 83.7665Z" fill="#439BEC"/>
<path d="M74.491 45.8592C75.9195 47.3632 78.2394 47.3545 79.6728 45.8396C81.1061 44.3248 81.11 41.8776 79.6815 40.3736C78.253 38.8696 75.933 38.8784 74.4997 40.3932C73.0664 41.908 73.0625 44.3552 74.491 45.8592Z" fill="#439BEC"/>
<path d="M56.6211 64.746C58.0496 66.25 60.3695 66.2412 61.8029 64.7264C63.2362 63.2116 63.2401 60.7643 61.8116 59.2603C60.3831 57.7563 58.0632 57.7651 56.6298 59.2799C55.1965 60.7948 55.1926 63.242 56.6211 64.746Z" fill="#439BEC"/>
<path d="M38.7512 83.6317C40.1797 85.1357 42.4996 85.1269 43.933 83.6121C45.3663 82.0973 45.3702 79.6501 43.9417 78.1461C42.5132 76.6421 40.1932 76.6508 38.7599 78.1657C37.3266 79.6805 37.3227 82.1277 38.7512 83.6317Z" fill="#439BEC"/>
<path d="M74.4308 83.497C75.8592 85.001 78.1792 84.9922 79.6125 83.4773C81.0459 81.9625 81.0498 79.5153 79.6213 78.0113C78.1928 76.5073 75.8728 76.5161 74.4395 78.0309C73.0062 79.5457 73.0023 81.993 74.4308 83.497Z" fill="#439BEC"/>
</svg>
