<svg width="94" height="138" viewBox="0 0 94 138" fill="none" xmlns="http://www.w3.org/2000/svg">
<path d="M2.28235 50.2857C3.36836 51.4291 5.13209 51.4224 6.22177 50.2708C7.31144 49.1191 7.31441 47.2586 6.22841 46.1152C5.1424 44.9718 3.37867 44.9785 2.289 46.1301C1.19932 47.2818 1.19635 49.1423 2.28235 50.2857Z" fill="#7EB1DF"/>
<path d="M29.4075 50.183C30.4935 51.3264 32.2573 51.3197 33.3469 50.1681C34.4366 49.0165 34.4396 47.156 33.3536 46.0126C32.2676 44.8692 30.5038 44.8758 29.4142 46.0275C28.3245 47.1791 28.3215 49.0396 29.4075 50.183Z" fill="#7EB1DF"/>
<path d="M15.822 64.541C16.908 65.6844 18.6718 65.6778 19.7614 64.5261C20.8511 63.3745 20.8541 61.514 19.7681 60.3706C18.6821 59.2272 16.9183 59.2339 15.8287 60.3855C14.739 61.5371 14.736 63.3976 15.822 64.541Z" fill="#7EB1DF"/>
<path d="M56.5328 50.0803C57.6188 51.2237 59.3825 51.217 60.4722 50.0654C61.5618 48.9138 61.5648 47.0533 60.4788 45.9099C59.3928 44.7665 57.6291 44.7732 56.5394 45.9248C55.4497 47.0764 55.4468 48.9369 56.5328 50.0803Z" fill="#7EB1DF"/>
<path d="M42.9472 64.4382C44.0332 65.5816 45.797 65.5749 46.8866 64.4233C47.9763 63.2717 47.9793 61.4112 46.8933 60.2678C45.8073 59.1244 44.0436 59.1311 42.9539 60.2827C41.8642 61.4344 41.8612 63.2948 42.9472 64.4382Z" fill="#7EB1DF"/>
<path d="M29.3617 78.7962C30.4477 79.9396 32.2115 79.9329 33.3011 78.7812C34.3908 77.6296 34.3938 75.7691 33.3078 74.6257C32.2218 73.4823 30.4581 73.489 29.3684 74.6406C28.2787 75.7923 28.2757 77.6528 29.3617 78.7962Z" fill="#7EB1DF"/>
<path d="M83.6579 49.9778C84.7439 51.1212 86.5077 51.1146 87.5974 49.9629C88.6871 48.8113 88.69 46.9508 87.604 45.8074C86.518 44.664 84.7543 44.6706 83.6646 45.8223C82.5749 46.9739 82.5719 48.8344 83.6579 49.9778Z" fill="#7EB1DF"/>
<path d="M70.0725 64.3357C71.1585 65.4791 72.9223 65.4724 74.0119 64.3208C75.1016 63.1692 75.1046 61.3087 74.0186 60.1653C72.9326 59.0219 71.1688 59.0286 70.0792 60.1802C68.9895 61.3318 68.9865 63.1923 70.0725 64.3357Z" fill="#7EB1DF"/>
<path d="M56.487 78.6937C57.573 79.8371 59.3367 79.8304 60.4264 78.6787C61.5161 77.5271 61.5191 75.6666 60.4331 74.5232C59.3471 73.3798 57.5833 73.3865 56.4936 74.5381C55.4039 75.6898 55.401 77.5503 56.487 78.6937Z" fill="#7EB1DF"/>
<path d="M42.9016 93.0515C43.9876 94.1949 45.7513 94.1883 46.841 93.0366C47.9307 91.885 47.9336 90.0245 46.8476 88.8811C45.7616 87.7377 43.9979 87.7444 42.9082 88.896C41.8185 90.0476 41.8156 91.9081 42.9016 93.0515Z" fill="#7EB1DF"/>
<path d="M83.6122 78.5911C84.6982 79.7345 86.4619 79.7278 87.5516 78.5762C88.6413 77.4245 88.6443 75.564 87.5583 74.4206C86.4723 73.2772 84.7086 73.2839 83.6189 74.4356C82.5292 75.5872 82.5262 77.4477 83.6122 78.5911Z" fill="#7EB1DF"/>
<path d="M70.0267 92.949C71.1127 94.0924 72.8764 94.0857 73.9661 92.9341C75.0558 91.7824 75.0588 89.9219 73.9728 88.7785C72.8868 87.6352 71.123 87.6418 70.0334 88.7935C68.9437 89.9451 68.9407 91.8056 70.0267 92.949Z" fill="#7EB1DF"/>
<path d="M56.4412 107.307C57.5272 108.45 59.2909 108.444 60.3806 107.292C61.4703 106.14 61.4733 104.28 60.3873 103.136C59.3013 101.993 57.5375 102 56.4479 103.151C55.3582 104.303 55.3552 106.163 56.4412 107.307Z" fill="#7EB1DF"/>
<path d="M83.5664 107.204C84.6524 108.348 86.4161 108.341 87.5058 107.189C88.5955 106.038 88.5985 104.177 87.5125 103.034C86.4265 101.891 84.6628 101.897 83.5731 103.049C82.4834 104.2 82.4804 106.061 83.5664 107.204Z" fill="#7EB1DF"/>
<path d="M69.981 121.562C71.067 122.706 72.8307 122.699 73.9204 121.547C75.0101 120.396 75.0131 118.535 73.9271 117.392C72.8411 116.248 71.0773 116.255 69.9877 117.407C68.898 118.558 68.895 120.419 69.981 121.562Z" fill="#7EB1DF"/>
<path d="M83.5207 135.818C84.6067 136.961 86.3705 136.954 87.4601 135.803C88.5498 134.651 88.5528 132.791 87.4668 131.647C86.3808 130.504 84.617 130.51 83.5273 131.662C82.4376 132.814 82.4347 134.674 83.5207 135.818Z" fill="#7EB1DF"/>
</svg>
