<svg width="51" height="88" viewBox="0 0 51 88" fill="none" xmlns="http://www.w3.org/2000/svg">
<path d="M39.0839 9.1205C40.5124 10.6245 42.8324 10.6157 44.2657 9.1009C45.699 7.58608 45.7029 5.13884 44.2744 3.63485C42.846 2.13085 40.526 2.13963 39.0927 3.65445C37.6593 5.16927 37.6554 7.6165 39.0839 9.1205Z" fill="#439BEC"/>
<path d="M21.214 28.0067C22.6424 29.5107 24.9624 29.5019 26.3957 27.9871C27.829 26.4723 27.8329 24.0251 26.4045 22.5211C24.976 21.0171 22.656 21.0259 21.2227 22.5407C19.7894 24.0555 19.7855 26.5027 21.214 28.0067Z" fill="#439BEC"/>
<path d="M3.34407 46.8929C4.77256 48.3969 7.09252 48.3882 8.52584 46.8733C9.95916 45.3585 9.96307 42.9113 8.53458 41.4073C7.10608 39.9033 4.78612 39.9121 3.3528 41.4269C1.91948 42.9417 1.91557 45.389 3.34407 46.8929Z" fill="#439BEC"/>
<path d="M39.0237 46.7577C40.4522 48.2617 42.7722 48.2529 44.2055 46.7381C45.6388 45.2233 45.6428 42.776 44.2143 41.272C42.7858 39.7681 40.4658 39.7768 39.0325 41.2917C37.5992 42.8065 37.5952 45.2537 39.0237 46.7577Z" fill="#439BEC"/>
<path d="M21.1538 65.6439C22.5823 67.1479 24.9023 67.1391 26.3356 65.6243C27.7689 64.1095 27.7728 61.6623 26.3443 60.1583C24.9158 58.6543 22.5959 58.6631 21.1626 60.1779C19.7292 61.6927 19.7253 64.1399 21.1538 65.6439Z" fill="#439BEC"/>
<path d="M38.9635 84.3949C40.392 85.8989 42.7119 85.8901 44.1452 84.3753C45.5786 82.8604 45.5825 80.4132 44.154 78.9092C42.7255 77.4053 40.4056 77.414 38.9722 78.9289C37.5389 80.4437 37.535 82.8909 38.9635 84.3949Z" fill="#439BEC"/>
</svg>
