<svg width="132" height="319" viewBox="0 0 132 319" fill="none" xmlns="http://www.w3.org/2000/svg">
<g opacity="0.4" clip-path="url(#clip0)">
<path d="M124.282 88.3793C125.368 89.5227 127.131 89.516 128.221 88.3644C129.311 87.2128 129.314 85.3523 128.228 84.2089C127.142 83.0655 125.378 83.0721 124.288 84.2238C123.199 85.3754 123.196 87.2359 124.282 88.3793Z" fill="#98B7D3"/>
<path d="M110.696 102.738C111.782 103.881 113.546 103.874 114.636 102.723C115.725 101.571 115.728 99.7107 114.642 98.5673C113.556 97.4239 111.792 97.4305 110.703 98.5822C109.613 99.7338 109.61 101.594 110.696 102.738Z" fill="#98B7D3"/>
<path d="M97.1107 117.095C98.1967 118.239 99.9604 118.232 101.05 117.08C102.14 115.929 102.143 114.068 101.057 112.925C99.9707 111.781 98.207 111.788 97.1173 112.94C96.0276 114.091 96.0246 115.952 97.1107 117.095Z" fill="#98B7D3"/>
<path d="M83.5252 131.454C84.6112 132.597 86.3749 132.59 87.4646 131.439C88.5543 130.287 88.5573 128.426 87.4713 127.283C86.3853 126.14 84.6215 126.146 83.5318 127.298C82.4422 128.45 82.4392 130.31 83.5252 131.454Z" fill="#98B7D3"/>
<path d="M69.9396 145.811C71.0256 146.954 72.7894 146.948 73.8791 145.796C74.9687 144.644 74.9717 142.784 73.8857 141.641C72.7997 140.497 71.036 140.504 69.9463 141.655C68.8566 142.807 68.8536 144.668 69.9396 145.811Z" fill="#98B7D3"/>
<path d="M56.3542 160.169C57.4402 161.313 59.2039 161.306 60.2936 160.154C61.3833 159.003 61.3863 157.142 60.3003 155.999C59.2142 154.856 57.4505 154.862 56.3608 156.014C55.2712 157.165 55.2682 159.026 56.3542 160.169Z" fill="#98B7D3"/>
<path d="M42.7687 174.527C43.8547 175.67 45.6184 175.663 46.7081 174.512C47.7978 173.36 47.8007 171.5 46.7147 170.356C45.6287 169.213 43.865 169.22 42.7753 170.371C41.6857 171.523 41.6827 173.383 42.7687 174.527Z" fill="#98B7D3"/>
<path d="M30.2108 194.023C31.2968 195.166 33.0606 195.16 34.1502 194.008C35.2399 192.856 35.2429 190.996 34.1569 189.852C33.0709 188.709 31.3071 188.716 30.2175 189.867C29.1278 191.019 29.1248 192.879 30.2108 194.023Z" fill="#98B7D3"/>
<path d="M124.236 116.993C125.322 118.136 127.086 118.129 128.175 116.978C129.265 115.826 129.268 113.966 128.182 112.822C127.096 111.679 125.332 111.685 124.243 112.837C123.153 113.989 123.15 115.849 124.236 116.993Z" fill="#98B7D3"/>
<path d="M110.65 131.351C111.736 132.494 113.5 132.488 114.59 131.336C115.68 130.184 115.683 128.324 114.597 127.181C113.511 126.037 111.747 126.044 110.657 127.195C109.567 128.347 109.564 130.208 110.65 131.351Z" fill="#98B7D3"/>
<path d="M97.065 145.708C98.151 146.852 99.9147 146.845 101.004 145.693C102.094 144.542 102.097 142.681 101.011 141.538C99.925 140.395 98.1613 140.401 97.0716 141.553C95.9819 142.704 95.979 144.565 97.065 145.708Z" fill="#98B7D3"/>
<path d="M83.4794 160.067C84.5654 161.21 86.3292 161.204 87.4188 160.052C88.5085 158.9 88.5115 157.04 87.4255 155.896C86.3395 154.753 84.5757 154.76 83.4861 155.911C82.3964 157.063 82.3934 158.923 83.4794 160.067Z" fill="#98B7D3"/>
<path d="M69.894 174.424C70.98 175.568 72.7437 175.561 73.8333 174.409C74.923 173.258 74.926 171.397 73.84 170.254C72.754 169.11 70.9902 169.117 69.9006 170.269C68.8109 171.42 68.808 173.281 69.894 174.424Z" fill="#98B7D3"/>
<path d="M56.3085 188.783C57.3945 189.926 59.1582 189.919 60.2479 188.768C61.3376 187.616 61.3405 185.756 60.2545 184.612C59.1685 183.469 57.4048 183.475 56.3151 184.627C55.2254 185.779 55.2225 187.639 56.3085 188.783Z" fill="#98B7D3"/>
<path d="M42.7229 203.14C43.8089 204.283 45.5726 204.277 46.6623 203.125C47.752 201.973 47.755 200.113 46.669 198.97C45.583 197.826 43.8192 197.833 42.7295 198.985C41.6399 200.136 41.6369 201.997 42.7229 203.14Z" fill="#98B7D3"/>
<path d="M124.19 145.606C125.276 146.749 127.04 146.743 128.13 145.591C129.219 144.439 129.222 142.579 128.136 141.435C127.05 140.292 125.286 140.299 124.197 141.45C123.107 142.602 123.104 144.462 124.19 145.606Z" fill="#98B7D3"/>
<path d="M110.605 159.964C111.691 161.108 113.454 161.101 114.544 159.949C115.634 158.798 115.637 156.937 114.551 155.794C113.465 154.65 111.701 154.657 110.611 155.809C109.522 156.96 109.519 158.821 110.605 159.964Z" fill="#98B7D3"/>
<path d="M97.0191 174.322C98.1051 175.465 99.8689 175.458 100.959 174.307C102.048 173.155 102.051 171.295 100.965 170.151C99.8792 169.008 98.1155 169.015 97.0258 170.166C95.9361 171.318 95.9331 173.178 97.0191 174.322Z" fill="#98B7D3"/>
<path d="M83.4336 188.68C84.5196 189.823 86.2834 189.817 87.373 188.665C88.4627 187.514 88.4657 185.653 87.3797 184.51C86.2937 183.366 84.53 183.373 83.4403 184.525C82.3506 185.676 82.3476 187.537 83.4336 188.68Z" fill="#98B7D3"/>
<path d="M69.8481 203.037C70.9341 204.181 72.6978 204.174 73.7875 203.023C74.8772 201.871 74.8802 200.01 73.7942 198.867C72.7082 197.724 70.9445 197.73 69.8548 198.882C68.7651 200.034 68.7621 201.894 69.8481 203.037Z" fill="#98B7D3"/>
<path d="M56.2627 217.396C57.3487 218.539 59.1124 218.533 60.2021 217.381C61.2918 216.229 61.2947 214.369 60.2087 213.225C59.1227 212.082 57.359 212.089 56.2693 213.24C55.1797 214.392 55.1767 216.253 56.2627 217.396Z" fill="#98B7D3"/>
<path d="M124.144 174.219C125.23 175.363 126.994 175.356 128.084 174.204C129.174 173.053 129.176 171.192 128.09 170.049C127.004 168.905 125.241 168.912 124.151 170.064C123.061 171.215 123.058 173.076 124.144 174.219Z" fill="#98B7D3"/>
<path d="M110.559 188.578C111.645 189.721 113.409 189.714 114.498 188.563C115.588 187.411 115.591 185.551 114.505 184.407C113.419 183.264 111.655 183.27 110.566 184.422C109.476 185.574 109.473 187.434 110.559 188.578Z" fill="#98B7D3"/>
<path d="M96.9734 202.935C98.0594 204.078 99.8231 204.072 100.913 202.92C102.002 201.768 102.005 199.908 100.919 198.765C99.8334 197.621 98.0697 197.628 96.98 198.779C95.8904 199.931 95.8874 201.792 96.9734 202.935Z" fill="#98B7D3"/>
<path d="M83.3878 217.293C84.4738 218.437 86.2376 218.43 87.3273 217.278C88.417 216.127 88.4199 214.266 87.3339 213.123C86.2479 211.98 84.4842 211.986 83.3945 213.138C82.3048 214.289 82.3018 216.15 83.3878 217.293Z" fill="#98B7D3"/>
<path d="M69.8024 231.651C70.8884 232.794 72.6521 232.788 73.7418 231.636C74.8315 230.484 74.8344 228.624 73.7484 227.48C72.6624 226.337 70.8987 226.344 69.809 227.495C68.7194 228.647 68.7164 230.507 69.8024 231.651Z" fill="#98B7D3"/>
<path d="M124.099 202.832C125.185 203.976 126.948 203.969 128.038 202.817C129.128 201.666 129.131 199.805 128.045 198.662C126.959 197.519 125.195 197.525 124.105 198.677C123.016 199.829 123.013 201.689 124.099 202.832Z" fill="#98B7D3"/>
<path d="M110.513 217.191C111.599 218.334 113.363 218.328 114.453 217.176C115.542 216.024 115.545 214.164 114.459 213.02C113.373 211.877 111.609 211.884 110.52 213.035C109.43 214.187 109.427 216.047 110.513 217.191Z" fill="#98B7D3"/>
<path d="M96.9276 231.548C98.0136 232.692 99.7774 232.685 100.867 231.533C101.957 230.382 101.96 228.521 100.874 227.378C99.7877 226.234 98.024 226.241 96.9343 227.393C95.8446 228.544 95.8416 230.405 96.9276 231.548Z" fill="#98B7D3"/>
<path d="M83.3421 245.907C84.4281 247.05 86.1918 247.043 87.2815 245.892C88.3712 244.74 88.3741 242.88 87.2881 241.736C86.2022 240.593 84.4384 240.599 83.3488 241.751C82.2591 242.903 82.2561 244.763 83.3421 245.907Z" fill="#98B7D3"/>
<path d="M124.053 231.446C125.139 232.589 126.903 232.582 127.992 231.431C129.082 230.279 129.085 228.419 127.999 227.275C126.913 226.132 125.149 226.139 124.06 227.29C122.97 228.442 122.967 230.302 124.053 231.446Z" fill="#98B7D3"/>
<path d="M110.467 245.804C111.553 246.947 113.317 246.941 114.407 245.789C115.496 244.638 115.499 242.777 114.413 241.634C113.327 240.49 111.564 240.497 110.474 241.649C109.384 242.8 109.381 244.661 110.467 245.804Z" fill="#98B7D3"/>
<path d="M96.8818 260.162C97.9678 261.305 99.7316 261.298 100.821 260.147C101.911 258.995 101.914 257.134 100.828 255.991C99.7419 254.848 97.9782 254.854 96.8885 256.006C95.7988 257.158 95.7958 259.018 96.8818 260.162Z" fill="#98B7D3"/>
<path d="M124.007 260.059C125.093 261.202 126.857 261.196 127.946 260.044C129.036 258.892 129.039 257.032 127.953 255.889C126.867 254.745 125.103 254.752 124.014 255.903C122.924 257.055 122.921 258.916 124.007 260.059Z" fill="#98B7D3"/>
<path d="M110.422 274.417C111.508 275.561 113.271 275.554 114.361 274.403C115.451 273.251 115.454 271.39 114.368 270.247C113.282 269.104 111.518 269.11 110.428 270.262C109.339 271.414 109.336 273.274 110.422 274.417Z" fill="#98B7D3"/>
<path d="M123.961 288.672C125.047 289.816 126.811 289.809 127.901 288.657C128.99 287.506 128.993 285.645 127.907 284.502C126.821 283.358 125.058 283.365 123.968 284.517C122.878 285.668 122.875 287.529 123.961 288.672Z" fill="#98B7D3"/>
</g>
<defs>
<clipPath id="clip0">
<rect width="201.794" height="202.952" fill="white" transform="matrix(0.619354 0.785112 -0.617903 0.786254 126.305 0.719604)"/>
</clipPath>
</defs>
</svg>
