<svg width="90" height="125" viewBox="0 0 90 125" fill="none" xmlns="http://www.w3.org/2000/svg">
<path d="M10.7207 8.64247C12.1492 10.1465 14.4692 10.1377 15.9025 8.62287C17.3358 7.10805 17.3397 4.66081 15.9112 3.15682C14.4827 1.65282 12.1628 1.6616 10.7294 3.17642C9.29612 4.69124 9.29221 7.13848 10.7207 8.64247Z" fill="#439BEC"/>
<path d="M28.5304 27.3934C29.9589 28.8974 32.2788 28.8886 33.7121 27.3738C35.1454 25.859 35.1494 23.4117 33.7209 21.9078C32.2924 20.4038 29.9725 20.4126 28.5391 21.9274C27.1058 23.4422 27.1019 25.8894 28.5304 27.3934Z" fill="#439BEC"/>
<path d="M10.6605 46.2792C12.089 47.7832 14.4089 47.7744 15.8423 46.2595C17.2756 44.7447 17.2795 42.2975 15.851 40.7935C14.4225 39.2895 12.1026 39.2983 10.6693 40.8131C9.23594 42.328 9.23201 44.7752 10.6605 46.2792Z" fill="#439BEC"/>
<path d="M46.3401 46.1444C47.7686 47.6484 50.0885 47.6396 51.5218 46.1248C52.9552 44.61 52.9591 42.1627 51.5306 40.6588C50.1021 39.1548 47.7822 39.1636 46.3488 40.6784C44.9155 42.1932 44.9116 44.6404 46.3401 46.1444Z" fill="#439BEC"/>
<path d="M28.4702 65.0301C29.8987 66.5341 32.2186 66.5253 33.652 65.0105C35.0853 63.4957 35.0892 61.0485 33.6607 59.5445C32.2322 58.0405 29.9123 58.0493 28.479 59.5641C27.0456 61.0789 27.0417 63.5262 28.4702 65.0301Z" fill="#439BEC"/>
<path d="M10.6003 83.9159C12.0288 85.4198 14.3487 85.4111 15.7821 83.8962C17.2154 82.3814 17.2193 79.9342 15.7908 78.4302C14.3624 76.9262 12.0424 76.935 10.6091 78.4499C9.17576 79.9647 9.17183 82.4119 10.6003 83.9159Z" fill="#439BEC"/>
<path d="M64.1498 64.8954C65.5783 66.3994 67.8983 66.3907 69.3316 64.8758C70.7649 63.361 70.7688 60.9138 69.3403 59.4098C67.9118 57.9058 65.5918 57.9145 64.1585 59.4293C62.7252 60.9442 62.7213 63.3914 64.1498 64.8954Z" fill="#439BEC"/>
<path d="M46.2799 83.7812C47.7084 85.2852 50.0284 85.2764 51.4617 83.7616C52.895 82.2468 52.899 79.7995 51.4704 78.2955C50.0419 76.7915 47.722 76.8003 46.2886 78.3151C44.8553 79.8299 44.8514 82.2772 46.2799 83.7812Z" fill="#439BEC"/>
<path d="M81.9595 83.6464C83.388 85.1504 85.7079 85.1416 87.1412 83.6267C88.5746 82.1119 88.5785 79.6647 87.15 78.1607C85.7215 76.6567 83.4015 76.6655 81.9682 78.1803C80.5349 79.6951 80.531 82.1424 81.9595 83.6464Z" fill="#439BEC"/>
</svg>
