<svg width="31" height="28" viewBox="0 0 31 28" fill="none" xmlns="http://www.w3.org/2000/svg">
<g filter="url(#filter0_d)">
<path d="M5.17422 10.9544C4.92409 11.2391 4.80238 11.6016 4.83209 11.9763C4.8618 12.3509 5.03813 12.6919 5.33042 12.9354L12.425 18.8794C12.6885 19.0995 13.0153 19.2175 13.3584 19.2175C13.4005 19.2175 13.4437 19.2157 13.4868 19.2119C13.8749 19.1782 14.2247 18.9974 14.472 18.7042L26.6064 4.26953C26.8498 3.97917 26.9638 3.61388 26.9265 3.24015C26.8881 2.86643 26.7051 2.52923 26.408 2.29039L24.1866 0.507007C23.5742 0.0162024 22.6676 0.102374 22.1635 0.700894L12.8246 11.8105L9.07175 8.66804C8.46992 8.16599 7.56142 8.2325 7.04488 8.82071L5.17422 10.9544Z" fill="white"/>
</g>
<defs>
<filter id="filter0_d" x="0.827698" y="0.188721" width="30.1057" height="27.0288" filterUnits="userSpaceOnUse" color-interpolation-filters="sRGB">
<feFlood flood-opacity="0" result="BackgroundImageFix"/>
<feColorMatrix in="SourceAlpha" type="matrix" values="0 0 0 0 0 0 0 0 0 0 0 0 0 0 0 0 0 0 127 0"/>
<feOffset dy="4"/>
<feGaussianBlur stdDeviation="2"/>
<feColorMatrix type="matrix" values="0 0 0 0 0.379167 0 0 0 0 0.379167 0 0 0 0 0.379167 0 0 0 0.35 0"/>
<feBlend mode="normal" in2="BackgroundImageFix" result="effect1_dropShadow"/>
<feBlend mode="normal" in="SourceGraphic" in2="effect1_dropShadow" result="shape"/>
</filter>
</defs>
</svg>
