<svg width="330" height="348" viewBox="0 0 330 348" fill="none" xmlns="http://www.w3.org/2000/svg">
<g opacity="0.4" clip-path="url(#clip0)">
<path d="M162.291 44.433C163.72 45.937 166.04 45.9282 167.473 44.4134C168.906 42.8986 168.91 40.4513 167.482 38.9473C166.053 37.4433 163.733 37.4521 162.3 38.9669C160.866 40.4818 160.863 42.929 162.291 44.433Z" fill="#EBF5FF"/>
<path d="M144.421 63.319C145.85 64.823 148.17 64.8142 149.603 63.2994C151.036 61.7846 151.04 59.3373 149.612 57.8333C148.183 56.3293 145.863 56.3381 144.43 57.8529C142.997 59.3678 142.993 61.815 144.421 63.319Z" fill="#EBF5FF"/>
<path d="M126.551 82.205C127.98 83.709 130.3 83.7002 131.733 82.1854C133.166 80.6705 133.17 78.2233 131.742 76.7193C130.313 75.2153 127.993 75.2241 126.56 76.7389C125.127 78.2537 125.123 80.701 126.551 82.205Z" fill="#EBF5FF"/>
<path d="M108.681 101.091C110.11 102.595 112.43 102.586 113.863 101.071C115.296 99.5565 115.3 97.1093 113.872 95.6053C112.443 94.1013 110.123 94.1101 108.69 95.6249C107.257 97.1397 107.253 99.587 108.681 101.091Z" fill="#EBF5FF"/>
<path d="M90.8114 119.977C92.2399 121.481 94.5599 121.472 95.9932 119.957C97.4265 118.443 97.4304 115.995 96.0019 114.491C94.5734 112.987 92.2535 112.996 90.8201 114.511C89.3868 116.026 89.3829 118.473 90.8114 119.977Z" fill="#EBF5FF"/>
<path d="M72.9415 138.863C74.37 140.367 76.69 140.358 78.1233 138.843C79.5566 137.329 79.5606 134.881 78.1321 133.377C76.7036 131.873 74.3836 131.882 72.9503 133.397C71.5169 134.912 71.513 137.359 72.9415 138.863Z" fill="#EBF5FF"/>
<path d="M55.0716 157.749C56.5001 159.253 58.82 159.244 60.2533 157.729C61.6866 156.214 61.6906 153.767 60.2621 152.263C58.8336 150.759 56.5136 150.768 55.0803 152.283C53.647 153.798 53.6431 156.245 55.0716 157.749Z" fill="#EBF5FF"/>
<path d="M37.2017 176.635C38.6302 178.139 40.9501 178.13 42.3834 176.615C43.8168 175.1 43.8207 172.653 42.3922 171.149C40.9637 169.645 38.6437 169.654 37.2104 171.169C35.7771 172.684 35.7732 175.131 37.2017 176.635Z" fill="#EBF5FF"/>
<path d="M180.101 63.184C181.529 64.688 183.849 64.6792 185.283 63.1644C186.716 61.6495 186.72 59.2023 185.291 57.6983C183.863 56.1943 181.543 56.2031 180.11 57.7179C178.676 59.2327 178.672 61.68 180.101 63.184Z" fill="#EBF5FF"/>
<path d="M162.231 82.07C163.659 83.574 165.979 83.5652 167.413 82.0504C168.846 80.5355 168.85 78.0883 167.421 76.5843C165.993 75.0803 163.673 75.0891 162.24 76.6039C160.806 78.1187 160.802 80.566 162.231 82.07Z" fill="#EBF5FF"/>
<path d="M144.361 100.956C145.789 102.46 148.109 102.451 149.543 100.936C150.976 99.4215 150.98 96.9743 149.551 95.4703C148.123 93.9663 145.803 93.9751 144.37 95.4899C142.936 97.0047 142.932 99.4519 144.361 100.956Z" fill="#EBF5FF"/>
<path d="M126.491 119.842C127.92 121.346 130.239 121.337 131.673 119.822C133.106 118.307 133.11 115.86 131.682 114.356C130.253 112.852 127.933 112.861 126.5 114.376C125.066 115.891 125.063 118.338 126.491 119.842Z" fill="#EBF5FF"/>
<path d="M108.621 138.728C110.05 140.232 112.37 140.223 113.803 138.708C115.236 137.194 115.24 134.746 113.812 133.242C112.383 131.738 110.063 131.747 108.63 133.262C107.197 134.777 107.193 137.224 108.621 138.728Z" fill="#EBF5FF"/>
<path d="M90.7513 157.614C92.1798 159.118 94.4997 159.109 95.933 157.594C97.3663 156.079 97.3702 153.632 95.9417 152.128C94.5132 150.624 92.1933 150.633 90.76 152.148C89.3267 153.663 89.3228 156.11 90.7513 157.614Z" fill="#EBF5FF"/>
<path d="M72.8813 176.5C74.3098 178.004 76.6298 177.995 78.0631 176.48C79.4964 174.965 79.5004 172.518 78.0719 171.014C76.6434 169.51 74.3234 169.519 72.8901 171.034C71.4568 172.549 71.4528 174.996 72.8813 176.5Z" fill="#EBF5FF"/>
<path d="M55.0114 195.386C56.4399 196.89 58.7599 196.881 60.1932 195.367C61.6265 193.852 61.6304 191.404 60.2019 189.9C58.7734 188.396 56.4535 188.405 55.0202 189.92C53.5868 191.435 53.5829 193.882 55.0114 195.386Z" fill="#EBF5FF"/>
<path d="M197.911 81.9349C199.339 83.4389 201.659 83.4301 203.092 81.9153C204.526 80.4005 204.53 77.9533 203.101 76.4493C201.673 74.9453 199.353 74.9541 197.919 76.4689C196.486 77.9837 196.482 80.431 197.911 81.9349Z" fill="#EBF5FF"/>
<path d="M180.041 100.821C181.469 102.325 183.789 102.316 185.222 100.801C186.656 99.2865 186.66 96.8393 185.231 95.3353C183.803 93.8313 181.483 93.8401 180.049 95.3549C178.616 96.8697 178.612 99.3169 180.041 100.821Z" fill="#EBF5FF"/>
<path d="M162.171 119.707C163.599 121.211 165.919 121.202 167.352 119.687C168.786 118.172 168.79 115.725 167.361 114.221C165.933 112.717 163.613 112.726 162.179 114.241C160.746 115.756 160.742 118.203 162.171 119.707Z" fill="#EBF5FF"/>
<path d="M144.301 138.593C145.729 140.097 148.049 140.088 149.483 138.573C150.916 137.058 150.92 134.611 149.491 133.107C148.063 131.603 145.743 131.612 144.31 133.127C142.876 134.642 142.872 137.089 144.301 138.593Z" fill="#EBF5FF"/>
<path d="M126.431 157.479C127.859 158.983 130.179 158.974 131.613 157.459C133.046 155.944 133.05 153.497 131.621 151.993C130.193 150.489 127.873 150.498 126.44 152.013C125.006 153.528 125.002 155.975 126.431 157.479Z" fill="#EBF5FF"/>
<path d="M108.561 176.365C109.989 177.869 112.309 177.86 113.743 176.345C115.176 174.83 115.18 172.383 113.751 170.879C112.323 169.375 110.003 169.384 108.57 170.899C107.136 172.414 107.132 174.861 108.561 176.365Z" fill="#EBF5FF"/>
<path d="M90.691 195.251C92.1195 196.755 94.4394 196.746 95.8728 195.231C97.3061 193.716 97.31 191.269 95.8815 189.765C94.4531 188.261 92.1331 188.27 90.6998 189.785C89.2665 191.3 89.2625 193.747 90.691 195.251Z" fill="#EBF5FF"/>
<path d="M72.8211 214.137C74.2496 215.641 76.5695 215.632 78.0028 214.117C79.4362 212.602 79.4401 210.155 78.0116 208.651C76.5831 207.147 74.2632 207.156 72.8298 208.671C71.3965 210.186 71.3926 212.633 72.8211 214.137Z" fill="#EBF5FF"/>
<path d="M215.72 100.686C217.149 102.19 219.469 102.181 220.902 100.666C222.335 99.1515 222.339 96.7043 220.911 95.2003C219.482 93.6963 217.162 93.7051 215.729 95.2199C214.296 96.7347 214.292 99.1819 215.72 100.686Z" fill="#EBF5FF"/>
<path d="M197.85 119.572C199.279 121.076 201.599 121.067 203.032 119.552C204.465 118.037 204.469 115.59 203.041 114.086C201.612 112.582 199.292 112.591 197.859 114.106C196.426 115.621 196.422 118.068 197.85 119.572Z" fill="#EBF5FF"/>
<path d="M179.98 138.458C181.409 139.962 183.729 139.953 185.162 138.438C186.596 136.923 186.599 134.476 185.171 132.972C183.742 131.468 181.422 131.477 179.989 132.992C178.556 134.507 178.552 136.954 179.98 138.458Z" fill="#EBF5FF"/>
<path d="M162.11 157.344C163.539 158.848 165.859 158.839 167.292 157.324C168.726 155.809 168.729 153.362 167.301 151.858C165.873 150.354 163.553 150.363 162.119 151.878C160.686 153.393 160.682 155.84 162.11 157.344Z" fill="#EBF5FF"/>
<path d="M144.241 176.23C145.669 177.734 147.989 177.725 149.422 176.21C150.856 174.695 150.86 172.248 149.431 170.744C148.003 169.24 145.683 169.249 144.249 170.764C142.816 172.279 142.812 174.726 144.241 176.23Z" fill="#EBF5FF"/>
<path d="M126.371 195.116C127.799 196.62 130.119 196.611 131.552 195.096C132.986 193.581 132.99 191.134 131.561 189.63C130.133 188.126 127.813 188.135 126.379 189.65C124.946 191.165 124.942 193.612 126.371 195.116Z" fill="#EBF5FF"/>
<path d="M108.501 214.002C109.929 215.506 112.249 215.497 113.683 213.982C115.116 212.467 115.12 210.02 113.691 208.516C112.263 207.012 109.943 207.021 108.51 208.536C107.076 210.051 107.072 212.498 108.501 214.002Z" fill="#EBF5FF"/>
<path d="M90.6309 232.888C92.0594 234.392 94.3794 234.383 95.8127 232.868C97.246 231.353 97.2499 228.906 95.8214 227.402C94.3929 225.898 92.0729 225.907 90.6396 227.422C89.2063 228.937 89.2024 231.384 90.6309 232.888Z" fill="#EBF5FF"/>
<path d="M233.53 119.437C234.958 120.941 237.278 120.932 238.712 119.417C240.145 117.902 240.149 115.455 238.72 113.951C237.292 112.447 234.972 112.456 233.539 113.971C232.105 115.486 232.101 117.933 233.53 119.437Z" fill="#EBF5FF"/>
<path d="M215.66 138.323C217.089 139.827 219.409 139.818 220.842 138.303C222.275 136.789 222.279 134.341 220.851 132.837C219.422 131.333 217.102 131.342 215.669 132.857C214.236 134.372 214.232 136.819 215.66 138.323Z" fill="#EBF5FF"/>
<path d="M197.79 157.209C199.219 158.713 201.539 158.704 202.972 157.189C204.405 155.674 204.409 153.227 202.981 151.723C201.552 150.219 199.232 150.228 197.799 151.743C196.366 153.258 196.362 155.705 197.79 157.209Z" fill="#EBF5FF"/>
<path d="M179.92 176.095C181.349 177.599 183.669 177.59 185.102 176.075C186.535 174.56 186.539 172.113 185.111 170.609C183.682 169.105 181.362 169.114 179.929 170.629C178.496 172.144 178.492 174.591 179.92 176.095Z" fill="#EBF5FF"/>
<path d="M162.05 194.981C163.479 196.485 165.799 196.476 167.232 194.961C168.665 193.446 168.669 190.999 167.241 189.495C165.812 187.991 163.492 188 162.059 189.515C160.626 191.03 160.622 193.477 162.05 194.981Z" fill="#EBF5FF"/>
<path d="M144.18 213.867C145.609 215.371 147.929 215.362 149.362 213.847C150.795 212.333 150.799 209.885 149.371 208.381C147.942 206.877 145.622 206.886 144.189 208.401C142.756 209.916 142.752 212.363 144.18 213.867Z" fill="#EBF5FF"/>
<path d="M126.31 232.753C127.739 234.257 130.059 234.248 131.492 232.733C132.926 231.218 132.929 228.771 131.501 227.267C130.073 225.763 127.753 225.772 126.319 227.287C124.886 228.802 124.882 231.249 126.31 232.753Z" fill="#EBF5FF"/>
<path d="M108.441 251.639C109.869 253.143 112.189 253.134 113.622 251.619C115.056 250.104 115.06 247.657 113.631 246.153C112.203 244.649 109.883 244.658 108.449 246.173C107.016 247.688 107.012 250.135 108.441 251.639Z" fill="#EBF5FF"/>
<path d="M251.34 138.188C252.768 139.692 255.088 139.683 256.521 138.168C257.955 136.653 257.959 134.206 256.53 132.702C255.102 131.198 252.782 131.207 251.348 132.722C249.915 134.237 249.911 136.684 251.34 138.188Z" fill="#EBF5FF"/>
<path d="M233.47 157.074C234.898 158.578 237.218 158.569 238.652 157.054C240.085 155.539 240.089 153.092 238.66 151.588C237.232 150.084 234.912 150.093 233.479 151.608C232.045 153.123 232.041 155.57 233.47 157.074Z" fill="#EBF5FF"/>
<path d="M215.6 175.96C217.028 177.464 219.348 177.455 220.782 175.94C222.215 174.426 222.219 171.978 220.79 170.474C219.362 168.97 217.042 168.979 215.609 170.494C214.175 172.009 214.171 174.456 215.6 175.96Z" fill="#EBF5FF"/>
<path d="M197.73 194.846C199.158 196.35 201.478 196.341 202.912 194.826C204.345 193.312 204.349 190.864 202.92 189.36C201.492 187.856 199.172 187.865 197.739 189.38C196.305 190.895 196.301 193.342 197.73 194.846Z" fill="#EBF5FF"/>
<path d="M179.86 213.732C181.288 215.236 183.608 215.227 185.042 213.712C186.475 212.197 186.479 209.75 185.051 208.246C183.622 206.742 181.302 206.751 179.869 208.266C178.435 209.781 178.431 212.228 179.86 213.732Z" fill="#EBF5FF"/>
<path d="M161.99 232.618C163.419 234.122 165.739 234.113 167.172 232.598C168.605 231.083 168.609 228.636 167.181 227.132C165.752 225.628 163.432 225.637 161.999 227.152C160.566 228.667 160.562 231.114 161.99 232.618Z" fill="#EBF5FF"/>
<path d="M144.12 251.504C145.549 253.008 147.869 252.999 149.302 251.484C150.735 249.97 150.739 247.522 149.311 246.018C147.882 244.514 145.562 244.523 144.129 246.038C142.696 247.553 142.692 250 144.12 251.504Z" fill="#EBF5FF"/>
<path d="M126.25 270.39C127.679 271.894 129.999 271.885 131.432 270.37C132.865 268.856 132.869 266.408 131.441 264.904C130.012 263.4 127.692 263.409 126.259 264.924C124.826 266.439 124.822 268.886 126.25 270.39Z" fill="#EBF5FF"/>
<path d="M269.149 156.939C270.578 158.443 272.898 158.434 274.331 156.92C275.765 155.405 275.768 152.957 274.34 151.453C272.911 149.949 270.591 149.958 269.158 151.473C267.725 152.988 267.721 155.435 269.149 156.939Z" fill="#EBF5FF"/>
<path d="M251.279 175.825C252.708 177.329 255.028 177.32 256.461 175.805C257.895 174.29 257.899 171.843 256.47 170.339C255.042 168.835 252.722 168.844 251.288 170.359C249.855 171.874 249.851 174.321 251.279 175.825Z" fill="#EBF5FF"/>
<path d="M233.41 194.711C234.838 196.215 237.158 196.206 238.591 194.691C240.025 193.177 240.029 190.729 238.6 189.225C237.172 187.721 234.852 187.73 233.418 189.245C231.985 190.76 231.981 193.207 233.41 194.711Z" fill="#EBF5FF"/>
<path d="M215.54 213.597C216.968 215.101 219.288 215.092 220.721 213.577C222.155 212.063 222.159 209.615 220.73 208.111C219.302 206.607 216.982 206.616 215.548 208.131C214.115 209.646 214.111 212.093 215.54 213.597Z" fill="#EBF5FF"/>
<path d="M197.67 232.483C199.098 233.987 201.418 233.978 202.852 232.463C204.285 230.948 204.289 228.501 202.86 226.997C201.432 225.493 199.112 225.502 197.678 227.017C196.245 228.532 196.241 230.979 197.67 232.483Z" fill="#EBF5FF"/>
<path d="M179.8 251.369C181.228 252.873 183.548 252.864 184.982 251.349C186.415 249.835 186.419 247.387 184.99 245.883C183.562 244.379 181.242 244.388 179.809 245.903C178.375 247.418 178.371 249.865 179.8 251.369Z" fill="#EBF5FF"/>
<path d="M161.93 270.255C163.358 271.759 165.678 271.75 167.112 270.235C168.545 268.72 168.549 266.273 167.12 264.769C165.692 263.265 163.372 263.274 161.939 264.789C160.505 266.304 160.501 268.751 161.93 270.255Z" fill="#EBF5FF"/>
<path d="M144.06 289.141C145.489 290.645 147.808 290.636 149.242 289.121C150.675 287.607 150.679 285.159 149.251 283.655C147.822 282.151 145.502 282.16 144.069 283.675C142.635 285.19 142.631 287.637 144.06 289.141Z" fill="#EBF5FF"/>
<path d="M286.959 175.69C288.388 177.194 290.707 177.185 292.141 175.67C293.574 174.155 293.578 171.708 292.15 170.204C290.721 168.7 288.401 168.709 286.968 170.224C285.534 171.739 285.531 174.186 286.959 175.69Z" fill="#EBF5FF"/>
<path d="M269.089 194.576C270.518 196.08 272.838 196.071 274.271 194.556C275.704 193.041 275.708 190.594 274.28 189.09C272.851 187.586 270.531 187.595 269.098 189.11C267.665 190.625 267.661 193.072 269.089 194.576Z" fill="#EBF5FF"/>
<path d="M251.219 213.462C252.648 214.966 254.968 214.957 256.401 213.442C257.834 211.928 257.838 209.48 256.41 207.976C254.981 206.472 252.661 206.481 251.228 207.996C249.795 209.511 249.791 211.958 251.219 213.462Z" fill="#EBF5FF"/>
<path d="M233.349 232.348C234.778 233.852 237.098 233.843 238.531 232.328C239.964 230.813 239.968 228.366 238.54 226.862C237.111 225.358 234.791 225.367 233.358 226.882C231.925 228.397 231.921 230.844 233.349 232.348Z" fill="#EBF5FF"/>
<path d="M215.479 251.234C216.908 252.738 219.228 252.729 220.661 251.214C222.095 249.7 222.098 247.252 220.67 245.748C219.241 244.244 216.921 244.253 215.488 245.768C214.055 247.283 214.051 249.73 215.479 251.234Z" fill="#EBF5FF"/>
<path d="M197.609 270.12C199.038 271.624 201.358 271.615 202.791 270.1C204.225 268.585 204.229 266.138 202.8 264.634C201.372 263.13 199.052 263.139 197.618 264.654C196.185 266.169 196.181 268.616 197.609 270.12Z" fill="#EBF5FF"/>
<path d="M179.74 289.006C181.168 290.51 183.488 290.501 184.921 288.986C186.355 287.471 186.359 285.024 184.93 283.52C183.502 282.016 181.182 282.025 179.748 283.54C178.315 285.054 178.311 287.502 179.74 289.006Z" fill="#EBF5FF"/>
<path d="M161.87 307.892C163.298 309.396 165.618 309.387 167.051 307.872C168.485 306.358 168.489 303.91 167.06 302.406C165.632 300.902 163.312 300.911 161.878 302.426C160.445 303.941 160.441 306.388 161.87 307.892Z" fill="#EBF5FF"/>
</g>
<defs>
<clipPath id="clip0">
<rect width="238.716" height="240.003" fill="white" transform="matrix(0.688674 0.725071 -0.687297 0.726376 164.953 0)"/>
</clipPath>
</defs>
</svg>
