<svg width="57" height="54" viewBox="0 0 57 54" fill="none" xmlns="http://www.w3.org/2000/svg">
<path fill-rule="evenodd" clip-rule="evenodd" d="M28.7131 30.2474C34.3935 30.2474 39.0224 24.701 39.0224 17.8763C39.0224 11.0515 34.3935 5.50513 28.7131 5.50513C23.0327 5.50513 18.4038 11.0515 18.4038 17.8763C18.4038 24.701 23.043 30.2474 28.7131 30.2474ZM28.7131 8.59796C32.7028 8.59796 35.9296 12.7217 35.9296 17.8763C35.9296 23.0309 32.7028 27.1547 28.7131 27.1547C24.7234 27.1547 21.4966 23.0309 21.4966 17.8763C21.4966 12.7217 24.7234 8.59796 28.7131 8.59796Z" fill="#58BFE8"/>
<path fill-rule="evenodd" clip-rule="evenodd" d="M38.1461 29.2166C37.2921 29.1312 36.5305 29.7543 36.4451 30.6083C36.3597 31.4624 36.9828 32.2239 37.8368 32.3094C42.6327 32.8729 46.3483 36.7704 46.6822 41.5877H10.744C11.1095 36.7843 14.809 32.9038 19.5894 32.3094C20.4435 32.2239 21.0666 31.4624 20.9812 30.6083C20.8958 29.7543 20.1342 29.1312 19.2801 29.2166C19.1667 29.2166 7.5791 30.5362 7.5791 43.1238C7.5791 43.9778 8.27144 44.6702 9.12549 44.6702H48.3007C49.1548 44.6702 49.8471 43.9778 49.8471 43.1238C49.8471 30.5362 38.2595 29.2166 38.1461 29.2166Z" fill="#58BFE8"/>
<path d="M43.2373 51.4846H55.093V39.6289" stroke="#58BFE8" stroke-width="3" stroke-linecap="round" stroke-linejoin="round"/>
<path d="M1.9998 40.1443L1.9998 52L13.8555 52" stroke="#58BFE8" stroke-width="3" stroke-linecap="round" stroke-linejoin="round"/>
<path d="M13.8555 2.51542L1.9998 2.51542L1.9998 14.3711" stroke="#58BFE8" stroke-width="3" stroke-linecap="round" stroke-linejoin="round"/>
<path d="M55.093 13.8557L55.093 2.00005L43.2373 2.00004" stroke="#58BFE8" stroke-width="3" stroke-linecap="round" stroke-linejoin="round"/>
</svg>
