<svg width="119" height="50" viewBox="0 0 119 50" fill="none" xmlns="http://www.w3.org/2000/svg">
<path d="M9.13043 46C7 46 5.25845 45.5942 3.9058 44.7826C2.55314 43.9372 1.55556 42.7705 0.913044 41.2826C0.304348 39.7947 0 38.0362 0 36.0072V34.9928H3.60145C3.60145 35.0604 3.60145 35.1957 3.60145 35.3986C3.60145 35.6014 3.60145 35.7536 3.60145 35.8551C3.63527 37.3092 3.82126 38.5773 4.15942 39.6594C4.49758 40.7077 5.07246 41.5193 5.88406 42.0942C6.69565 42.6691 7.77778 42.9565 9.13043 42.9565C10.4155 42.9565 11.4976 42.686 12.3768 42.1449C13.2899 41.57 13.9662 40.6401 14.4058 39.3551C14.8792 38.07 15.1159 36.3961 15.1159 34.3333C15.1159 31.7971 14.6594 29.7343 13.7464 28.1449C12.8333 26.5217 11.244 25.6763 8.97826 25.6087C8.91063 25.6087 8.74155 25.6087 8.47101 25.6087C8.20048 25.6087 8.0314 25.6087 7.96377 25.6087V22.058C8.0314 22.058 8.20048 22.058 8.47101 22.058C8.74155 22.058 8.91063 22.058 8.97826 22.058C11.1763 22.058 12.7488 21.4493 13.6957 20.2319C14.6425 18.9807 15.1159 16.9855 15.1159 14.2464C15.1159 12.1159 14.7101 10.3744 13.8986 9.02174C13.1208 7.66908 11.6667 6.99275 9.53623 6.99275C7.47343 6.99275 5.9686 7.58454 5.02174 8.76812C4.1087 9.91787 3.63527 11.7101 3.60145 14.1449C3.60145 14.2126 3.60145 14.3309 3.60145 14.5C3.60145 14.6353 3.60145 14.7536 3.60145 14.8551H0V13.8913C0 11.8623 0.304348 10.1208 0.913044 8.66667C1.55556 7.17874 2.58696 6.02898 4.00725 5.21739C5.42754 4.4058 7.25362 4 9.48551 4C11.6498 4 13.4251 4.43961 14.8116 5.31884C16.1981 6.19807 17.2295 7.41546 17.9058 8.97101C18.5821 10.4928 18.9203 12.2512 18.9203 14.2464C18.9203 17.1208 18.3623 19.3527 17.2464 20.942C16.1643 22.4976 14.7609 23.4783 13.0362 23.8841C14.0507 24.1546 14.9976 24.6957 15.8768 25.5072C16.7899 26.3188 17.5169 27.4517 18.058 28.9058C18.6329 30.3261 18.9203 32.1184 18.9203 34.2826C18.9203 36.5821 18.5821 38.628 17.9058 40.4203C17.2633 42.1787 16.2319 43.5483 14.8116 44.529C13.3913 45.5097 11.4976 46 9.13043 46Z" fill="#58BFE8"/>
<path d="M34.6156 46C32.1808 46 30.2533 45.4758 28.833 44.4275C27.4127 43.3792 26.3982 41.942 25.7895 40.1159C25.1808 38.2899 24.8765 36.2101 24.8765 33.8768V16.0217C24.8765 13.6546 25.1808 11.5749 25.7895 9.78261C26.432 7.95652 27.4634 6.53623 28.8837 5.52174C30.3378 4.50725 32.2485 4 34.6156 4C37.0504 4 38.9779 4.50725 40.3982 5.52174C41.8523 6.53623 42.8837 7.95652 43.4924 9.78261C44.1349 11.5749 44.4562 13.6546 44.4562 16.0217V33.8768C44.4562 36.244 44.1349 38.3406 43.4924 40.1667C42.8837 41.9928 41.8692 43.43 40.4489 44.4783C39.0286 45.4928 37.0842 46 34.6156 46ZM34.6156 43.058C36.205 43.058 37.4224 42.6522 38.2678 41.8406C39.147 41.029 39.7557 39.9638 40.0939 38.6449C40.4658 37.2923 40.6518 35.8043 40.6518 34.1812V15.7681C40.6518 14.1111 40.4658 12.6232 40.0939 11.3043C39.7557 9.95169 39.1639 8.88647 38.3185 8.10869C37.4731 7.33092 36.2388 6.94203 34.6156 6.94203C33.06 6.94203 31.8427 7.33092 30.9634 8.10869C30.118 8.88647 29.5093 9.95169 29.1373 11.3043C28.7992 12.6232 28.6301 14.1111 28.6301 15.7681V34.1812C28.6301 35.8043 28.7992 37.2923 29.1373 38.6449C29.5093 39.9638 30.1349 41.029 31.0142 41.8406C31.8934 42.6522 33.0939 43.058 34.6156 43.058Z" fill="#58BFE8"/>
<path d="M60.82 46C58.3852 46 56.4577 45.4758 55.0374 44.4275C53.6171 43.3792 52.6026 41.942 51.9939 40.1159C51.3852 38.2899 51.0809 36.2101 51.0809 33.8768V16.0217C51.0809 13.6546 51.3852 11.5749 51.9939 9.78261C52.6365 7.95652 53.6679 6.53623 55.0881 5.52174C56.5423 4.50725 58.4529 4 60.82 4C63.2548 4 65.1823 4.50725 66.6026 5.52174C68.0567 6.53623 69.0881 7.95652 69.6968 9.78261C70.3394 11.5749 70.6606 13.6546 70.6606 16.0217V33.8768C70.6606 36.244 70.3394 38.3406 69.6968 40.1667C69.0881 41.9928 68.0737 43.43 66.6534 44.4783C65.2331 45.4928 63.2886 46 60.82 46ZM60.82 43.058C62.4094 43.058 63.6268 42.6522 64.4722 41.8406C65.3514 41.029 65.9601 39.9638 66.2983 38.6449C66.6703 37.2923 66.8563 35.8043 66.8563 34.1812V15.7681C66.8563 14.1111 66.6703 12.6232 66.2983 11.3043C65.9601 9.95169 65.3683 8.88647 64.5229 8.10869C63.6775 7.33092 62.4432 6.94203 60.82 6.94203C59.2645 6.94203 58.0471 7.33092 57.1679 8.10869C56.3224 8.88647 55.7137 9.95169 55.3418 11.3043C55.0036 12.6232 54.8345 14.1111 54.8345 15.7681V34.1812C54.8345 35.8043 55.0036 37.2923 55.3418 38.6449C55.7137 39.9638 56.3394 41.029 57.2186 41.8406C58.0978 42.6522 59.2983 43.058 60.82 43.058Z" fill="#58BFE8"/>
<path d="M87.0245 46C84.5897 46 82.6621 45.4758 81.2418 44.4275C79.8216 43.3792 78.8071 41.942 78.1984 40.1159C77.5897 38.2899 77.2853 36.2101 77.2853 33.8768V16.0217C77.2853 13.6546 77.5897 11.5749 78.1984 9.78261C78.8409 7.95652 79.8723 6.53623 81.2926 5.52174C82.7467 4.50725 84.6573 4 87.0245 4C89.4592 4 91.3868 4.50725 92.8071 5.52174C94.2612 6.53623 95.2926 7.95652 95.9013 9.78261C96.5438 11.5749 96.865 13.6546 96.865 16.0217V33.8768C96.865 36.244 96.5438 38.3406 95.9013 40.1667C95.2926 41.9928 94.2781 43.43 92.8578 44.4783C91.4375 45.4928 89.4931 46 87.0245 46ZM87.0245 43.058C88.6138 43.058 89.8312 42.6522 90.6766 41.8406C91.5559 41.029 92.1646 39.9638 92.5027 38.6449C92.8747 37.2923 93.0607 35.8043 93.0607 34.1812V15.7681C93.0607 14.1111 92.8747 12.6232 92.5027 11.3043C92.1646 9.95169 91.5728 8.88647 90.7274 8.10869C89.8819 7.33092 88.6476 6.94203 87.0245 6.94203C85.4689 6.94203 84.2515 7.33092 83.3723 8.10869C82.5269 8.88647 81.9182 9.95169 81.5462 11.3043C81.208 12.6232 81.0389 14.1111 81.0389 15.7681V34.1812C81.0389 35.8043 81.208 37.2923 81.5462 38.6449C81.9182 39.9638 82.5438 41.029 83.423 41.8406C84.3022 42.6522 85.5027 43.058 87.0245 43.058Z" fill="#58BFE8"/>
<path d="M108.41 33.8261V25.8116H101.309V22.971H108.41V15.058H111.2V22.971H118.352V25.8116H111.2V33.8261H108.41Z" fill="#58BFE8"/>
</svg>
