<svg width="50" height="50" viewBox="0 0 50 50" fill="none" xmlns="http://www.w3.org/2000/svg">
<path fill-rule="evenodd" clip-rule="evenodd" d="M13.5205 21.5C15.8664 21.5191 17.9825 20.0934 18.8457 17.912C18.9707 17.6187 19.1349 17.3436 19.334 17.0945C19.5839 16.8371 19.8913 16.6425 20.231 16.5268C21.2985 16.1212 22.2417 15.4442 22.9674 14.5625C23.633 13.6668 23.9626 12.5655 23.8984 11.4514C24.0593 10.1091 23.6471 8.76119 22.763 7.73852C21.8199 6.79894 20.5402 6.27561 19.2091 6.28516C17.2053 6.44899 15.3051 7.24406 13.7817 8.55603C12.3397 9.6347 8.99014 12.496 9.00149 15.8455C9.01285 19.1951 10.9431 21.5 13.5205 21.5ZM15.7914 11.2813C16.7522 10.4378 17.9341 9.88625 19.1977 9.69171C19.6224 9.68175 20.0326 9.84583 20.3332 10.1459C20.5651 10.8851 20.5651 11.6776 20.3332 12.4168C19.3908 13.5522 18.4143 13.2002 16.9269 14.6876C15.4394 16.1751 15.7914 18.0939 13.5206 18.0939C12.9415 18.0939 12.3851 16.9585 12.3851 15.8231C12.3738 14.3697 14.1905 12.4735 15.7914 11.2813Z" fill="#58BFE8"/>
<path fill-rule="evenodd" clip-rule="evenodd" d="M45.7444 11.213L46.6073 10.0776C48.4466 8.16459 48.4062 5.12829 46.5165 3.26499C44.5408 1.28933 41.6795 2.35664 39.7038 4.29824L39.3519 4.54804C29.9601 -2.05786 17.2746 -1.41041 8.60421 6.11737C-0.0661776 13.6451 -2.48802 26.1142 2.73405 36.3402C1.04229 39.4552 0.108687 42.925 0.00900173 46.4683C-0.0199964 48.0258 0.984624 49.4147 2.4729 49.8746C2.78421 49.9567 3.10472 49.9987 3.42666 49.9995C4.55424 50.0188 5.60456 49.4285 6.17442 48.4553C6.97155 47.7879 7.99959 47.4616 9.03572 47.547C10.4732 47.557 11.9042 47.3542 13.2822 46.9452C23.3495 52.209 35.7008 50.0167 43.3416 41.6099C50.9825 33.2031 51.9884 20.6992 45.7898 11.179L45.7444 11.213ZM41.9747 6.8074C42.3487 6.45531 42.7644 6.15026 43.2124 5.89905C43.4849 5.75144 43.9731 5.53571 44.1094 5.67196C44.4217 5.94576 44.6008 6.34095 44.6008 6.7563C44.6008 7.17166 44.4217 7.56684 44.1094 7.84065L44.0072 7.95419C43.8823 8.11315 31.5174 23.8503 27.6342 27.5859C25.3534 29.669 22.6388 31.2202 19.6861 32.1276L17.8467 30.2882C19.1878 27.5332 20.7965 24.9166 22.6496 22.4764C26.0559 18.3094 41.6001 7.14803 41.759 7.03449L41.9747 6.8074ZM3.30179 24.9064C3.32983 17.061 7.61481 9.84927 14.4918 6.07329C21.3688 2.2973 29.7536 2.55239 36.3884 6.73944C31.4606 10.3728 22.6496 17.0606 20.004 20.3647C17.8107 23.2554 15.9269 26.3684 14.3836 29.6525C13.8026 29.5193 13.2085 29.4508 12.6124 29.4482C9.85169 29.5534 7.25448 30.7843 5.42505 32.8545C5.26609 33.0134 5.11848 33.1838 4.97088 33.3541C3.84796 30.6803 3.28011 27.8063 3.30179 24.9064ZM3.36985 46.4798C3.36985 46.4798 3.36985 39.6672 7.84347 35.1254C9.05185 33.7257 10.7773 32.8773 12.6237 32.7751C13.7953 32.7796 14.9267 33.2024 15.8142 33.9673C18.8231 36.9762 18.4257 39.3038 16.9497 40.7799C14.8945 42.9787 12.0112 44.2144 9.00162 44.1862C5.00488 44.2089 3.36985 46.4798 3.36985 46.4798ZM24.875 46.4796C22.2419 46.4781 19.6319 45.9892 17.1768 45.0376C17.9466 44.4907 18.6683 43.8791 19.3341 43.2095C21.5108 41.1671 22.1045 37.9456 20.7988 35.2615C24.2054 34.2052 27.335 32.4057 29.9618 29.993C32.8004 27.2566 39.4881 19.002 43.4962 13.9948C47.4085 20.6675 47.449 28.9242 43.6022 35.635C39.7554 42.3458 32.6102 46.4835 24.875 46.4796Z" fill="#58BFE8"/>
<path fill-rule="evenodd" clip-rule="evenodd" d="M27.8413 42.9748C29.4388 42.9748 30.7338 41.6797 30.7338 40.0822C30.7338 38.4847 29.4388 37.1897 27.8413 37.1897C26.2438 37.1897 24.9487 38.4847 24.9487 40.0822C24.9487 41.6797 26.2438 42.9748 27.8413 42.9748Z" fill="#58BFE8"/>
<path fill-rule="evenodd" clip-rule="evenodd" d="M36.9321 37.1899C38.5296 37.1899 39.8246 35.8948 39.8246 34.2973C39.8246 32.6998 38.5296 31.4048 36.9321 31.4048C35.3346 31.4048 34.0396 32.6998 34.0396 34.2973C34.0396 35.8948 35.3346 37.1899 36.9321 37.1899Z" fill="#58BFE8"/>
<path fill-rule="evenodd" clip-rule="evenodd" d="M41.0639 28.0989C42.6614 28.0989 43.9565 26.8039 43.9565 25.2064C43.9565 23.6089 42.6614 22.3138 41.0639 22.3138C39.4664 22.3138 38.1714 23.6089 38.1714 25.2064C38.1714 26.8039 39.4664 28.0989 41.0639 28.0989Z" fill="#58BFE8"/>
</svg>
