<svg width="50" height="50" viewBox="0 0 50 50" fill="none" xmlns="http://www.w3.org/2000/svg">
<path fill-rule="evenodd" clip-rule="evenodd" d="M25 0C11.1929 0 0 11.1929 0 25C0 38.8071 11.1929 50 25 50C38.8071 50 50 38.8071 50 25C50 11.1929 38.8071 0 25 0ZM25 46.5909C13.0757 46.5909 3.40909 36.9244 3.40909 25C3.40909 13.0757 13.0757 3.40911 25 3.40911C36.9243 3.40911 46.5909 13.0757 46.5909 25C46.5909 36.9244 36.9243 46.5909 25 46.5909Z" fill="#58BFE8"/>
<path fill-rule="evenodd" clip-rule="evenodd" d="M35.2271 27.2727L26.1361 24.6212V11.3636C26.1361 10.4222 25.373 9.65906 24.4316 9.65906C23.4902 9.65906 22.7271 10.4222 22.7271 11.3636V27.2727L35.2271 30.6818C36.1684 30.6818 36.9316 29.9186 36.9316 28.9772C36.9316 28.0358 36.1684 27.2727 35.2271 27.2727Z" fill="#58BFE8"/>
</svg>
