<svg xmlns="http://www.w3.org/2000/svg" width="9.688" height="9.688" viewBox="0 0 9.688 9.688">
  <defs>
    <style>
      .cls-1 {
        fill: #c5c5c5;
        fill-rule: evenodd;
      }
    </style>
  </defs>
  <path id="error2" class="cls-1" d="M339.572,627.081l2.96,2.96a0.492,0.492,0,0,1,0,.7l-1.045,1.045a0.493,0.493,0,0,1-.7,0l-2.96-2.96-2.959,2.96a0.494,0.494,0,0,1-.7,0l-1.044-1.045a0.492,0.492,0,0,1,0-.7l2.959-2.96-2.959-2.959a0.494,0.494,0,0,1,0-.7l1.044-1.044a0.492,0.492,0,0,1,.7,0l2.959,2.959,2.96-2.959a0.491,0.491,0,0,1,.7,0l1.045,1.044a0.494,0.494,0,0,1,0,.7Z" transform="translate(-333 -622.25)"/>
</svg>
