<svg width="65" height="50" viewBox="0 0 65 50" fill="none" xmlns="http://www.w3.org/2000/svg">
<path fill-rule="evenodd" clip-rule="evenodd" d="M5 3.57141C2.23858 3.57141 0 5.80998 0 8.57141V41.4286C0 44.19 2.23857 46.4286 5 46.4286H59.2857C62.0471 46.4286 64.2857 44.19 64.2857 41.4286V8.57141C64.2857 5.80999 62.0471 3.57141 59.2857 3.57141H5ZM6.07143 7.14285C4.69072 7.14285 3.57143 8.26215 3.57143 9.64286V40.3571C3.57143 41.7379 4.69072 42.8571 6.07143 42.8571H58.2143C59.595 42.8571 60.7143 41.7378 60.7143 40.3571V9.64285C60.7143 8.26214 59.595 7.14285 58.2143 7.14285H6.07143Z" fill="#58BFE8"/>
<rect x="3.57129" y="14.2858" width="57.1429" height="7.14286" fill="#58BFE8"/>
<rect x="8.92871" y="26.7858" width="10.7143" height="10.7143" rx="2" fill="#58BFE8"/>
<rect x="32.1431" y="33.9286" width="23.2143" height="3.57143" rx="1" fill="#58BFE8"/>
<rect x="32.1431" y="26.7858" width="14.2857" height="3.57143" rx="1" fill="#58BFE8"/>
</svg>
