<svg width="67" height="50" viewBox="0 0 67 50" fill="none" xmlns="http://www.w3.org/2000/svg">
<path fill-rule="evenodd" clip-rule="evenodd" d="M40.824 19.606L30.3089 30.1211L25.8543 25.6666C24.9588 24.8322 23.5634 24.8568 22.6979 25.7223C21.8324 26.5878 21.8078 27.9832 22.6422 28.8787L28.7028 34.9393C29.5901 35.8255 31.0276 35.8255 31.9149 34.9393L44.0361 22.8181C44.6442 22.2515 44.8945 21.3982 44.6888 20.593C44.4832 19.7877 43.8544 19.159 43.0491 18.9533C42.2439 18.7477 41.3906 18.9979 40.824 19.606Z" fill="#58BFE8"/>
<path fill-rule="evenodd" clip-rule="evenodd" d="M53.8697 18.303C51.9909 10.4091 46.2939 0 33.3394 0C23.4303 0 18.5667 4.45455 16.2333 8.19697C15.3361 9.63972 14.6571 11.2072 14.2182 12.8485C8.00607 14.6212 0.00606943 19.6515 0.00606943 30.303C-0.194548 38.0733 4.59486 45.1019 11.9 47.7576C15.3454 49.1553 19.0162 49.9151 22.7333 50H43.9455C51.8091 50 66.6727 46.5152 66.6727 33.3333C66.6727 23.4545 60.2485 19.1818 53.8697 18.303ZM43.9455 45.4546H22.7333C22.7333 45.4546 4.55152 45.4546 4.55152 30.303C4.55152 18.1818 18.1879 16.6667 18.1879 16.6667C18.1879 16.6667 18.1879 4.54545 33.3394 4.54545C48.4909 4.54545 50.0061 22.7273 50.0061 22.7273C50.4249 22.7038 50.8448 22.7038 51.2636 22.7273C54.2939 22.7273 62.1273 23.697 62.1273 33.3333C62.1273 45.4546 43.9455 45.4546 43.9455 45.4546Z" fill="#58BFE8"/>
</svg>
