<svg width="62" height="50" viewBox="0 0 62 50" fill="none" xmlns="http://www.w3.org/2000/svg">
<path d="M50.5201 44.3165H51.746C54.2037 44.3165 56.2037 42.3165 56.2037 39.8588V10.1412C56.2037 7.68351 54.2037 5.68351 51.746 5.68351H10.1412C7.68359 5.68351 5.68359 7.68351 5.68359 10.1412V11.367H8.65537V10.1412C8.65537 9.32243 9.32104 8.65527 10.1413 8.65527H51.746C52.5662 8.65527 53.2319 9.32243 53.2319 10.1412V39.8588C53.2319 40.6776 52.5662 41.3447 51.746 41.3447H50.5201V44.3165Z" fill="#58BFE8"/>
<path d="M56.2037 38.633H57.4295C59.8872 38.633 61.8872 36.633 61.8872 34.1753V4.45765C61.8872 2 59.8872 0 57.4295 0H15.8248C13.3671 0 11.3671 2 11.3671 4.45765V5.68351H14.3389V4.45765C14.3389 3.63893 15.0045 2.97176 15.8248 2.97176H57.4295C58.2497 2.97176 58.9154 3.63893 58.9154 4.45765V34.1753C58.9154 34.9941 58.2497 35.6612 57.4295 35.6612H56.2037V38.633Z" fill="#58BFE8"/>
<path fill-rule="evenodd" clip-rule="evenodd" d="M32.6896 29.0935C29.4697 29.0935 26.8501 26.4739 26.8501 23.254C26.8501 20.034 29.4697 17.4144 32.6896 17.4144C35.9095 17.4144 38.5291 20.034 38.5291 23.254C38.5291 26.4739 35.9095 29.0935 32.6896 29.0935ZM32.6896 20.1782C30.9927 20.1782 29.6138 21.5571 29.6138 23.254C29.6138 24.9508 30.9927 26.3297 32.6896 26.3297C34.3865 26.3297 35.7654 24.9508 35.7654 23.254C35.7654 21.5571 34.3865 20.1782 32.6896 20.1782Z" fill="#58BFE8"/>
<path fill-rule="evenodd" clip-rule="evenodd" d="M48.1666 41.9762L40.1191 35.4353L33.3152 40.9643L31.5708 38.8201L40.1191 31.8751L49.9111 39.8305L48.1666 41.9762Z" fill="#58BFE8"/>
<path fill-rule="evenodd" clip-rule="evenodd" d="M40.6568 49.5201L16.3389 26.6316L2.42654 39.5498L0.54541 37.5246L16.3508 22.8485L42.5528 47.5082L40.6568 49.5201Z" fill="#58BFE8"/>
<path fill-rule="evenodd" clip-rule="evenodd" d="M46.0624 50H4.45765C2 50 0 48 0 45.5424V15.8247C0 13.3671 2 11.3671 4.45765 11.3671H46.0624C48.5201 11.3671 50.5201 13.3671 50.5201 15.8247V45.5424C50.5201 48 48.5201 50 46.0624 50ZM4.45766 14.3388C3.63745 14.3388 2.97177 15.006 2.97177 15.8247V45.5424C2.97177 46.3611 3.63745 47.0283 4.45766 47.0283H46.0624C46.8826 47.0283 47.5483 46.3611 47.5483 45.5424V15.8247C47.5483 15.006 46.8826 14.3388 46.0624 14.3388H4.45766Z" fill="#58BFE8"/>
</svg>
