<svg width="50" height="50" viewBox="0 0 50 50" fill="none" xmlns="http://www.w3.org/2000/svg">
<path d="M0 0H50V50H0V0Z" fill="#262628" fill-opacity="0.3"/>
<mask id="mask0" mask-type="alpha" maskUnits="userSpaceOnUse" x="0" y="0" width="50" height="50">
<path d="M0 0H50V50H0V0Z" fill="white"/>
</mask>
<g mask="url(#mask0)">
<path d="M0 0H50V50H0V0Z" fill="white" fill-opacity="0.12"/>
</g>
<path fill-rule="evenodd" clip-rule="evenodd" d="M31.3505 17.35L23.7172 25L31.3505 32.65L29.0005 35L19.0005 25L29.0005 15L31.3505 17.35Z" fill="white" fill-opacity="0.87"/>
<mask id="mask1" mask-type="alpha" maskUnits="userSpaceOnUse" x="19" y="15" width="13" height="20">
<path fill-rule="evenodd" clip-rule="evenodd" d="M31.35 32.65L23.7167 25L31.35 17.35L29 15L19 25L29 35L31.35 32.65Z" fill="white"/>
</mask>
<g mask="url(#mask1)">
<rect width="50" height="50" transform="matrix(-4.37114e-08 -1 -1 4.37114e-08 50 50)" fill="white" fill-opacity="0.87"/>
<mask id="mask2" mask-type="alpha" maskUnits="userSpaceOnUse" x="-1" y="0" width="51" height="51">
<rect width="50" height="50" transform="matrix(-4.37114e-08 -1 -1 4.37114e-08 49.8003 50.2002)" fill="white"/>
</mask>
<g mask="url(#mask2)">
</g>
</g>
</svg>
