<svg width="50" height="50" viewBox="0 0 50 50" fill="none" xmlns="http://www.w3.org/2000/svg">
<path d="M0 0H50V50H0V0Z" fill="#262628" fill-opacity="0.3"/>
<mask id="mask0" mask-type="alpha" maskUnits="userSpaceOnUse" x="0" y="0" width="50" height="50">
<path d="M0 0H50V50H0V0Z" fill="white"/>
</mask>
<g mask="url(#mask0)">
<path d="M0 0H50V50H0V0Z" fill="white" fill-opacity="0.12"/>
</g>
<path fill-rule="evenodd" clip-rule="evenodd" d="M17.6495 17.35L25.2828 25L17.6495 32.65L19.9995 35L29.9995 25L19.9995 15L17.6495 17.35Z" fill="white" fill-opacity="0.87"/>
<mask id="mask1" mask-type="alpha" maskUnits="userSpaceOnUse" x="17" y="15" width="13" height="20">
<path fill-rule="evenodd" clip-rule="evenodd" d="M17.65 17.35L25.2833 25L17.65 32.65L20 35L30 25L20 15L17.65 17.35Z" fill="white"/>
</mask>
<g mask="url(#mask1)">
<rect x="48.9995" width="50" height="50" transform="rotate(90 48.9995 0)" fill="white" fill-opacity="0.87"/>
<rect x="38.9995" y="10" width="30" height="30" transform="rotate(90 38.9995 10)" fill="white" fill-opacity="0.87"/>
<mask id="mask2" mask-type="alpha" maskUnits="userSpaceOnUse" x="8" y="10" width="31" height="30">
<rect x="38.9995" y="10" width="30" height="30" transform="rotate(90 38.9995 10)" fill="white"/>
</mask>
<g mask="url(#mask2)">
</g>
</g>
</svg>
