<svg width="163" height="24" viewBox="0 0 163 24" fill="none" xmlns="http://www.w3.org/2000/svg">
<path d="M162.061 10.9393C162.646 11.5251 162.646 12.4749 162.061 13.0607L152.515 22.6066C151.929 23.1924 150.979 23.1924 150.393 22.6066C149.808 22.0208 149.808 21.0711 150.393 20.4853L158.879 12L150.393 3.51471C149.808 2.92893 149.808 1.97918 150.393 1.39339C150.979 0.807607 151.929 0.807607 152.515 1.39339L162.061 10.9393ZM96 10.5L161 10.5L161 13.5L96 13.5L96 10.5Z" fill="#C8A35F"/>
<path d="M17.6984 13.2969C17.5839 14.5104 17.1359 15.4583 16.3547 16.1406C15.5734 16.8177 14.5344 17.1562 13.2375 17.1562C12.3312 17.1562 11.5318 16.9427 10.8391 16.5156C10.1516 16.0833 9.62031 15.4714 9.24531 14.6797C8.87031 13.888 8.675 12.9688 8.65937 11.9219V10.8594C8.65937 9.78646 8.84948 8.84115 9.22969 8.02344C9.6099 7.20573 10.1542 6.57552 10.8625 6.13281C11.576 5.6901 12.399 5.46875 13.3312 5.46875C14.5865 5.46875 15.5969 5.8099 16.3625 6.49219C17.1281 7.17448 17.5734 8.13802 17.6984 9.38281H15.7297C15.6359 8.5651 15.3964 7.97656 15.0109 7.61719C14.6307 7.2526 14.0708 7.07031 13.3312 7.07031C12.4719 7.07031 11.8104 7.38542 11.3469 8.01562C10.8885 8.64062 10.6542 9.5599 10.6437 10.7734V11.7812C10.6437 13.0104 10.8625 13.9479 11.3 14.5938C11.7427 15.2396 12.3885 15.5625 13.2375 15.5625C14.0135 15.5625 14.5969 15.388 14.9875 15.0391C15.3781 14.6901 15.6255 14.1094 15.7297 13.2969H17.6984ZM30.0172 5.625V17H28.0484V7.21875H24.5641L24.3609 11.6172C24.2828 12.9922 24.1135 14.0599 23.8531 14.8203C23.5979 15.5755 23.2255 16.1276 22.7359 16.4766C22.2464 16.8255 21.5901 17 20.7672 17H20.2672V15.4219L20.5797 15.3984C21.0328 15.3568 21.3818 15.1979 21.6266 14.9219C21.8766 14.6458 22.0641 14.2292 22.1891 13.6719C22.3193 13.1094 22.4104 12.2839 22.4625 11.1953L22.6812 5.625H30.0172ZM40.6484 11.9219H35.9766V15.4219H41.4375V17H34V5.625H41.3828V7.21875H35.9766V10.3594H40.6484V11.9219ZM55.1078 19.7969H53.2328V17H45.7406V19.7969H43.8344L43.7719 15.4219H44.6859C45.1391 14.9844 45.501 14.349 45.7719 13.5156C46.0427 12.6771 46.2172 11.7292 46.2953 10.6719L46.5922 5.625H53.7641V15.4219H55.2094L55.1078 19.7969ZM46.9203 15.4219H51.7953V7.21875H48.475L48.2875 10.4219C48.1469 12.5625 47.6911 14.2292 46.9203 15.4219Z" fill="#C8A35F"/>
</svg>
