<svg width="162" height="24" viewBox="0 0 162 24" fill="none" xmlns="http://www.w3.org/2000/svg">
<path d="M0.939339 10.9393C0.353554 11.5251 0.353554 12.4749 0.939339 13.0607L10.4853 22.6066C11.0711 23.1924 12.0208 23.1924 12.6066 22.6066C13.1924 22.0208 13.1924 21.0711 12.6066 20.4853L4.12132 12L12.6066 3.51471C13.1924 2.92893 13.1924 1.97918 12.6066 1.39339C12.0208 0.807607 11.0711 0.807607 10.4853 1.39339L0.939339 10.9393ZM67 10.5L2 10.5L2 13.5L67 13.5L67 10.5Z" fill="#C8A35F"/>
<path d="M108.336 18H106.367V12.9453H101.281V18H99.3047V6.625H101.281V11.3594H106.367V6.625H108.336V18ZM118.788 15.3516H114.381L113.459 18H111.405L115.702 6.625H117.475L121.78 18H119.717L118.788 15.3516ZM114.936 13.7578H118.233L116.584 9.03906L114.936 13.7578ZM130.364 9.72656C130.364 9.21615 130.171 8.8099 129.786 8.50781C129.401 8.20573 128.877 8.05469 128.216 8.05469C127.648 8.05469 127.174 8.20573 126.794 8.50781C126.414 8.80469 126.223 9.1901 126.223 9.66406H124.255C124.255 9.04427 124.427 8.49219 124.77 8.00781C125.114 7.52344 125.591 7.14844 126.2 6.88281C126.809 6.61198 127.481 6.47656 128.216 6.47656C129.518 6.47656 130.528 6.76042 131.247 7.32812C131.971 7.89583 132.333 8.6901 132.333 9.71094C132.333 10.2266 132.177 10.7005 131.864 11.1328C131.552 11.5651 131.114 11.9062 130.552 12.1562C131.187 12.375 131.671 12.7083 132.005 13.1562C132.343 13.599 132.513 14.151 132.513 14.8125C132.513 15.8333 132.122 16.6458 131.341 17.25C130.559 17.849 129.518 18.1484 128.216 18.1484C127.414 18.1484 126.687 18.0052 126.036 17.7188C125.39 17.4323 124.903 17.0417 124.575 16.5469C124.252 16.0521 124.091 15.4844 124.091 14.8438H126.059C126.059 15.3333 126.263 15.7474 126.669 16.0859C127.075 16.4193 127.591 16.5859 128.216 16.5859C128.914 16.5859 129.473 16.4219 129.895 16.0938C130.322 15.7656 130.536 15.3385 130.536 14.8125C130.536 14.1719 130.348 13.7083 129.973 13.4219C129.604 13.1302 129.059 12.9844 128.341 12.9844H127.005V11.4219H128.27C129.666 11.4219 130.364 10.8568 130.364 9.72656ZM142.316 15.3516H137.909L136.987 18H134.933L139.23 6.625H141.003L145.308 18H143.245L142.316 15.3516ZM138.464 13.7578H141.761L140.112 9.03906L138.464 13.7578ZM158.822 20.7969H156.947V18H149.455V20.7969H147.548L147.486 16.4219H148.4C148.853 15.9844 149.215 15.349 149.486 14.5156C149.757 13.6771 149.931 12.7292 150.009 11.6719L150.306 6.625H157.478V16.4219H158.923L158.822 20.7969ZM150.634 16.4219H155.509V8.21875H152.189L152.002 11.4219C151.861 13.5625 151.405 15.2292 150.634 16.4219Z" fill="#C8A35F"/>
</svg>
