<?xml version="1.0" standalone="no"?>
<!DOCTYPE svg PUBLIC "-//W3C//DTD SVG 20010904//EN"
 "http://www.w3.org/TR/2001/REC-SVG-20010904/DTD/svg10.dtd">
<svg version="1.0" xmlns="http://www.w3.org/2000/svg"
 width="1920.000000pt" height="1080.000000pt" viewBox="0 0 1920.000000 1080.000000"
 preserveAspectRatio="xMidYMid meet">

<g transform="translate(0.000000,1080.000000) scale(0.100000,-0.100000)"
fill="#000000" stroke="none">
<path d="M9361 7485 c-88 -20 -190 -60 -246 -98 -26 -18 -91 -61 -145 -97 -55
-36 -255 -170 -447 -299 -191 -129 -499 -335 -683 -459 -486 -326 -471 -315
-518 -412 -57 -117 -25 -250 85 -350 l53 -49 -53 -50 c-72 -68 -108 -136 -115
-217 -4 -59 -2 -71 32 -139 32 -65 72 -111 135 -152 2 -1 -24 -29 -58 -62 -80
-77 -106 -132 -106 -231 0 -134 51 -198 280 -352 77 -52 244 -164 370 -250
127 -85 383 -257 570 -383 187 -126 402 -270 477 -321 237 -161 313 -188 528
-188 235 0 281 19 677 287 283 190 533 358 1108 745 310 208 378 264 419 346
58 114 22 252 -91 356 -51 47 -55 53 -39 62 41 23 94 80 122 130 25 46 29 63
29 133 0 65 -5 89 -25 128 -25 50 -78 112 -119 140 l-24 16 55 50 c144 132
156 310 30 439 -26 26 -204 153 -397 282 -192 129 -450 302 -573 385 -123 82
-274 184 -336 225 -62 41 -193 129 -291 194 -98 66 -208 132 -245 147 -139 56
-320 74 -459 44z m176 -856 c205 -66 305 -223 228 -358 -21 -36 -22 -42 -8
-36 206 88 409 76 580 -34 186 -120 202 -283 43 -440 -44 -45 -254 -192 -604
-425 -11 -8 -105 51 -368 228 -194 131 -482 324 -640 429 -158 106 -288 195
-288 198 0 12 545 372 604 399 75 34 130 49 210 58 71 8 189 -1 243 -19z"/>
<path d="M9212 6471 c-29 -11 -69 -30 -90 -42 -42 -26 -313 -207 -325 -219 -5
-4 33 -36 85 -71 51 -34 142 -96 201 -136 l109 -73 121 82 c230 155 281 204
294 282 9 58 -39 122 -127 168 -63 32 -192 37 -268 9z"/>
<path d="M9835 6136 c-73 -24 -167 -77 -333 -188 -136 -91 -162 -112 -151
-123 26 -23 418 -285 428 -285 6 0 88 52 183 116 263 176 323 250 280 348 -21
46 -58 79 -132 117 -55 28 -210 37 -275 15z"/>
</g>
</svg>
