<svg width="106" height="41" viewBox="0 0 106 41" fill="none" xmlns="http://www.w3.org/2000/svg">
<path d="M14.2178 18V17.9512C14.234 17.9105 14.2463 17.8494 14.2544 17.7681C14.2625 17.6867 14.2666 17.6134 14.2666 17.5483C14.2666 17.2961 14.23 17.0194 14.1567 16.7183C14.0916 16.409 13.9614 16.0265 13.7661 15.5708L12.2891 12.2505C11.8333 12.2342 11.2271 12.2261 10.4702 12.2261C9.71338 12.2261 8.89551 12.2261 8.0166 12.2261C7.3737 12.2261 6.75114 12.2261 6.14893 12.2261C5.55485 12.2261 5.01774 12.2342 4.5376 12.2505L3.13379 15.4731C3.01172 15.7743 2.88151 16.1038 2.74316 16.4619C2.60482 16.82 2.53564 17.1821 2.53564 17.5483C2.53564 17.6541 2.54378 17.7437 2.56006 17.8169C2.57633 17.882 2.59261 17.9268 2.60889 17.9512V18H0.118652V17.9512C0.265137 17.7965 0.448242 17.5239 0.667969 17.1333C0.887695 16.7345 1.12777 16.2381 1.38818 15.644L8.38281 0.128906H9.35938L15.9878 15.0459C16.1424 15.3958 16.3011 15.7376 16.4639 16.0713C16.6348 16.3968 16.7935 16.6898 16.9399 16.9502C17.0864 17.2106 17.2166 17.4303 17.3306 17.6094C17.4445 17.7884 17.5218 17.9023 17.5625 17.9512V18H14.2178ZM6.30762 11.1763C6.77962 11.1763 7.26383 11.1763 7.76025 11.1763C8.25667 11.1681 8.74089 11.1641 9.21289 11.1641C9.69303 11.1559 10.1528 11.1519 10.5923 11.1519C11.0317 11.1437 11.4305 11.1356 11.7886 11.1274L8.3584 3.37598L4.98926 11.1763H6.30762ZM27.6089 9.77246C27.6089 8.69824 27.3932 7.90885 26.9619 7.4043C26.5306 6.89974 25.9528 6.64746 25.2285 6.64746C24.9681 6.64746 24.6751 6.70443 24.3496 6.81836C24.0241 6.92415 23.6904 7.07064 23.3486 7.25781C23.0068 7.43685 22.665 7.64844 22.3232 7.89258C21.9814 8.13672 21.66 8.39714 21.3589 8.67383L21.3345 10.2729V13.2271C21.3345 13.9188 21.3426 14.5251 21.3589 15.0459C21.3752 15.5586 21.3996 16.0021 21.4321 16.3765C21.4647 16.7508 21.5013 17.0641 21.542 17.3164C21.5827 17.5687 21.6274 17.7803 21.6763 17.9512V18H18.8564V17.9512C18.9053 17.7803 18.95 17.5687 18.9907 17.3164C19.0396 17.0641 19.0762 16.7508 19.1006 16.3765C19.1331 16.0021 19.1576 15.5586 19.1738 15.0459C19.1982 14.5251 19.2104 13.9188 19.2104 13.2271V10.2729C19.2104 9.58122 19.1982 8.979 19.1738 8.46631C19.1576 7.94548 19.1331 7.49788 19.1006 7.12354C19.0762 6.74919 19.0396 6.43587 18.9907 6.18359C18.95 5.93132 18.9053 5.71973 18.8564 5.54883V5.5H21.6763V5.54883C21.6112 5.75228 21.5583 6.0127 21.5176 6.33008C21.485 6.63932 21.4484 7.04622 21.4077 7.55078C21.7414 7.27409 22.0994 6.9974 22.4819 6.7207C22.8726 6.44401 23.2754 6.19987 23.6904 5.98828C24.1055 5.76855 24.5286 5.59359 24.96 5.46338C25.3913 5.32503 25.8145 5.25586 26.2295 5.25586C26.8643 5.25586 27.4014 5.36572 27.8408 5.58545C28.2884 5.80518 28.6506 6.09408 28.9272 6.45215C29.2121 6.81022 29.4155 7.22119 29.5376 7.68506C29.6678 8.14079 29.7329 8.60465 29.7329 9.07666V13.2271C29.7329 13.9188 29.741 14.5251 29.7573 15.0459C29.7736 15.5586 29.798 16.0021 29.8306 16.3765C29.8631 16.7508 29.8997 17.0641 29.9404 17.3164C29.9811 17.5687 30.0259 17.7803 30.0747 17.9512V18H27.2549V17.9512C27.3037 17.7803 27.3485 17.5687 27.3892 17.3164C27.438 17.0641 27.4746 16.7508 27.499 16.3765C27.5316 16.0021 27.556 15.5586 27.5723 15.0459C27.5967 14.5251 27.6089 13.9188 27.6089 13.2271V9.77246ZM35.9585 1.54492C35.9422 2.45638 35.9259 3.33936 35.9097 4.19385C35.9015 4.56006 35.8934 4.93441 35.8853 5.31689C35.8853 5.69938 35.8812 6.0778 35.873 6.45215C35.873 6.81836 35.869 7.17236 35.8608 7.51416C35.8608 7.84782 35.8608 8.14486 35.8608 8.40527C35.8608 8.95052 35.8649 9.6097 35.873 10.3828C35.8812 11.1559 35.8893 11.9494 35.8975 12.7632C35.9137 13.577 35.9341 14.3582 35.9585 15.1069C35.9829 15.8556 36.0114 16.4782 36.0439 16.9746C36.1579 16.9909 36.3084 17.0112 36.4956 17.0356C36.6909 17.0519 36.8944 17.0682 37.106 17.0845C37.3175 17.0926 37.5251 17.1007 37.7285 17.1089C37.932 17.117 38.1029 17.1211 38.2412 17.1211C38.8109 17.1211 39.3927 17.0845 39.9868 17.0112C40.589 16.9299 41.1668 16.7834 41.7202 16.5718C42.2817 16.3602 42.8066 16.0713 43.2949 15.7051C43.7913 15.3307 44.2227 14.8506 44.5889 14.2646C44.9632 13.6787 45.2562 12.9748 45.4678 12.1528C45.6794 11.3228 45.7852 10.3462 45.7852 9.22314C45.7852 7.97803 45.6346 6.87126 45.3335 5.90283C45.0324 4.92627 44.5889 4.10433 44.0029 3.43701C43.4251 2.76969 42.7049 2.26514 41.8423 1.92334C40.9878 1.5734 40.0031 1.39844 38.8882 1.39844C38.6685 1.39844 38.4202 1.40658 38.1436 1.42285C37.8669 1.43099 37.5902 1.4432 37.3135 1.45947C37.0449 1.46761 36.7886 1.48389 36.5444 1.5083C36.3084 1.52458 36.1131 1.53678 35.9585 1.54492ZM33.2852 0.446289C33.4723 0.454427 33.6473 0.462565 33.8101 0.470703C33.9484 0.478841 34.0908 0.486979 34.2373 0.495117C34.3838 0.495117 34.5018 0.495117 34.5913 0.495117C34.7459 0.495117 35.0023 0.486979 35.3604 0.470703C35.7266 0.454427 36.1416 0.438151 36.6055 0.421875C37.0693 0.405599 37.5495 0.389323 38.0459 0.373047C38.5505 0.356771 39.0225 0.348633 39.4619 0.348633C40.6419 0.348633 41.765 0.495117 42.8311 0.788086C43.8971 1.08105 44.833 1.5612 45.6387 2.22852C46.4443 2.89583 47.0832 3.77067 47.5552 4.85303C48.0272 5.93538 48.2632 7.26595 48.2632 8.84473C48.2632 9.97591 48.137 10.9932 47.8848 11.8965C47.6406 12.7998 47.2948 13.5973 46.8472 14.2891C46.3996 14.9808 45.8625 15.5749 45.2358 16.0713C44.6174 16.5596 43.9297 16.9624 43.1729 17.2798C42.4242 17.5972 41.6226 17.8291 40.7681 17.9756C39.9136 18.1221 39.0306 18.1953 38.1191 18.1953C37.7936 18.1953 37.3989 18.1831 36.9351 18.1587C36.4793 18.1424 36.0195 18.1221 35.5557 18.0977C35.0918 18.0732 34.6523 18.0488 34.2373 18.0244C33.8304 18.0081 33.513 18 33.2852 18V17.9512C33.334 17.7803 33.3787 17.5687 33.4194 17.3164C33.4683 17.0641 33.509 16.7508 33.5415 16.3765C33.5741 16.0021 33.5985 15.5586 33.6147 15.0459C33.631 14.5251 33.6392 13.9188 33.6392 13.2271V5.28027C33.6392 4.58854 33.631 3.98226 33.6147 3.46143C33.5985 2.93245 33.5741 2.48079 33.5415 2.10645C33.509 1.72396 33.4683 1.40251 33.4194 1.14209C33.3787 0.881673 33.334 0.666016 33.2852 0.495117V0.446289ZM56.7349 18.2197C55.8315 18.2197 54.9852 18.0773 54.1958 17.7925C53.4064 17.5076 52.7188 17.0926 52.1328 16.5474C51.5469 15.994 51.083 15.3145 50.7412 14.5088C50.4076 13.695 50.2407 12.7673 50.2407 11.7256C50.2407 10.806 50.3953 9.95557 50.7046 9.17432C51.0138 8.38493 51.4411 7.70133 51.9863 7.12354C52.5316 6.54574 53.1663 6.09408 53.8906 5.76855C54.623 5.44303 55.4124 5.28027 56.2588 5.28027C57.097 5.28027 57.8742 5.42676 58.5903 5.71973C59.3065 6.00456 59.925 6.42367 60.4458 6.97705C60.9748 7.5223 61.3898 8.20182 61.6909 9.01562C62.0002 9.82129 62.167 10.7409 62.1914 11.7744C61.2718 11.7581 60.3522 11.7459 59.4326 11.7378C58.513 11.7297 57.5568 11.7256 56.564 11.7256C55.856 11.7256 55.1642 11.7297 54.4888 11.7378C53.8215 11.7459 53.2192 11.7581 52.6821 11.7744C52.731 12.6208 52.8612 13.3857 53.0728 14.0693C53.2925 14.7529 53.5895 15.3389 53.9639 15.8271C54.3464 16.3073 54.8062 16.6776 55.3433 16.938C55.8885 17.1984 56.5029 17.3286 57.1865 17.3286C57.6585 17.3286 58.1021 17.2757 58.5171 17.1699C58.9403 17.056 59.3228 16.9014 59.6646 16.7061C60.0063 16.5107 60.3115 16.2829 60.5801 16.0225C60.8486 15.7539 61.0765 15.465 61.2637 15.1558L61.4102 15.229L60.5068 17.4019C60.0674 17.6297 59.5425 17.825 58.9321 17.9878C58.3218 18.1424 57.5894 18.2197 56.7349 18.2197ZM55.1113 10.7734C55.9251 10.7734 56.7389 10.7734 57.5527 10.7734C58.3747 10.7653 59.1193 10.749 59.7866 10.7246C59.7134 10.0166 59.575 9.38184 59.3716 8.82031C59.1681 8.25879 58.9077 7.78271 58.5903 7.39209C58.2729 7.00146 57.8986 6.70036 57.4673 6.48877C57.036 6.27718 56.5599 6.17139 56.0391 6.17139C55.5671 6.17139 55.1317 6.27718 54.7329 6.48877C54.3423 6.69222 54.0005 6.98926 53.7075 7.37988C53.4146 7.77051 53.1785 8.25065 52.9995 8.82031C52.8205 9.38184 52.7147 10.0247 52.6821 10.749C53.0483 10.7653 53.4349 10.7734 53.8418 10.7734C54.2487 10.7734 54.6719 10.7734 55.1113 10.7734ZM70.3335 7.95361L70.1626 7.97803C70.1056 7.79085 70.012 7.59147 69.8818 7.37988C69.7598 7.16829 69.597 6.97298 69.3936 6.79395C69.1982 6.61491 68.9582 6.46842 68.6733 6.35449C68.3966 6.23242 68.0752 6.17139 67.709 6.17139C67.4567 6.17139 67.2166 6.20801 66.9888 6.28125C66.769 6.35449 66.5737 6.46436 66.4028 6.61084C66.2401 6.74919 66.1099 6.92415 66.0122 7.13574C65.9146 7.34733 65.8657 7.59554 65.8657 7.88037C65.8657 8.27913 65.9878 8.66162 66.2319 9.02783C66.4842 9.3859 66.7975 9.74398 67.1719 10.1021C67.5462 10.452 67.9491 10.806 68.3804 11.1641C68.8198 11.5221 69.2267 11.8965 69.6011 12.2871C69.9754 12.6777 70.2847 13.0968 70.5288 13.5444C70.7811 13.9839 70.9072 14.46 70.9072 14.9727C70.9072 15.3877 70.834 15.7946 70.6875 16.1934C70.541 16.584 70.3132 16.9339 70.0039 17.2432C69.7028 17.5524 69.3122 17.8047 68.832 18C68.36 18.1872 67.7944 18.2808 67.1353 18.2808C66.7446 18.2808 66.3784 18.2441 66.0366 18.1709C65.703 18.0977 65.3937 18.0081 65.1089 17.9023C64.8322 17.7884 64.5799 17.6663 64.3521 17.5361C64.1323 17.3978 63.937 17.2676 63.7661 17.1455L63.8882 14.8262H64.0835C64.1649 15.2087 64.2869 15.5586 64.4497 15.876C64.6125 16.1934 64.8118 16.466 65.0479 16.6938C65.292 16.9136 65.5687 17.0885 65.8779 17.2188C66.1872 17.3408 66.5249 17.4019 66.8911 17.4019C67.4933 17.4019 67.9694 17.235 68.3193 16.9014C68.6774 16.5677 68.8564 16.1323 68.8564 15.5952C68.8564 15.1639 68.7344 14.7692 68.4902 14.4111C68.2542 14.0449 67.9531 13.695 67.5869 13.3613C67.2207 13.0277 66.826 12.694 66.4028 12.3604C65.9878 12.0267 65.5972 11.6727 65.231 11.2983C64.8647 10.9159 64.5596 10.5008 64.3154 10.0532C64.0794 9.59749 63.9614 9.08073 63.9614 8.50293C63.9614 8.03092 64.0469 7.59961 64.2178 7.20898C64.3968 6.81022 64.641 6.47249 64.9502 6.1958C65.2676 5.91097 65.6419 5.69124 66.0732 5.53662C66.5046 5.382 66.9766 5.30469 67.4893 5.30469C68.1647 5.30469 68.7262 5.37793 69.1738 5.52441C69.6296 5.66276 69.9754 5.79704 70.2114 5.92725L70.3335 7.95361ZM73.7515 10.2729C73.7515 9.58122 73.7393 8.979 73.7148 8.46631C73.6986 7.94548 73.6742 7.49788 73.6416 7.12354C73.6172 6.74919 73.5806 6.43587 73.5317 6.18359C73.491 5.93132 73.4463 5.71973 73.3975 5.54883V5.5H76.2173V5.54883C76.1685 5.71973 76.1237 5.93132 76.083 6.18359C76.0423 6.43587 76.0057 6.74919 75.9731 7.12354C75.9406 7.49788 75.9162 7.94548 75.8999 8.46631C75.8836 8.979 75.8755 9.58122 75.8755 10.2729V13.2271C75.8755 13.9188 75.8836 14.5251 75.8999 15.0459C75.9162 15.5586 75.9406 16.0021 75.9731 16.3765C76.0057 16.7508 76.0423 17.0641 76.083 17.3164C76.1237 17.5687 76.1685 17.7803 76.2173 17.9512V18H73.3975V17.9512C73.4463 17.7803 73.491 17.5687 73.5317 17.3164C73.5806 17.0641 73.6172 16.7508 73.6416 16.3765C73.6742 16.0021 73.6986 15.5586 73.7148 15.0459C73.7393 14.5251 73.7515 13.9188 73.7515 13.2271V10.2729ZM73.4951 1.80127C73.4951 1.62223 73.5277 1.4554 73.5928 1.30078C73.666 1.13802 73.7596 0.999674 73.8735 0.885742C73.9875 0.763672 74.1217 0.670085 74.2764 0.60498C74.4391 0.531738 74.6141 0.495117 74.8013 0.495117C74.9884 0.495117 75.1593 0.531738 75.314 0.60498C75.4767 0.670085 75.6151 0.763672 75.729 0.885742C75.8511 0.999674 75.9447 1.13802 76.0098 1.30078C76.083 1.4554 76.1196 1.62223 76.1196 1.80127C76.1196 2.17562 75.9935 2.48893 75.7412 2.74121C75.4889 2.99349 75.1756 3.11963 74.8013 3.11963C74.6141 3.11963 74.4391 3.08708 74.2764 3.02197C74.1217 2.94873 73.9875 2.85514 73.8735 2.74121C73.7596 2.61914 73.666 2.48079 73.5928 2.32617C73.5277 2.16341 73.4951 1.98844 73.4951 1.80127ZM84.4326 23.5786C85.0918 23.5786 85.6493 23.5054 86.105 23.3589C86.5607 23.2205 86.9351 23.0252 87.228 22.7729C87.5291 22.5207 87.757 22.2155 87.9116 21.8574C88.0744 21.5075 88.1924 21.1209 88.2656 20.6978C88.347 20.2746 88.3918 19.8229 88.3999 19.3428C88.4162 18.8626 88.4243 18.3662 88.4243 17.8535V17.4507C88.0256 17.6623 87.5454 17.8454 86.9839 18C86.4224 18.1465 85.7876 18.2197 85.0796 18.2197C84.1112 18.2197 83.2323 18.0692 82.4429 17.7681C81.6535 17.467 80.978 17.0356 80.4165 16.4741C79.8631 15.9126 79.4359 15.2331 79.1348 14.4355C78.8337 13.6299 78.6831 12.7266 78.6831 11.7256C78.6831 10.806 78.8296 9.9515 79.1226 9.16211C79.4237 8.37272 79.8428 7.68913 80.3799 7.11133C80.9251 6.53353 81.5721 6.08187 82.3208 5.75635C83.0776 5.42269 83.9118 5.25586 84.8232 5.25586C85.2139 5.25586 85.5719 5.28841 85.8975 5.35352C86.223 5.41862 86.5241 5.50814 86.8008 5.62207C87.0856 5.72786 87.3501 5.854 87.5942 6.00049C87.8465 6.13883 88.0907 6.28939 88.3267 6.45215L88.2046 5.54883V5.5H90.9023V5.54883C90.8535 5.71973 90.8047 5.93132 90.7559 6.18359C90.7152 6.43587 90.6785 6.74919 90.646 7.12354C90.6216 7.49788 90.5972 7.94548 90.5728 8.46631C90.5565 8.979 90.5483 9.58122 90.5483 10.2729V18.5737C90.5483 19.3224 90.4466 20.0508 90.2432 20.7588C90.0479 21.4749 89.7101 22.1097 89.23 22.6631C88.758 23.2165 88.1313 23.66 87.3501 23.9937C86.5688 24.3273 85.5964 24.4941 84.4326 24.4941C84.0257 24.4941 83.6147 24.4535 83.1997 24.3721C82.7847 24.2988 82.39 24.2052 82.0156 24.0913C81.6413 23.9855 81.3035 23.8675 81.0024 23.7373C80.7013 23.6071 80.4613 23.4932 80.2822 23.3955L79.9038 21.0518L80.0991 21.0029C80.2944 21.4261 80.5589 21.7964 80.8926 22.1138C81.2344 22.4393 81.6047 22.7078 82.0034 22.9194C82.4022 23.1392 82.8132 23.3019 83.2363 23.4077C83.6676 23.5216 84.0664 23.5786 84.4326 23.5786ZM85.6289 17.3286C86.2148 17.3286 86.7438 17.231 87.2158 17.0356C87.696 16.8403 88.0988 16.6125 88.4243 16.3521V10.2729C88.4243 9.81722 88.4202 9.40625 88.4121 9.04004C88.404 8.66569 88.3999 8.32796 88.3999 8.02686C88.2046 7.72575 87.9767 7.46126 87.7163 7.2334C87.464 6.9974 87.1914 6.80208 86.8984 6.64746C86.6136 6.4847 86.3206 6.36263 86.0195 6.28125C85.7184 6.19173 85.4214 6.14697 85.1284 6.14697C84.5099 6.14697 83.9525 6.2609 83.4561 6.48877C82.9596 6.71663 82.5365 7.04622 82.1865 7.47754C81.8447 7.90072 81.5802 8.42155 81.3931 9.04004C81.214 9.65039 81.1245 10.3462 81.1245 11.1274C81.1245 12.0063 81.2222 12.8242 81.4175 13.5811C81.6128 14.3379 81.8976 14.9971 82.272 15.5586C82.6545 16.112 83.1265 16.5474 83.688 16.8647C84.2495 17.174 84.8965 17.3286 85.6289 17.3286ZM102.707 9.77246C102.707 8.69824 102.491 7.90885 102.06 7.4043C101.628 6.89974 101.05 6.64746 100.326 6.64746C100.066 6.64746 99.7728 6.70443 99.4473 6.81836C99.1217 6.92415 98.7881 7.07064 98.4463 7.25781C98.1045 7.43685 97.7627 7.64844 97.4209 7.89258C97.0791 8.13672 96.7576 8.39714 96.4565 8.67383L96.4321 10.2729V13.2271C96.4321 13.9188 96.4403 14.5251 96.4565 15.0459C96.4728 15.5586 96.4972 16.0021 96.5298 16.3765C96.5623 16.7508 96.599 17.0641 96.6396 17.3164C96.6803 17.5687 96.7251 17.7803 96.7739 17.9512V18H93.9541V17.9512C94.0029 17.7803 94.0477 17.5687 94.0884 17.3164C94.1372 17.0641 94.1738 16.7508 94.1982 16.3765C94.2308 16.0021 94.2552 15.5586 94.2715 15.0459C94.2959 14.5251 94.3081 13.9188 94.3081 13.2271V10.2729C94.3081 9.58122 94.2959 8.979 94.2715 8.46631C94.2552 7.94548 94.2308 7.49788 94.1982 7.12354C94.1738 6.74919 94.1372 6.43587 94.0884 6.18359C94.0477 5.93132 94.0029 5.71973 93.9541 5.54883V5.5H96.7739V5.54883C96.7088 5.75228 96.6559 6.0127 96.6152 6.33008C96.5827 6.63932 96.5461 7.04622 96.5054 7.55078C96.839 7.27409 97.1971 6.9974 97.5796 6.7207C97.9702 6.44401 98.373 6.19987 98.7881 5.98828C99.2031 5.76855 99.6263 5.59359 100.058 5.46338C100.489 5.32503 100.912 5.25586 101.327 5.25586C101.962 5.25586 102.499 5.36572 102.938 5.58545C103.386 5.80518 103.748 6.09408 104.025 6.45215C104.31 6.81022 104.513 7.22119 104.635 7.68506C104.765 8.14079 104.831 8.60465 104.831 9.07666V13.2271C104.831 13.9188 104.839 14.5251 104.855 15.0459C104.871 15.5586 104.896 16.0021 104.928 16.3765C104.961 16.7508 104.997 17.0641 105.038 17.3164C105.079 17.5687 105.124 17.7803 105.172 17.9512V18H102.353V17.9512C102.401 17.7803 102.446 17.5687 102.487 17.3164C102.536 17.0641 102.572 16.7508 102.597 16.3765C102.629 16.0021 102.654 15.5586 102.67 15.0459C102.694 14.5251 102.707 13.9188 102.707 13.2271V9.77246ZM18.6719 29.1016C18.6641 29.5391 18.6562 29.9629 18.6484 30.373C18.6445 30.5488 18.6406 30.7285 18.6367 30.9121C18.6367 31.0957 18.6348 31.2773 18.6309 31.457C18.6309 31.6328 18.6289 31.8027 18.625 31.9668C18.625 32.127 18.625 32.2695 18.625 32.3945C18.625 32.6562 18.627 32.9727 18.6309 33.3438C18.6348 33.7148 18.6387 34.0957 18.6426 34.4863C18.6504 34.877 18.6602 35.252 18.6719 35.6113C18.6836 35.9707 18.6973 36.2695 18.7129 36.5078C18.7676 36.5156 18.8398 36.5254 18.9297 36.5371C19.0234 36.5449 19.1211 36.5527 19.2227 36.5605C19.3242 36.5645 19.4238 36.5684 19.5215 36.5723C19.6191 36.5762 19.7012 36.5781 19.7676 36.5781C20.041 36.5781 20.3203 36.5605 20.6055 36.5254C20.8945 36.4863 21.1719 36.416 21.4375 36.3145C21.707 36.2129 21.959 36.0742 22.1934 35.8984C22.4316 35.7188 22.6387 35.4883 22.8145 35.207C22.9941 34.9258 23.1348 34.5879 23.2363 34.1934C23.3379 33.7949 23.3887 33.3262 23.3887 32.7871C23.3887 32.1895 23.3164 31.6582 23.1719 31.1934C23.0273 30.7246 22.8145 30.3301 22.5332 30.0098C22.2559 29.6895 21.9102 29.4473 21.4961 29.2832C21.0859 29.1152 20.6133 29.0312 20.0781 29.0312C19.9727 29.0312 19.8535 29.0352 19.7207 29.043C19.5879 29.0469 19.4551 29.0527 19.3223 29.0605C19.1934 29.0645 19.0703 29.0723 18.9531 29.084C18.8398 29.0918 18.7461 29.0977 18.6719 29.1016ZM17.3887 28.5742C17.4785 28.5781 17.5625 28.582 17.6406 28.5859C17.707 28.5898 17.7754 28.5938 17.8457 28.5977C17.916 28.5977 17.9727 28.5977 18.0156 28.5977C18.0898 28.5977 18.2129 28.5938 18.3848 28.5859C18.5605 28.5781 18.7598 28.5703 18.9824 28.5625C19.2051 28.5547 19.4355 28.5469 19.6738 28.5391C19.916 28.5312 20.1426 28.5273 20.3535 28.5273C20.9199 28.5273 21.459 28.5977 21.9707 28.7383C22.4824 28.8789 22.9316 29.1094 23.3184 29.4297C23.7051 29.75 24.0117 30.1699 24.2383 30.6895C24.4648 31.209 24.5781 31.8477 24.5781 32.6055C24.5781 33.1484 24.5176 33.6367 24.3965 34.0703C24.2793 34.5039 24.1133 34.8867 23.8984 35.2188C23.6836 35.5508 23.4258 35.8359 23.125 36.0742C22.8281 36.3086 22.498 36.502 22.1348 36.6543C21.7754 36.8066 21.3906 36.918 20.9805 36.9883C20.5703 37.0586 20.1465 37.0938 19.709 37.0938C19.5527 37.0938 19.3633 37.0879 19.1406 37.0762C18.9219 37.0684 18.7012 37.0586 18.4785 37.0469C18.2559 37.0352 18.0449 37.0234 17.8457 37.0117C17.6504 37.0039 17.498 37 17.3887 37V36.9766C17.4121 36.8945 17.4336 36.793 17.4531 36.6719C17.4766 36.5508 17.4961 36.4004 17.5117 36.2207C17.5273 36.041 17.5391 35.8281 17.5469 35.582C17.5547 35.332 17.5586 35.041 17.5586 34.709V30.8945C17.5586 30.5625 17.5547 30.2715 17.5469 30.0215C17.5391 29.7676 17.5273 29.5508 17.5117 29.3711C17.4961 29.1875 17.4766 29.0332 17.4531 28.9082C17.4336 28.7832 17.4121 28.6797 17.3887 28.5977V28.5742ZM28.6445 37.1055C28.2109 37.1055 27.8047 37.0371 27.4258 36.9004C27.0469 36.7637 26.7168 36.5645 26.4355 36.3027C26.1543 36.0371 25.9316 35.7109 25.7676 35.3242C25.6074 34.9336 25.5273 34.4883 25.5273 33.9883C25.5273 33.5469 25.6016 33.1387 25.75 32.7637C25.8984 32.3848 26.1035 32.0566 26.3652 31.7793C26.627 31.502 26.9316 31.2852 27.2793 31.1289C27.6309 30.9727 28.0098 30.8945 28.416 30.8945C28.8184 30.8945 29.1914 30.9648 29.5352 31.1055C29.8789 31.2422 30.1758 31.4434 30.4258 31.709C30.6797 31.9707 30.8789 32.2969 31.0234 32.6875C31.1719 33.0742 31.252 33.5156 31.2637 34.0117C30.8223 34.0039 30.3809 33.998 29.9395 33.9941C29.498 33.9902 29.0391 33.9883 28.5625 33.9883C28.2227 33.9883 27.8906 33.9902 27.5664 33.9941C27.2461 33.998 26.957 34.0039 26.6992 34.0117C26.7227 34.418 26.7852 34.7852 26.8867 35.1133C26.9922 35.4414 27.1348 35.7227 27.3145 35.957C27.498 36.1875 27.7188 36.3652 27.9766 36.4902C28.2383 36.6152 28.5332 36.6777 28.8613 36.6777C29.0879 36.6777 29.3008 36.6523 29.5 36.6016C29.7031 36.5469 29.8867 36.4727 30.0508 36.3789C30.2148 36.2852 30.3613 36.1758 30.4902 36.0508C30.6191 35.9219 30.7285 35.7832 30.8184 35.6348L30.8887 35.6699L30.4551 36.7129C30.2441 36.8223 29.9922 36.916 29.6992 36.9941C29.4062 37.0684 29.0547 37.1055 28.6445 37.1055ZM27.8652 33.5312C28.2559 33.5312 28.6465 33.5312 29.0371 33.5312C29.4316 33.5273 29.7891 33.5195 30.1094 33.5078C30.0742 33.168 30.0078 32.8633 29.9102 32.5938C29.8125 32.3242 29.6875 32.0957 29.5352 31.9082C29.3828 31.7207 29.2031 31.5762 28.9961 31.4746C28.7891 31.373 28.5605 31.3223 28.3105 31.3223C28.084 31.3223 27.875 31.373 27.6836 31.4746C27.4961 31.5723 27.332 31.7148 27.1914 31.9023C27.0508 32.0898 26.9375 32.3203 26.8516 32.5938C26.7656 32.8633 26.7148 33.1719 26.6992 33.5195C26.875 33.5273 27.0605 33.5312 27.2559 33.5312C27.4512 33.5312 27.6543 33.5312 27.8652 33.5312ZM35.1719 32.1777L35.0898 32.1895C35.0625 32.0996 35.0176 32.0039 34.9551 31.9023C34.8965 31.8008 34.8184 31.707 34.7207 31.6211C34.627 31.5352 34.5117 31.4648 34.375 31.4102C34.2422 31.3516 34.0879 31.3223 33.9121 31.3223C33.791 31.3223 33.6758 31.3398 33.5664 31.375C33.4609 31.4102 33.3672 31.4629 33.2852 31.5332C33.207 31.5996 33.1445 31.6836 33.0977 31.7852C33.0508 31.8867 33.0273 32.0059 33.0273 32.1426C33.0273 32.334 33.0859 32.5176 33.2031 32.6934C33.3242 32.8652 33.4746 33.0371 33.6543 33.209C33.834 33.377 34.0273 33.5469 34.2344 33.7188C34.4453 33.8906 34.6406 34.0703 34.8203 34.2578C35 34.4453 35.1484 34.6465 35.2656 34.8613C35.3867 35.0723 35.4473 35.3008 35.4473 35.5469C35.4473 35.7461 35.4121 35.9414 35.3418 36.1328C35.2715 36.3203 35.1621 36.4883 35.0137 36.6367C34.8691 36.7852 34.6816 36.9062 34.4512 37C34.2246 37.0898 33.9531 37.1348 33.6367 37.1348C33.4492 37.1348 33.2734 37.1172 33.1094 37.082C32.9492 37.0469 32.8008 37.0039 32.6641 36.9531C32.5312 36.8984 32.4102 36.8398 32.3008 36.7773C32.1953 36.7109 32.1016 36.6484 32.0195 36.5898L32.0781 35.4766H32.1719C32.2109 35.6602 32.2695 35.8281 32.3477 35.9805C32.4258 36.1328 32.5215 36.2637 32.6348 36.373C32.752 36.4785 32.8848 36.5625 33.0332 36.625C33.1816 36.6836 33.3438 36.7129 33.5195 36.7129C33.8086 36.7129 34.0371 36.6328 34.2051 36.4727C34.377 36.3125 34.4629 36.1035 34.4629 35.8457C34.4629 35.6387 34.4043 35.4492 34.2871 35.2773C34.1738 35.1016 34.0293 34.9336 33.8535 34.7734C33.6777 34.6133 33.4883 34.4531 33.2852 34.293C33.0859 34.1328 32.8984 33.9629 32.7227 33.7832C32.5469 33.5996 32.4004 33.4004 32.2832 33.1855C32.1699 32.9668 32.1133 32.7188 32.1133 32.4414C32.1133 32.2148 32.1543 32.0078 32.2363 31.8203C32.3223 31.6289 32.4395 31.4668 32.5879 31.334C32.7402 31.1973 32.9199 31.0918 33.127 31.0176C33.334 30.9434 33.5605 30.9062 33.8066 30.9062C34.1309 30.9062 34.4004 30.9414 34.6152 31.0117C34.834 31.0781 35 31.1426 35.1133 31.2051L35.1719 32.1777ZM36.8125 33.291C36.8125 32.959 36.8066 32.6699 36.7949 32.4238C36.7871 32.1738 36.7754 31.959 36.7598 31.7793C36.748 31.5996 36.7305 31.4492 36.707 31.3281C36.6875 31.207 36.666 31.1055 36.6426 31.0234V31H37.9961V31.0234C37.9727 31.1055 37.9512 31.207 37.9316 31.3281C37.9121 31.4492 37.8945 31.5996 37.8789 31.7793C37.8633 31.959 37.8516 32.1738 37.8438 32.4238C37.8359 32.6699 37.832 32.959 37.832 33.291V34.709C37.832 35.041 37.8359 35.332 37.8438 35.582C37.8516 35.8281 37.8633 36.041 37.8789 36.2207C37.8945 36.4004 37.9121 36.5508 37.9316 36.6719C37.9512 36.793 37.9727 36.8945 37.9961 36.9766V37H36.6426V36.9766C36.666 36.8945 36.6875 36.793 36.707 36.6719C36.7305 36.5508 36.748 36.4004 36.7598 36.2207C36.7754 36.041 36.7871 35.8281 36.7949 35.582C36.8066 35.332 36.8125 35.041 36.8125 34.709V33.291ZM36.6895 29.2246C36.6895 29.1387 36.7051 29.0586 36.7363 28.9844C36.7715 28.9062 36.8164 28.8398 36.8711 28.7852C36.9258 28.7266 36.9902 28.6816 37.0645 28.6504C37.1426 28.6152 37.2266 28.5977 37.3164 28.5977C37.4062 28.5977 37.4883 28.6152 37.5625 28.6504C37.6406 28.6816 37.707 28.7266 37.7617 28.7852C37.8203 28.8398 37.8652 28.9062 37.8965 28.9844C37.9316 29.0586 37.9492 29.1387 37.9492 29.2246C37.9492 29.4043 37.8887 29.5547 37.7676 29.6758C37.6465 29.7969 37.4961 29.8574 37.3164 29.8574C37.2266 29.8574 37.1426 29.8418 37.0645 29.8105C36.9902 29.7754 36.9258 29.7305 36.8711 29.6758C36.8164 29.6172 36.7715 29.5508 36.7363 29.4766C36.7051 29.3984 36.6895 29.3145 36.6895 29.2246ZM41.9395 39.6777C42.2559 39.6777 42.5234 39.6426 42.7422 39.5723C42.9609 39.5059 43.1406 39.4121 43.2812 39.291C43.4258 39.1699 43.5352 39.0234 43.6094 38.8516C43.6875 38.6836 43.7441 38.498 43.7793 38.2949C43.8184 38.0918 43.8398 37.875 43.8438 37.6445C43.8516 37.4141 43.8555 37.1758 43.8555 36.9297V36.7363C43.6641 36.8379 43.4336 36.9258 43.1641 37C42.8945 37.0703 42.5898 37.1055 42.25 37.1055C41.7852 37.1055 41.3633 37.0332 40.9844 36.8887C40.6055 36.7441 40.2812 36.5371 40.0117 36.2676C39.7461 35.998 39.541 35.6719 39.3965 35.2891C39.252 34.9023 39.1797 34.4688 39.1797 33.9883C39.1797 33.5469 39.25 33.1367 39.3906 32.7578C39.5352 32.3789 39.7363 32.0508 39.9941 31.7734C40.2559 31.4961 40.5664 31.2793 40.9258 31.123C41.2891 30.9629 41.6895 30.8828 42.127 30.8828C42.3145 30.8828 42.4863 30.8984 42.6426 30.9297C42.7988 30.9609 42.9434 31.0039 43.0762 31.0586C43.2129 31.1094 43.3398 31.1699 43.457 31.2402C43.5781 31.3066 43.6953 31.3789 43.8086 31.457L43.75 31.0234V31H45.0449V31.0234C45.0215 31.1055 44.998 31.207 44.9746 31.3281C44.9551 31.4492 44.9375 31.5996 44.9219 31.7793C44.9102 31.959 44.8984 32.1738 44.8867 32.4238C44.8789 32.6699 44.875 32.959 44.875 33.291V37.2754C44.875 37.6348 44.8262 37.9844 44.7285 38.3242C44.6348 38.668 44.4727 38.9727 44.2422 39.2383C44.0156 39.5039 43.7148 39.7168 43.3398 39.877C42.9648 40.0371 42.498 40.1172 41.9395 40.1172C41.7441 40.1172 41.5469 40.0977 41.3477 40.0586C41.1484 40.0234 40.959 39.9785 40.7793 39.9238C40.5996 39.873 40.4375 39.8164 40.293 39.7539C40.1484 39.6914 40.0332 39.6367 39.9473 39.5898L39.7656 38.4648L39.8594 38.4414C39.9531 38.6445 40.0801 38.8223 40.2402 38.9746C40.4043 39.1309 40.582 39.2598 40.7734 39.3613C40.9648 39.4668 41.1621 39.5449 41.3652 39.5957C41.5723 39.6504 41.7637 39.6777 41.9395 39.6777ZM42.5137 36.6777C42.7949 36.6777 43.0488 36.6309 43.2754 36.5371C43.5059 36.4434 43.6992 36.334 43.8555 36.209V33.291C43.8555 33.0723 43.8535 32.875 43.8496 32.6992C43.8457 32.5195 43.8438 32.3574 43.8438 32.2129C43.75 32.0684 43.6406 31.9414 43.5156 31.832C43.3945 31.7188 43.2637 31.625 43.123 31.5508C42.9863 31.4727 42.8457 31.4141 42.7012 31.375C42.5566 31.332 42.4141 31.3105 42.2734 31.3105C41.9766 31.3105 41.709 31.3652 41.4707 31.4746C41.2324 31.584 41.0293 31.7422 40.8613 31.9492C40.6973 32.1523 40.5703 32.4023 40.4805 32.6992C40.3945 32.9922 40.3516 33.3262 40.3516 33.7012C40.3516 34.123 40.3984 34.5156 40.4922 34.8789C40.5859 35.2422 40.7227 35.5586 40.9023 35.8281C41.0859 36.0938 41.3125 36.3027 41.582 36.4551C41.8516 36.6035 42.1621 36.6777 42.5137 36.6777ZM50.7109 33.0508C50.7109 32.5352 50.6074 32.1562 50.4004 31.9141C50.1934 31.6719 49.916 31.5508 49.5684 31.5508C49.4434 31.5508 49.3027 31.5781 49.1465 31.6328C48.9902 31.6836 48.8301 31.7539 48.666 31.8438C48.502 31.9297 48.3379 32.0312 48.1738 32.1484C48.0098 32.2656 47.8555 32.3906 47.7109 32.5234L47.6992 33.291V34.709C47.6992 35.041 47.7031 35.332 47.7109 35.582C47.7188 35.8281 47.7305 36.041 47.7461 36.2207C47.7617 36.4004 47.7793 36.5508 47.7988 36.6719C47.8184 36.793 47.8398 36.8945 47.8633 36.9766V37H46.5098V36.9766C46.5332 36.8945 46.5547 36.793 46.5742 36.6719C46.5977 36.5508 46.6152 36.4004 46.627 36.2207C46.6426 36.041 46.6543 35.8281 46.6621 35.582C46.6738 35.332 46.6797 35.041 46.6797 34.709V33.291C46.6797 32.959 46.6738 32.6699 46.6621 32.4238C46.6543 32.1738 46.6426 31.959 46.627 31.7793C46.6152 31.5996 46.5977 31.4492 46.5742 31.3281C46.5547 31.207 46.5332 31.1055 46.5098 31.0234V31H47.8633V31.0234C47.832 31.1211 47.8066 31.2461 47.7871 31.3984C47.7715 31.5469 47.7539 31.7422 47.7344 31.9844C47.8945 31.8516 48.0664 31.7188 48.25 31.5859C48.4375 31.4531 48.6309 31.3359 48.8301 31.2344C49.0293 31.1289 49.2324 31.0449 49.4395 30.9824C49.6465 30.916 49.8496 30.8828 50.0488 30.8828C50.3535 30.8828 50.6113 30.9355 50.8223 31.041C51.0371 31.1465 51.2109 31.2852 51.3438 31.457C51.4805 31.6289 51.5781 31.8262 51.6367 32.0488C51.6992 32.2676 51.7305 32.4902 51.7305 32.7168V34.709C51.7305 35.041 51.7344 35.332 51.7422 35.582C51.75 35.8281 51.7617 36.041 51.7773 36.2207C51.793 36.4004 51.8105 36.5508 51.8301 36.6719C51.8496 36.793 51.8711 36.8945 51.8945 36.9766V37H50.541V36.9766C50.5645 36.8945 50.5859 36.793 50.6055 36.6719C50.6289 36.5508 50.6465 36.4004 50.6582 36.2207C50.6738 36.041 50.6855 35.8281 50.6934 35.582C50.7051 35.332 50.7109 35.041 50.7109 34.709V33.0508ZM60.5371 29.9336H60.4082C60.377 29.8438 60.3262 29.7422 60.2559 29.6289C60.1895 29.5156 60.0996 29.4102 59.9863 29.3125C59.877 29.2109 59.7422 29.127 59.582 29.0605C59.4258 28.9941 59.2402 28.9609 59.0254 28.9609C58.834 28.9609 58.6641 28.9902 58.5156 29.0488C58.3672 29.1074 58.2422 29.1895 58.1406 29.2949C58.043 29.4004 57.9688 29.5254 57.918 29.6699C57.8672 29.8145 57.8418 29.9746 57.8418 30.1504C57.8418 30.4316 57.9199 30.7012 58.0762 30.959C58.2363 31.2129 58.4355 31.4648 58.6738 31.7148C58.9121 31.9648 59.1699 32.2148 59.4473 32.4648C59.7246 32.7148 59.9824 32.9746 60.2207 33.2441C60.459 33.5137 60.6562 33.7969 60.8125 34.0938C60.9727 34.3867 61.0527 34.7031 61.0527 35.043C61.0527 35.2969 61.0078 35.5527 60.918 35.8105C60.832 36.0645 60.6973 36.293 60.5137 36.4961C60.3301 36.6992 60.0938 36.8652 59.8047 36.9941C59.5156 37.1191 59.1719 37.1816 58.7734 37.1816C58.5508 37.1816 58.3379 37.1602 58.1348 37.1172C57.9355 37.0781 57.75 37.0293 57.5781 36.9707C57.4102 36.9082 57.2578 36.8418 57.1211 36.7715C56.9883 36.7012 56.8789 36.6367 56.793 36.5781L56.9277 35.2832H57.0742C57.1172 35.4668 57.1875 35.6426 57.2852 35.8105C57.3828 35.9746 57.502 36.1211 57.6426 36.25C57.7871 36.375 57.9512 36.4766 58.1348 36.5547C58.3184 36.6289 58.5195 36.666 58.7383 36.666C58.9375 36.666 59.1152 36.6367 59.2715 36.5781C59.4316 36.5156 59.5684 36.4316 59.6816 36.3262C59.7949 36.2168 59.8809 36.0879 59.9395 35.9395C60.002 35.791 60.0332 35.6289 60.0332 35.4531C60.0332 35.207 59.9883 34.9805 59.8984 34.7734C59.8086 34.5625 59.6895 34.3633 59.541 34.1758C59.3965 33.9883 59.2305 33.8066 59.043 33.6309C58.8594 33.4551 58.6699 33.2793 58.4746 33.1035C58.2793 32.9238 58.0879 32.7402 57.9004 32.5527C57.7168 32.3652 57.5508 32.166 57.4023 31.9551C57.2578 31.7402 57.1406 31.5117 57.0508 31.2695C56.9609 31.0234 56.916 30.7539 56.916 30.4609C56.916 30.1523 56.9746 29.875 57.0918 29.6289C57.2129 29.3789 57.3711 29.166 57.5664 28.9902C57.7656 28.8145 57.9902 28.6797 58.2402 28.5859C58.4902 28.4922 58.748 28.4453 59.0137 28.4453C59.209 28.4453 59.3887 28.4609 59.5527 28.4922C59.7168 28.5234 59.8633 28.5605 59.9922 28.6035C60.125 28.6465 60.2402 28.6895 60.3379 28.7324C60.4355 28.7754 60.5156 28.8105 60.5781 28.8379L60.5371 29.9336ZM64.6797 36.6543C64.7969 36.6543 64.9121 36.6328 65.0254 36.5898C65.1426 36.5469 65.2539 36.4883 65.3594 36.4141C65.4688 36.3398 65.5723 36.2559 65.6699 36.1621C65.7715 36.0645 65.8652 35.9629 65.9512 35.8574L66.0098 35.8867L65.6289 36.8301C65.582 36.8535 65.5234 36.8828 65.4531 36.918C65.3867 36.9492 65.3047 36.9785 65.207 37.0059C65.1133 37.0371 65.002 37.0625 64.873 37.082C64.7441 37.1055 64.5918 37.1172 64.416 37.1172C63.8926 37.1172 63.4844 36.9766 63.1914 36.6953C62.9023 36.4102 62.7578 35.9668 62.7578 35.3652V31.457L61.7734 31.4922V30.9766C61.8945 30.9844 62.0391 30.9902 62.207 30.9941C62.375 30.998 62.5586 31 62.7578 31C62.7539 30.7227 62.7461 30.4785 62.7344 30.2676C62.7266 30.0527 62.7148 29.8672 62.6992 29.7109C62.6875 29.5508 62.6719 29.416 62.6523 29.3066C62.6328 29.1973 62.6133 29.1055 62.5938 29.0312V29.0078H63.9473V29.0312C63.9238 29.1055 63.9023 29.1973 63.8828 29.3066C63.8633 29.416 63.8457 29.5488 63.8301 29.7051C63.8184 29.8613 63.8066 30.0469 63.7949 30.2617C63.7871 30.4727 63.7812 30.7188 63.7773 31C64.0234 30.9961 64.2637 30.9922 64.498 30.9883C64.7363 30.9805 64.9512 30.9727 65.1426 30.9648C65.3379 30.9531 65.502 30.9434 65.6348 30.9355C65.7715 30.9238 65.8613 30.9141 65.9043 30.9062L65.7988 31.5039C65.5996 31.5 65.3906 31.4941 65.1719 31.4863C64.9844 31.4785 64.7695 31.4727 64.5273 31.4688C64.2852 31.4648 64.0352 31.4609 63.7773 31.457V35.4883C63.7773 35.7305 63.8027 35.9277 63.8535 36.0801C63.9082 36.2285 63.9766 36.3457 64.0586 36.4316C64.1445 36.5176 64.2402 36.5762 64.3457 36.6074C64.4551 36.6387 64.5664 36.6543 64.6797 36.6543ZM68.1484 34.9492C68.1484 35.4648 68.25 35.8438 68.4531 36.0859C68.6602 36.3281 68.9375 36.4492 69.2852 36.4492C69.4102 36.4492 69.5508 36.4238 69.707 36.373C69.8633 36.3184 70.0234 36.248 70.1875 36.1621C70.3555 36.0723 70.5215 35.9688 70.6855 35.8516C70.8535 35.7344 71.0078 35.6094 71.1484 35.4766C71.1562 35.3633 71.1602 35.2441 71.1602 35.1191C71.1602 34.9902 71.1602 34.8535 71.1602 34.709V33.291C71.1602 32.959 71.1543 32.6699 71.1426 32.4238C71.1348 32.1738 71.123 31.959 71.1074 31.7793C71.0957 31.5996 71.0781 31.4492 71.0547 31.3281C71.0352 31.207 71.0137 31.1055 70.9902 31.0234V31H72.3438V31.0234C72.3203 31.1055 72.2988 31.207 72.2793 31.3281C72.2598 31.4492 72.2422 31.5996 72.2266 31.7793C72.2109 31.959 72.1992 32.1738 72.1914 32.4238C72.1836 32.6699 72.1797 32.959 72.1797 33.291V34.709C72.1797 35.041 72.1836 35.332 72.1914 35.582C72.1992 35.8281 72.2109 36.041 72.2266 36.2207C72.2422 36.4004 72.2598 36.5508 72.2793 36.6719C72.2988 36.793 72.3203 36.8945 72.3438 36.9766V37H70.9902V36.9766C71.0137 36.8789 71.0371 36.7539 71.0605 36.6016C71.0879 36.4492 71.1074 36.25 71.1191 36.0039C70.959 36.1406 70.7852 36.2754 70.5977 36.4082C70.4141 36.541 70.2207 36.6602 70.0176 36.7656C69.8184 36.8711 69.6152 36.9551 69.4082 37.0176C69.2051 37.084 69.0039 37.1172 68.8047 37.1172C68.5 37.1172 68.2402 37.0645 68.0254 36.959C67.8145 36.8535 67.6406 36.7148 67.5039 36.543C67.3711 36.3711 67.2734 36.1758 67.2109 35.957C67.1523 35.7383 67.123 35.5137 67.123 35.2832V33.291C67.123 32.959 67.1191 32.6699 67.1113 32.4238C67.1035 32.1738 67.0918 31.959 67.0762 31.7793C67.0605 31.5996 67.043 31.4492 67.0234 31.3281C67.0039 31.207 66.9824 31.1055 66.959 31.0234V31H68.3125V31.0234C68.2891 31.1055 68.2676 31.207 68.248 31.3281C68.2285 31.4492 68.2109 31.5996 68.1953 31.7793C68.1797 31.959 68.168 32.1738 68.1602 32.4238C68.1523 32.6699 68.1484 32.959 68.1484 33.291V34.9492ZM76.6562 30.8945C76.8164 30.8945 76.9766 30.9082 77.1367 30.9355C77.2969 30.9629 77.4531 31.002 77.6055 31.0527C77.7578 31.1035 77.9023 31.166 78.0391 31.2402C78.1758 31.3145 78.2988 31.3984 78.4082 31.4922V30.5312C78.4082 30.1992 78.4043 29.9102 78.3965 29.6641C78.3887 29.4141 78.377 29.1992 78.3613 29.0195C78.3457 28.8398 78.3281 28.6895 78.3086 28.5684C78.2891 28.4473 78.2676 28.3457 78.2441 28.2637V28.2402H79.5977V28.2637C79.5742 28.3457 79.5508 28.4473 79.5273 28.5684C79.5078 28.6895 79.4902 28.8398 79.4746 29.0195C79.4629 29.1992 79.4512 29.4141 79.4395 29.6641C79.4316 29.9102 79.4277 30.1992 79.4277 30.5312V34.709C79.4277 35.041 79.4316 35.332 79.4395 35.582C79.4512 35.8281 79.4629 36.041 79.4746 36.2207C79.4902 36.4004 79.5078 36.5508 79.5273 36.6719C79.5508 36.793 79.5742 36.8945 79.5977 36.9766V37H78.3027V36.9766C78.3145 36.9453 78.3242 36.9004 78.332 36.8418C78.3398 36.7793 78.3496 36.7031 78.3613 36.6133C78.1621 36.7383 77.9121 36.8516 77.6113 36.9531C77.3105 37.0547 76.9609 37.1055 76.5625 37.1055C76.0977 37.1055 75.6758 37.0332 75.2969 36.8887C74.918 36.7441 74.5938 36.5371 74.3242 36.2676C74.0586 35.998 73.8535 35.6719 73.709 35.2891C73.5645 34.9023 73.4922 34.4688 73.4922 33.9883C73.4922 33.5469 73.5703 33.1387 73.7266 32.7637C73.8828 32.3848 74.1016 32.0566 74.3828 31.7793C74.6641 31.502 74.998 31.2852 75.3848 31.1289C75.7715 30.9727 76.1953 30.8945 76.6562 30.8945ZM78.4082 32.5234C78.252 32.1133 78.0273 31.8105 77.7344 31.6152C77.4453 31.4199 77.1191 31.3223 76.7559 31.3223C76.4512 31.3223 76.1699 31.377 75.9121 31.4863C75.6543 31.5918 75.4336 31.7461 75.25 31.9492C75.0664 32.1523 74.9219 32.4023 74.8164 32.6992C74.7148 32.9922 74.6641 33.3262 74.6641 33.7012C74.6641 34.123 74.7109 34.5156 74.8047 34.8789C74.8984 35.2422 75.0352 35.5586 75.2148 35.8281C75.3984 36.0938 75.625 36.3027 75.8945 36.4551C76.1641 36.6035 76.4746 36.6777 76.8262 36.6777C77.0098 36.6777 77.1816 36.6562 77.3418 36.6133C77.502 36.5703 77.6484 36.5156 77.7812 36.4492C77.9141 36.3828 78.0312 36.3105 78.1328 36.2324C78.2344 36.1504 78.3184 36.0703 78.3848 35.9922C78.3926 35.8242 78.3984 35.6328 78.4023 35.418C78.4062 35.2031 78.4082 34.9668 78.4082 34.709V32.5234ZM81.2734 33.291C81.2734 32.959 81.2676 32.6699 81.2559 32.4238C81.248 32.1738 81.2363 31.959 81.2207 31.7793C81.209 31.5996 81.1914 31.4492 81.168 31.3281C81.1484 31.207 81.127 31.1055 81.1035 31.0234V31H82.457V31.0234C82.4336 31.1055 82.4121 31.207 82.3926 31.3281C82.373 31.4492 82.3555 31.5996 82.3398 31.7793C82.3242 31.959 82.3125 32.1738 82.3047 32.4238C82.2969 32.6699 82.293 32.959 82.293 33.291V34.709C82.293 35.041 82.2969 35.332 82.3047 35.582C82.3125 35.8281 82.3242 36.041 82.3398 36.2207C82.3555 36.4004 82.373 36.5508 82.3926 36.6719C82.4121 36.793 82.4336 36.8945 82.457 36.9766V37H81.1035V36.9766C81.127 36.8945 81.1484 36.793 81.168 36.6719C81.1914 36.5508 81.209 36.4004 81.2207 36.2207C81.2363 36.041 81.248 35.8281 81.2559 35.582C81.2676 35.332 81.2734 35.041 81.2734 34.709V33.291ZM81.1504 29.2246C81.1504 29.1387 81.166 29.0586 81.1973 28.9844C81.2324 28.9062 81.2773 28.8398 81.332 28.7852C81.3867 28.7266 81.4512 28.6816 81.5254 28.6504C81.6035 28.6152 81.6875 28.5977 81.7773 28.5977C81.8672 28.5977 81.9492 28.6152 82.0234 28.6504C82.1016 28.6816 82.168 28.7266 82.2227 28.7852C82.2812 28.8398 82.3262 28.9062 82.3574 28.9844C82.3926 29.0586 82.4102 29.1387 82.4102 29.2246C82.4102 29.4043 82.3496 29.5547 82.2285 29.6758C82.1074 29.7969 81.957 29.8574 81.7773 29.8574C81.6875 29.8574 81.6035 29.8418 81.5254 29.8105C81.4512 29.7754 81.3867 29.7305 81.332 29.6758C81.2773 29.6172 81.2324 29.5508 81.1973 29.4766C81.166 29.3984 81.1504 29.3145 81.1504 29.2246ZM83.6406 33.9883C83.6406 33.5469 83.7227 33.1387 83.8867 32.7637C84.0508 32.3848 84.2754 32.0566 84.5605 31.7793C84.8496 31.502 85.1895 31.2852 85.5801 31.1289C85.9707 30.9727 86.3906 30.8945 86.8398 30.8945C87.2812 30.8945 87.6953 30.9688 88.082 31.1172C88.4727 31.2617 88.8125 31.4688 89.1016 31.7383C89.3906 32.0078 89.6172 32.3359 89.7812 32.7227C89.9492 33.1094 90.0332 33.543 90.0332 34.0234C90.0332 34.4258 89.9629 34.8125 89.8223 35.1836C89.6816 35.5547 89.4746 35.8828 89.2012 36.168C88.9277 36.4531 88.5918 36.6816 88.1934 36.8535C87.7988 37.0215 87.3438 37.1055 86.8281 37.1055C86.3906 37.1055 85.9785 37.0332 85.5918 36.8887C85.2051 36.7441 84.8672 36.5371 84.5781 36.2676C84.2891 35.998 84.0605 35.6719 83.8926 35.2891C83.7246 34.9023 83.6406 34.4688 83.6406 33.9883ZM86.9629 36.6777C87.2402 36.6777 87.4941 36.623 87.7246 36.5137C87.959 36.4043 88.1602 36.2461 88.3281 36.0391C88.4961 35.832 88.627 35.5801 88.7207 35.2832C88.8145 34.9863 88.8613 34.6504 88.8613 34.2754C88.8613 33.8535 88.8164 33.4629 88.7266 33.1035C88.6367 32.7402 88.502 32.4277 88.3223 32.166C88.1465 31.9004 87.9238 31.6934 87.6543 31.5449C87.3848 31.3965 87.0703 31.3223 86.7109 31.3223C86.4336 31.3223 86.1797 31.377 85.9492 31.4863C85.7188 31.5918 85.5176 31.7461 85.3457 31.9492C85.1777 32.1523 85.0469 32.4023 84.9531 32.6992C84.8594 32.9922 84.8125 33.3262 84.8125 33.7012C84.8125 34.123 84.8574 34.5156 84.9473 34.8789C85.041 35.2422 85.1777 35.5586 85.3574 35.8281C85.5371 36.0938 85.7598 36.3027 86.0254 36.4551C86.2949 36.6035 86.6074 36.6777 86.9629 36.6777Z" fill="white"/>
</svg>
