<svg height="504pt" viewBox="-92 0 504 504" width="504pt" xmlns="http://www.w3.org/2000/svg"><path d="m240 32h-192c-26.503906 0-48 21.503906-48 48v184c0 79.527344 64.472656 144 144 144s144-64.472656 144-144v-184c0-26.496094-21.496094-48-48-48zm0 0" fill="#d770ad"/><path d="m240 8h-192c-26.503906 0-48 21.503906-48 48v184c0 79.527344 64.472656 144 144 144s144-64.472656 144-144v-184c0-26.496094-21.496094-48-48-48zm0 0" fill="#ec87c0"/><path d="m192 223.992188c0 26.507812-21.492188 48-48 48s-48-21.492188-48-48c0-26.511719 21.492188-48 48-48s48 21.488281 48 48zm0 0" fill="#ccd1d9"/><path d="m96 216h96v7.992188h-96zm0 0" fill="#ccd1d9"/><path d="m216 120c32 0 47.761719-24 47.761719-48v-57.671875c-7.007813-4.007813-15.113281-6.328125-23.761719-6.328125h-192c-8.847656 0-17.128906 2.441406-24.238281 6.625v57.375c0 24 16.238281 48 48.238281 48zm0 0" fill="#d770ad"/><path d="m136 439.992188h16v16.007812h-16zm0 0" fill="#545c66"/><path d="m208 64h-128c-8.878906 0-16-7.113281-16-16v-32c0-3.359375 1.039062-6.390625 2.71875-8.953125 2.882812-4.246094 7.761719-7.046875 13.28125-7.046875h128c6.078125 0 11.359375 3.359375 14.078125 8.328125 1.203125 2.230469 1.921875 4.871094 1.921875 7.671875v32c0 8.886719-7.121094 16-16 16zm0 0" fill="#e6e9ed"/><path d="m160 415.992188c0 16-8 24-8 24h-16s-8-8-8-24v-16s0-8 16-8 16 8 16 8zm0 0" fill="#656d78"/><path d="m192 216c0 26.507812-21.492188 48-48 48s-48-21.492188-48-48 21.492188-48 48-48 48 21.492188 48 48zm0 0" fill="#e6e9ed"/><path d="m184 488c-17.664062 0-32-14.328125-32-32h-16c0 26.511719 21.496094 48 48 48h136v-16zm0 0" fill="#545c66"/><g fill="#ccd1d9"><path d="m88 35.359375c-2.207031 0-4-1.792969-4-4v-15.359375c0-2.207031 1.792969-4 4-4s4 1.792969 4 4v15.359375c0 2.207031-1.792969 4-4 4zm0 0"/><path d="m104 51.6875c-2.207031 0-4-1.792969-4-4v-15.359375c0-2.207031 1.792969-4 4-4s4 1.792969 4 4v15.359375c0 2.207031-1.792969 4-4 4zm0 0"/><path d="m120 35.359375c-2.207031 0-4-1.792969-4-4v-15.359375c0-2.207031 1.792969-4 4-4s4 1.792969 4 4v15.359375c0 2.207031-1.792969 4-4 4zm0 0"/><path d="m136 51.6875c-2.207031 0-4-1.792969-4-4v-15.359375c0-2.207031 1.792969-4 4-4s4 1.792969 4 4v15.359375c0 2.207031-1.792969 4-4 4zm0 0"/><path d="m152 35.359375c-2.207031 0-4-1.792969-4-4v-15.359375c0-2.207031 1.792969-4 4-4s4 1.792969 4 4v15.359375c0 2.207031-1.792969 4-4 4zm0 0"/><path d="m168 51.6875c-2.207031 0-4-1.792969-4-4v-15.359375c0-2.207031 1.792969-4 4-4s4 1.792969 4 4v15.359375c0 2.207031-1.792969 4-4 4zm0 0"/><path d="m184 35.359375c-2.207031 0-4-1.792969-4-4v-15.359375c0-2.207031 1.792969-4 4-4s4 1.792969 4 4v15.359375c0 2.207031-1.792969 4-4 4zm0 0"/><path d="m200 51.6875c-2.207031 0-4-1.792969-4-4v-15.359375c0-2.207031 1.792969-4 4-4s4 1.792969 4 4v15.359375c0 2.207031-1.792969 4-4 4zm0 0"/></g><path d="m192 100h-96c-2.207031 0-4-1.792969-4-4s1.792969-4 4-4h96c2.207031 0 4 1.792969 4 4s-1.792969 4-4 4zm0 0" fill="#ec87c0"/><path d="m160 204h-32c-2.207031 0-4-1.792969-4-4s1.792969-4 4-4h32c2.207031 0 4 1.792969 4 4s-1.792969 4-4 4zm0 0" fill="#ccd1d9"/><path d="m160 220h-32c-2.207031 0-4-1.792969-4-4s1.792969-4 4-4h32c2.207031 0 4 1.792969 4 4s-1.792969 4-4 4zm0 0" fill="#ccd1d9"/><path d="m160 236h-32c-2.207031 0-4-1.792969-4-4s1.792969-4 4-4h32c2.207031 0 4 1.792969 4 4s-1.792969 4-4 4zm0 0" fill="#ccd1d9"/><path d="m128 411.992188v4c0 1.40625.128906 2.671874.238281 3.953124 2.089844-.144531 3.753907-1.832031 3.753907-3.953124 0-2.207032-1.792969-3.992188-3.992188-4zm0 0" fill="#545c66"/><path d="m156.007812 415.992188c0 2.128906 1.664063 3.816406 3.753907 3.953124.117187-1.28125.238281-2.546874.238281-3.953124v-4c-2.199219.007812-3.992188 1.792968-3.992188 4zm0 0" fill="#545c66"/><path d="m168 332h-48c-2.207031 0-4-1.792969-4-4s1.792969-4 4-4h48c2.207031 0 4 1.792969 4 4s-1.792969 4-4 4zm0 0" fill="#d770ad"/><path d="m152 348h-16c-2.207031 0-4-1.792969-4-4s1.792969-4 4-4h16c2.207031 0 4 1.792969 4 4s-1.792969 4-4 4zm0 0" fill="#d770ad"/></svg>