<svg width="71" height="50" viewBox="0 0 71 50" fill="none" xmlns="http://www.w3.org/2000/svg">
<path fill-rule="evenodd" clip-rule="evenodd" d="M69.5859 42.8135H68.2874V3.59327C68.2874 1.61193 66.6769 0 64.6974 0H6.03435C4.05478 0 2.44429 1.61193 2.44429 3.59327V42.8135H1.14576C0.512843 42.8135 0 43.3268 0 43.9602V46.4067C0 48.3881 1.61048 50 3.59005 50H67.1417C69.1212 50 70.7317 48.3881 70.7317 46.4067V43.9602C70.7317 43.3268 70.2189 42.8135 69.5859 42.8135ZM4.73578 3.59343C4.73578 2.87676 5.31829 2.29374 6.03431 2.29374H64.6973C65.4134 2.29374 65.9959 2.87676 65.9959 3.59343V42.8136H4.73578V3.59343ZM68.4402 46.4068C68.4402 47.1234 67.8577 47.7065 67.1416 47.7065H3.59004C2.87401 47.7065 2.29151 47.1234 2.29151 46.4068V45.1071H29.3353C29.3336 45.1325 29.3315 45.1577 29.3315 45.1835C29.3315 45.817 29.8443 46.3303 30.4773 46.3303H40.2544C40.8873 46.3303 41.4002 45.817 41.4002 45.1835C41.4002 45.1577 41.398 45.1325 41.3964 45.1071H68.4402V46.4068ZM62.2531 4.89293H8.47868C7.84576 4.89293 7.33292 5.40623 7.33292 6.03971V39.0672C7.33292 39.7007 7.84576 40.214 8.47868 40.214H62.2531C62.886 40.214 63.3989 39.7007 63.3989 39.0672V6.03971C63.3989 5.40623 62.886 4.89293 62.2531 4.89293ZM9.62438 7.18666H36.6644V37.9206H34.0673V30.5047C34.0673 29.5512 33.7879 28.6622 33.3083 27.9134C33.6049 27.8068 33.8504 27.5812 33.9769 27.2815C34.1486 26.8746 34.0717 26.4053 33.7792 26.0746C32.409 24.526 31.623 21.6822 31.623 18.2723C31.623 13.5929 27.8195 9.78605 23.1444 9.78605C18.4692 9.78605 14.6657 13.5929 14.6657 18.2723C14.6657 21.6822 13.8797 24.526 12.5096 26.0746C12.217 26.4052 12.1402 26.8744 12.3119 27.2815C12.4384 27.5812 12.6839 27.8068 12.9804 27.9134C12.5009 28.6622 12.2214 29.5512 12.2214 30.5047V37.9206H9.62438V7.18666ZM28.1094 18.272C28.1094 21.0122 25.8821 23.2414 23.1444 23.2414C20.591 23.2414 18.4817 21.302 18.2087 18.8292C20.8544 18.2297 24.1815 17.119 26.9138 15.0754C27.6818 15.9693 28.1094 17.0953 28.1094 18.272ZM21.4282 25.3281C21.9788 25.4624 22.5532 25.5351 23.1444 25.5351C23.7356 25.5351 24.31 25.4624 24.8606 25.3281C25.58 26.2276 26.6584 26.9072 28.0817 27.3576C27.8199 29.853 25.7057 31.8043 23.1444 31.8043C20.5831 31.8043 18.4689 29.853 18.2071 27.3576C19.6304 26.9072 20.7086 26.2276 21.4282 25.3281ZM27.1127 24.3483C28.1505 23.6671 29.0034 22.7273 29.5804 21.6207C29.8144 23.116 30.2098 24.4547 30.7561 25.5889C29.486 25.4322 28.0377 25.0766 27.1127 24.3483ZM17.1569 16.7102C17.8504 14.0493 20.2717 12.0796 23.1444 12.0796C24.2029 12.0796 25.2002 12.3475 26.0723 12.8184C23.2715 15.1475 19.4155 16.2409 17.1569 16.7102ZM16.7084 21.6207C17.2854 22.7273 18.1385 23.6671 19.1762 24.3484C18.2512 25.0769 16.8027 25.4324 15.5325 25.5889C16.0788 24.4548 16.4744 23.1162 16.7084 21.6207ZM14.513 30.5048C14.513 29.4756 15.1328 28.5897 16.0177 28.1977C16.6571 31.5532 19.6086 34.0981 23.1444 34.0981C26.6802 34.0981 29.6317 31.5532 30.271 28.1977C31.156 28.5895 31.7758 29.4755 31.7758 30.5048V37.9207H14.513V30.5048ZM61.1073 37.9206H38.9559V7.18666H61.1073V37.9206ZM42.6987 14.5258H43.9972V14.6022C43.9972 15.2357 44.5101 15.749 45.143 15.749C45.7759 15.749 46.2887 15.2357 46.2887 14.6022V14.5258H57.3644C57.9974 14.5258 58.5102 14.0125 58.5102 13.379C58.5102 12.7455 57.9974 12.2322 57.3644 12.2322H46.2887V12.1558C46.2887 11.5223 45.7759 11.009 45.143 11.009C44.5101 11.009 43.9972 11.5223 43.9972 12.1558V12.2322H42.6987C42.0658 12.2322 41.5529 12.7455 41.5529 13.379C41.5529 14.0125 42.0658 14.5258 42.6987 14.5258ZM42.6987 20.6424H53.7744V20.7188C53.7744 21.3523 54.2872 21.8656 54.9201 21.8656C55.5531 21.8656 56.0659 21.3523 56.0659 20.7188V20.6424H57.3644C57.9974 20.6424 58.5102 20.1291 58.5102 19.4956C58.5102 18.8621 57.9974 18.3488 57.3644 18.3488H56.0659V18.2724C56.0659 17.6389 55.5531 17.1256 54.9201 17.1256C54.2872 17.1256 53.7744 17.6389 53.7744 18.2724V18.3488H42.6987C42.0658 18.3488 41.5529 18.8621 41.5529 19.4956C41.5529 20.1291 42.0658 20.6424 42.6987 20.6424ZM42.6987 26.7584H50.1079V26.8349C50.1079 27.4684 50.6208 27.9817 51.2537 27.9817C51.8866 27.9817 52.3995 27.4684 52.3995 26.8349V26.7584H57.3644C57.9974 26.7584 58.5102 26.2451 58.5102 25.6116C58.5102 24.9781 57.9974 24.4648 57.3644 24.4648H52.3995V24.3884C52.3995 23.7549 51.8866 23.2416 51.2537 23.2416C50.6208 23.2416 50.1079 23.7549 50.1079 24.3884V24.4648H42.6987C42.0658 24.4648 41.5529 24.9781 41.5529 25.6116C41.5529 26.2451 42.0658 26.7584 42.6987 26.7584ZM57.3644 30.5809H48.733V30.5044C48.733 29.8709 48.2202 29.3576 47.5873 29.3576C46.9543 29.3576 46.4415 29.8709 46.4415 30.5044V30.5809H42.6987C42.0658 30.5809 41.5529 31.0942 41.5529 31.7276C41.5529 32.3611 42.0658 32.8744 42.6987 32.8744H46.4415V32.9509C46.4415 33.5844 46.9543 34.0977 47.5873 34.0977C48.2202 34.0977 48.733 33.5844 48.733 32.9509V32.8744H57.3644C57.9974 32.8744 58.5102 32.3611 58.5102 31.7276C58.5102 31.0942 57.9974 30.5809 57.3644 30.5809Z" fill="#64D2FF"/>
</svg>
