<svg width="41" height="76" viewBox="0 0 41 76" fill="none" xmlns="http://www.w3.org/2000/svg">
<path fill-rule="evenodd" clip-rule="evenodd" d="M20.44 2C16.009 2 12.5292 2.90421 9.9206 4.62477C7.28133 6.36557 5.33881 8.77795 4.09032 11.8968C2.88581 14.996 2.27 18.6469 2.27 22.87V25.11H12.51V23.05C12.51 20.8939 12.6947 18.9048 13.0707 17.0874L13.0741 17.0713L13.0779 17.0554C13.5336 15.1677 14.3618 13.584 15.5929 12.3529C16.9058 11.04 18.6867 10.44 20.8 10.44C23.1053 10.44 24.9513 11.2742 26.1321 13.0453C27.2471 14.7178 27.74 17.0147 27.74 19.81C27.74 22.317 27.3327 24.6568 26.507 26.8195C25.7617 28.867 24.7706 30.8481 23.5366 32.7624C22.3936 34.6271 21.1612 36.5808 19.8396 38.6233L2 66.1854V73.71H36.27V65.72H13.2738L29.2412 41.4803L29.2478 41.4708C30.8593 39.1432 32.3501 36.8769 33.7207 34.6721C35.0625 32.5136 36.1399 30.2708 36.9549 27.9431C37.7536 25.6027 38.16 22.9851 38.16 20.08C38.16 14.2523 36.6478 9.84415 33.7472 6.72046C30.8772 3.6297 26.5061 2 20.44 2ZM8.8194 2.95523C11.8508 0.955788 15.751 0 20.44 0C26.8539 0 31.8428 1.7303 35.2128 5.35955C38.5522 8.95586 40.16 13.9077 40.16 20.08C40.16 23.1733 39.7269 26.0145 38.8464 28.5931L38.8439 28.6004C37.979 31.0714 36.8369 33.4475 35.4193 35.7279C34.0318 37.9601 32.5248 40.2506 30.8988 42.5996L16.9862 63.72H38.27V75.71H0V65.5946L18.1604 37.5368C19.4765 35.5028 20.7021 33.5598 21.8374 31.7074L21.8434 31.6976L21.8497 31.6879C23.0112 29.8876 23.937 28.0345 24.6302 26.1283L24.633 26.1205L24.6359 26.1129C25.3682 24.1976 25.74 22.1 25.74 19.81C25.74 17.2053 25.2729 15.3622 24.468 14.1547C23.7287 13.0458 22.5747 12.44 20.8 12.44C19.0733 12.44 17.8542 12.92 17.0071 13.7671C16.0812 14.693 15.4109 15.9242 15.0259 17.5088C14.6841 19.1673 14.51 21.0128 14.51 23.05V27.11H0.27V22.87C0.27 18.455 0.913618 14.5474 2.228 11.1676L2.23148 11.1586C3.62305 7.67966 5.81997 4.93358 8.8194 2.95523Z" fill="#58BFE8"/>
</svg>
