<?xml version="1.0" standalone="no"?>
<!DOCTYPE svg PUBLIC "-//W3C//DTD SVG 20010904//EN"
 "http://www.w3.org/TR/2001/REC-SVG-20010904/DTD/svg10.dtd">
<svg version="1.0" xmlns="http://www.w3.org/2000/svg"
 width="700.000000pt" height="700.000000pt" viewBox="0 0 700.000000 700.000000"
 preserveAspectRatio="xMidYMid meet">
<metadata>
Created by potrace 1.14, written by Peter Selinger 2001-2017
</metadata>
<g transform="translate(0.000000,700.000000) scale(0.100000,-0.100000)"
fill="#000000" stroke="none">
<path d="M406 6444 c-89 -23 -153 -79 -187 -167 l-21 -52 0 -2597 c0 -1429 4
-2612 7 -2630 18 -84 96 -172 173 -197 34 -11 41 -19 47 -47 14 -76 72 -145
155 -183 l55 -25 2950 -1 c2227 0 2963 2 3004 11 29 7 72 25 95 41 39 27 112
121 102 131 -3 2 -1 13 5 24 15 28 15 4695 -1 4762 -19 86 -88 161 -176 191
-32 11 -40 19 -53 61 -10 33 -32 65 -67 101 -83 83 -81 83 -610 83 l-453 0
-21 -27 c-21 -27 -26 -28 -111 -29 -49 0 -89 3 -89 8 0 4 -9 17 -20 28 -19 19
-33 20 -314 20 -162 0 -306 -4 -319 -9 -14 -6 -28 -19 -31 -29 -6 -17 -16 -19
-71 -19 -54 0 -66 3 -71 19 -3 10 -14 22 -24 28 -11 6 -255 10 -648 10 -386 0
-642 4 -659 10 -16 6 -40 29 -55 53 -40 60 -86 109 -138 144 -25 17 -63 57
-85 89 -66 98 -152 165 -240 189 -16 5 -37 10 -45 12 -8 3 -471 5 -1028 6
-725 2 -1025 -1 -1056 -9z"/>
</g>
</svg>
