<svg width="34" height="34" viewBox="0 0 34 34" fill="none" xmlns="http://www.w3.org/2000/svg">
<path fill-rule="evenodd" clip-rule="evenodd" d="M17 0C7.61116 0 0 7.61116 0 17C0 26.3888 7.61116 34 17 34C26.3888 34 34 26.3888 34 17C34 7.61116 26.3888 0 17 0ZM13.2623 7.98812C14.2294 7.94411 14.5384 7.93334 17.0008 7.93334H16.9979C19.4611 7.93334 19.769 7.94411 20.7361 7.98812C21.7013 8.03232 22.3606 8.18513 22.9386 8.40935C23.5355 8.64074 24.0398 8.95052 24.5441 9.45486C25.0485 9.95882 25.3583 10.4647 25.5906 11.061C25.8135 11.6375 25.9665 12.2963 26.0118 13.2616C26.0553 14.2287 26.0666 14.5377 26.0666 17.0001C26.0666 19.4625 26.0553 19.7708 26.0118 20.7379C25.9665 21.7027 25.8135 22.3618 25.5906 22.9385C25.3583 23.5346 25.0485 24.0404 24.5441 24.5444C24.0404 25.0487 23.5353 25.3593 22.9391 25.5909C22.3623 25.8151 21.7027 25.9679 20.7374 26.0121C19.7703 26.0561 19.4622 26.0669 16.9996 26.0669C14.5375 26.0669 14.2286 26.0561 13.2615 26.0121C12.2965 25.9679 11.6374 25.8151 11.0605 25.5909C10.4646 25.3593 9.95874 25.0487 9.45497 24.5444C8.95082 24.0404 8.64104 23.5346 8.40927 22.9383C8.18524 22.3618 8.03243 21.7029 7.98804 20.7377C7.94422 19.7706 7.93326 19.4625 7.93326 17.0001C7.93326 14.5377 7.9446 14.2285 7.98785 13.2614C8.0313 12.2965 8.1843 11.6375 8.40908 11.0608C8.64142 10.4647 8.9512 9.95882 9.45554 9.45486C9.9595 8.95071 10.4653 8.64093 11.0617 8.40935C11.6382 8.18513 12.297 8.03232 13.2623 7.98812Z" fill="white" fill-opacity="0.6"/>
<path fill-rule="evenodd" clip-rule="evenodd" d="M16.1874 9.56724C16.3453 9.56699 16.5152 9.56707 16.6985 9.56715L17.0007 9.56724C19.4216 9.56724 19.7085 9.57593 20.6645 9.61937C21.5485 9.6598 22.0282 9.80751 22.3478 9.93161C22.771 10.0959 23.0726 10.2924 23.3898 10.6097C23.7071 10.9271 23.9036 11.2293 24.0683 11.6524C24.1924 11.9716 24.3403 12.4514 24.3805 13.3354C24.4239 14.2912 24.4334 14.5783 24.4334 16.998C24.4334 19.4177 24.4239 19.7048 24.3805 20.6606C24.3401 21.5446 24.1924 22.0244 24.0683 22.3436C23.9039 22.7667 23.7071 23.068 23.3898 23.3852C23.0724 23.7025 22.7712 23.899 22.3478 24.0633C22.0286 24.188 21.5485 24.3353 20.6645 24.3757C19.7087 24.4192 19.4216 24.4286 17.0007 24.4286C14.5797 24.4286 14.2928 24.4192 13.337 24.3757C12.453 24.3349 11.9732 24.1872 11.6534 24.0631C11.2303 23.8988 10.9281 23.7023 10.6107 23.385C10.2934 23.0676 10.097 22.7662 9.93224 22.3429C9.80814 22.0236 9.66024 21.5439 9.62 20.6599C9.57656 19.7041 9.56787 19.417 9.56787 16.9957C9.56787 14.5745 9.57656 14.2889 9.62 13.3332C9.66043 12.4491 9.80814 11.9694 9.93224 11.6498C10.0966 11.2266 10.2934 10.9244 10.6107 10.6071C10.9281 10.2897 11.2303 10.0933 11.6534 9.92859C11.973 9.80392 12.453 9.65658 13.337 9.61597C14.1734 9.57819 14.4975 9.56686 16.1874 9.56497V9.56724ZM21.8405 11.0727C21.2398 11.0727 20.7525 11.5595 20.7525 12.1603C20.7525 12.761 21.2398 13.2483 21.8405 13.2483C22.4411 13.2483 22.9285 12.761 22.9285 12.1603C22.9285 11.5597 22.4411 11.0723 21.8405 11.0723V11.0727ZM12.3446 17.0001C12.3446 14.4287 14.4294 12.3439 17.0008 12.3439H17.0006C19.5719 12.3439 21.6562 14.4287 21.6562 17.0001C21.6562 19.5715 19.5721 21.6553 17.0008 21.6553C14.4294 21.6553 12.3446 19.5715 12.3446 17.0001Z" fill="white" fill-opacity="0.6"/>
<path fill-rule="evenodd" clip-rule="evenodd" d="M17.0008 13.9778C18.6698 13.9778 20.023 15.3309 20.023 17.0001C20.023 18.6691 18.6698 20.0224 17.0008 20.0224C15.3315 20.0224 13.9785 18.6691 13.9785 17.0001C13.9785 15.3309 15.3315 13.9778 17.0008 13.9778V13.9778Z" fill="white" fill-opacity="0.6"/>
</svg>
