<svg width="25" height="24" viewBox="0 0 25 24" fill="none" xmlns="http://www.w3.org/2000/svg">
<path fill-rule="evenodd" clip-rule="evenodd" d="M11.535 0.00365998C11.79 0.0032609 12.0644 0.003384 12.3604 0.00351684L12.8484 0.00365998C16.7572 0.00365998 17.2205 0.0176899 18.7641 0.0878395C20.1915 0.153109 20.9662 0.391618 21.4822 0.592001C22.1654 0.85735 22.6525 1.17455 23.1646 1.68694C23.677 2.19934 23.9942 2.68734 24.2602 3.37053C24.4606 3.88598 24.6994 4.66068 24.7643 6.08807C24.8345 7.63136 24.8497 8.09496 24.8497 12.002C24.8497 15.909 24.8345 16.3726 24.7643 17.9159C24.6991 19.3433 24.4606 20.118 24.2602 20.6334C23.9948 21.3166 23.677 21.8031 23.1646 22.3152C22.6522 22.8276 22.1657 23.1448 21.4822 23.4101C20.9668 23.6114 20.1915 23.8493 18.7641 23.9146C17.2208 23.9847 16.7572 24 12.8484 24C8.93919 24 8.4759 23.9847 6.93261 23.9146C5.50522 23.8487 4.73053 23.6102 4.21416 23.4098C3.53097 23.1445 3.04297 22.8273 2.53057 22.3149C2.01818 21.8025 1.70098 21.3157 1.43502 20.6322C1.23464 20.1168 0.995824 19.3421 0.930859 17.9147C0.86071 16.3714 0.84668 15.9078 0.84668 11.9983C0.84668 8.08885 0.86071 7.6277 0.930859 6.08441C0.996129 4.65702 1.23464 3.88232 1.43502 3.36626C1.70037 2.68307 2.01818 2.19507 2.53057 1.68267C3.04297 1.17028 3.53097 0.85308 4.21416 0.587121C4.73022 0.385823 5.50522 0.147924 6.93261 0.0823495C8.28314 0.0213499 8.80652 0.00304998 11.535 0V0.00365998ZM20.6628 2.43459C19.693 2.43459 18.9061 3.22057 18.9061 4.19077C18.9061 5.16067 19.693 5.94756 20.6628 5.94756C21.6327 5.94756 22.4196 5.16067 22.4196 4.19077C22.4196 3.22088 21.6327 2.43398 20.6628 2.43398V2.43459ZM5.33027 12.0057C5.33027 7.85386 8.69637 4.48766 12.8482 4.4875C17.0001 4.4875 20.3655 7.85376 20.3655 12.0057C20.3655 16.1576 17.0004 19.5224 12.8485 19.5224C8.69654 19.5224 5.33027 16.1576 5.33027 12.0057Z" fill="white" fill-opacity="0.6"/>
<path fill-rule="evenodd" clip-rule="evenodd" d="M12.8482 7.125C15.5432 7.125 17.7282 9.3097 17.7282 12.005C17.7282 14.6999 15.5432 16.8849 12.8482 16.8849C10.153 16.8849 7.96826 14.6999 7.96826 12.005C7.96826 9.3097 10.153 7.125 12.8482 7.125V7.125Z" fill="white" fill-opacity="0.6"/>
</svg>
