<svg width="44" height="24" viewBox="0 0 44 24" fill="none" xmlns="http://www.w3.org/2000/svg">
<path fill-rule="evenodd" clip-rule="evenodd" d="M24.377 23.8997C24.377 23.8997 25.1505 23.8153 25.5467 23.3976C25.9093 23.0149 25.8967 22.2927 25.8967 22.2927C25.8967 22.2927 25.8485 18.9204 27.4437 18.4224C29.0158 17.9327 31.0344 21.6837 33.1766 23.126C34.7949 24.2166 36.0232 23.9779 36.0232 23.9779L41.7478 23.8997C41.7478 23.8997 44.7411 23.7186 43.322 21.408C43.2046 21.2187 42.494 19.6981 39.0668 16.5747C35.4761 13.3053 35.9582 13.8341 40.2805 8.17781C42.9132 4.73344 43.9655 2.6306 43.6364 1.73145C43.3241 0.871384 41.3872 1.09977 41.3872 1.09977L34.9437 1.13887C34.9437 1.13887 34.4658 1.07508 34.1115 1.2829C33.7657 1.4866 33.5414 1.9619 33.5414 1.9619C33.5414 1.9619 32.5226 4.62645 31.1622 6.89389C28.2926 11.6757 27.146 11.9288 26.6765 11.6325C25.5844 10.9391 25.8569 8.85063 25.8569 7.36713C25.8569 2.73143 26.5738 0.799369 24.463 0.29938C23.7629 0.132717 23.2472 0.0236662 21.455 0.00514811C19.1555 -0.0174851 17.2103 0.0133784 16.1077 0.542173C15.3741 0.894017 14.8081 1.68001 15.154 1.72527C15.5795 1.78083 16.5437 1.98041 17.0552 2.66353C17.7155 3.54622 17.6924 5.5256 17.6924 5.5256C17.6924 5.5256 18.0718 10.9823 16.8058 11.6592C15.938 12.1242 14.7473 11.1757 12.1879 6.83627C10.8779 4.6141 9.88848 2.15736 9.88848 2.15736C9.88848 2.15736 9.69773 1.69853 9.35606 1.45162C8.94312 1.15327 8.36668 1.06068 8.36668 1.06068L2.24384 1.09977C2.24384 1.09977 1.32363 1.12447 0.986154 1.51746C0.686405 1.86519 0.963096 2.5874 0.963096 2.5874C0.963096 2.5874 5.75698 13.5974 11.186 19.1467C16.1643 24.233 21.8155 23.8997 21.8155 23.8997H24.377Z" fill="white" fill-opacity="0.6"/>
</svg>
