<svg width="25" height="24" viewBox="0 0 25 24" fill="none" xmlns="http://www.w3.org/2000/svg">
<path fill-rule="evenodd" clip-rule="evenodd" d="M6.73225 22.3279L6.29422 22.068L1.75412 23.2589L2.96594 18.8324L2.68073 18.3785C1.47995 16.4686 0.845751 14.2612 0.846681 11.9946C0.849306 5.38078 6.23057 0 12.8473 0C16.0513 0.00111087 19.0632 1.25042 21.328 3.51785C23.5927 5.78527 24.8393 8.79906 24.838 12.0043C24.8354 18.6187 19.4542 24 12.8426 24H12.8377C10.6852 23.9992 8.57401 23.4209 6.73225 22.3279ZM19.6197 15.1125C19.8712 15.2341 20.0411 15.3161 20.1136 15.4372C20.2037 15.5876 20.2037 16.3096 19.9033 17.1521C19.6027 17.9944 18.1621 18.7632 17.4692 18.8667C16.8479 18.9596 16.0617 18.9983 15.1978 18.7238C14.6741 18.5576 14.0024 18.3358 13.142 17.9642C9.76132 16.5044 7.47666 13.2278 7.04487 12.6085C7.01462 12.5651 6.99347 12.5348 6.98167 12.519L6.97876 12.5151C6.78792 12.2605 5.50918 10.5544 5.50918 8.78857C5.50918 7.12748 6.32513 6.25682 6.70072 5.85606C6.72645 5.8286 6.75012 5.80335 6.77131 5.7802C7.10185 5.41916 7.49256 5.32891 7.73295 5.32891C7.97333 5.32891 8.214 5.33113 8.4241 5.34168C8.45003 5.34298 8.47699 5.34282 8.50487 5.34266C8.71502 5.34143 8.97701 5.33989 9.23547 5.96071C9.3349 6.19964 9.4804 6.55386 9.63386 6.92746C9.94416 7.6829 10.287 8.51754 10.3473 8.63833C10.4375 8.81884 10.4976 9.02935 10.3774 9.27013C10.3593 9.30623 10.3426 9.3403 10.3267 9.37286C10.2364 9.55718 10.17 9.69276 10.0168 9.87167C9.95652 9.94202 9.89424 10.0179 9.83197 10.0937C9.7079 10.2448 9.58385 10.3959 9.47583 10.5035C9.2953 10.6833 9.10737 10.8784 9.31773 11.2394C9.52809 11.6005 10.2518 12.7813 11.3239 13.7376C12.4763 14.7655 13.4778 15.1999 13.9855 15.4201C14.0847 15.4631 14.165 15.498 14.2239 15.5274C14.5844 15.708 14.7947 15.6778 15.0051 15.4372C15.2155 15.1965 15.9066 14.3842 16.1469 14.0232C16.3873 13.6623 16.6278 13.7224 16.9583 13.8427C17.2889 13.9632 19.0619 14.8355 19.4225 15.016C19.4929 15.0512 19.5587 15.083 19.6197 15.1125Z" fill="white" fill-opacity="0.6"/>
</svg>
