<svg width="18" height="18" fill="none" xmlns="http://www.w3.org/2000/svg"><path d="M5.8 11.637h9.563a.527.527 0 00.507-.383l2.11-7.383a.528.528 0 00-.507-.672H4.583l-.377-1.696a.527.527 0 00-.515-.413H.527a.527.527 0 100 1.055h2.741l1.904 8.568c-.56.243-.953.802-.953 1.451 0 .872.71 1.582 1.582 1.582h9.562a.527.527 0 100-1.055H5.801a.528.528 0 01-.002-1.054zm10.973-7.383l-1.808 6.328H6.224L4.818 4.254h11.955z" fill="#fff"/><path d="M5.273 15.328c0 .872.71 1.582 1.582 1.582.873 0 1.582-.71 1.582-1.582 0-.872-.71-1.582-1.582-1.582-.872 0-1.582.71-1.582 1.582zm1.582-.527a.528.528 0 110 1.056.528.528 0 010-1.056zm5.872.527c0 .872.71 1.582 1.582 1.582.872 0 1.582-.71 1.582-1.582 0-.872-.71-1.582-1.582-1.582-.873 0-1.582.71-1.582 1.582zm1.582-.527a.528.528 0 11-.002 1.056.528.528 0 01.002-1.056z" fill="#fff"/></svg>