<svg width="56" height="50" fill="none" xmlns="http://www.w3.org/2000/svg"><path d="M55.169 9.441a3.526 3.526 0 00-2.703-1.257h-2.507a6.302 6.302 0 00-5.489-3.19h-.518V1.179c0-.604-.49-1.094-1.094-1.094-4.077 0-7.394 3.317-7.394 7.394v3.418a6.306 6.306 0 01-3.427 5.625l-3.571 1.843a1.094 1.094 0 001.003 1.944l3.57-1.843a8.486 8.486 0 004.613-7.569V7.48a5.216 5.216 0 014.112-5.09v3.699c0 .604.49 1.094 1.094 1.094h1.613a4.12 4.12 0 013.802 2.522c.171.405.568.668 1.008.668h3.185a1.343 1.343 0 011.327 1.575l-.405 2.348a3.09 3.09 0 01-3.052 2.57h-4.869l-.034.002-.034-.002c-.604 0-1.094.49-1.094 1.094v5.348c0 3.869-.746 7.64-2.22 11.212-.09.22-.106.463-.046.693l2.69 10.29c.047.179.139.344.267.478l.962 1.007a.418.418 0 01.086.475.418.418 0 01-.403.266h-3.644l-4.7-12.18V30.49a1.094 1.094 0 00-2.188 0v5.262c0 .135.024.268.073.394l4.47 11.581h-3.848c-.528-3.421-3.492-6.05-7.06-6.05H27.51l-.488-2.897a7.556 7.556 0 00-5.916-6.17l-2.069-.438a1.094 1.094 0 00-.453 2.14l2.068.439a5.38 5.38 0 014.212 4.393l.427 2.533h-6.739a1.094 1.094 0 000 2.188h10.192a4.965 4.965 0 014.835 3.862H18.374c-5.472 0-9.924-4.452-9.924-9.924 0-4.101 2.264-7.817 5.909-9.698l6.364-3.284a1.094 1.094 0 00-1.003-1.944l-6.364 3.284a13.11 13.11 0 00-4.378 3.646 8.496 8.496 0 014.136-9.148 1.78 1.78 0 00.852-2.03 1.94 1.94 0 00-1.858-1.45h-.029C5.55 17.186.132 22.565.002 29.175A12.298 12.298 0 006.508 40.24c1.131 5.514 6.022 9.675 11.866 9.675H45.64a2.59 2.59 0 002.414-1.593 2.59 2.59 0 00-.516-2.847l-.765-.801-2.527-9.664a31.43 31.43 0 002.246-11.703v-4.254h3.843a5.273 5.273 0 005.207-4.387l.405-2.348a3.525 3.525 0 00-.78-2.877zM2.189 29.218c.1-5.055 3.952-9.233 8.801-9.79a10.687 10.687 0 00-4.382 8.618c0 1.474.294 2.893.872 4.228a13.101 13.101 0 00-1.213 5.234 10.108 10.108 0 01-4.078-8.29z" fill="#2A5A32"/><path d="M45.578 11.67c.203-.203.32-.485.32-.773 0-.288-.117-.57-.32-.773a1.103 1.103 0 00-.773-.32 1.098 1.098 0 00-1.094 1.094 1.098 1.098 0 001.094 1.093c.287 0 .568-.117.773-.32zM24.594 22.687c.288 0 .569-.116.773-.32a1.099 1.099 0 000-1.547 1.1 1.1 0 00-1.547 0 1.098 1.098 0 000 1.547c.203.204.485.32.774.32z" fill="#2A5A32"/></svg>