<svg width="52" height="52" fill="none" xmlns="http://www.w3.org/2000/svg"><path d="M47.507 8.948a1.021 1.021 0 00-.718-.298c-.268 0-.53.108-.72.298a1.02 1.02 0 000 1.436c.19.189.451.297.72.297.267 0 .528-.108.718-.297a1.02 1.02 0 000-1.436zM24.18 32.868a1.02 1.02 0 00-.72-.297 1.02 1.02 0 00-.718.297 1.02 1.02 0 000 1.436 1.02 1.02 0 001.437.001 1.02 1.02 0 000-1.436z" fill="#4E325F"/><path d="M49.967 12.32a1.016 1.016 0 10-1.766 1.005c3.017 5.305 2.106 12.029-2.215 16.35l-.77.77a3.803 3.803 0 00-.867-1.339L33.913 18.67a7.016 7.016 0 001.867-1.337l2.001-2.002a1.016 1.016 0 10-1.436-1.436l-2.002 2.002a4.946 4.946 0 01-3.52 1.458H26.82c-.269 0-.527.107-.718.297l-3.063 3.063c-.91.91-2.39.91-3.3 0a2.336 2.336 0 010-3.299l6.994-6.993c4.274-4.274 10.946-5.214 16.224-2.286a1.016 1.016 0 00.986-1.776 15.757 15.757 0 00-9.66-1.82 15.48 15.48 0 00-8.277 3.777 15.53 15.53 0 00-10.362-3.924A15.542 15.542 0 004.582 8.976 15.542 15.542 0 000 20.038c0 4.18 1.627 8.108 4.582 11.063l.383.383c.067.066.14.12.219.165a3.816 3.816 0 003.966 3.524 3.802 3.802 0 001.117 2.86 3.815 3.815 0 002.859 1.117 3.802 3.802 0 001.117 2.86 3.816 3.816 0 002.861 1.116 3.818 3.818 0 001.116 2.861 3.803 3.803 0 002.706 1.121 3.802 3.802 0 002.707-1.12l1.42-1.42 1.917 1.917a3.802 3.802 0 002.706 1.121 3.802 3.802 0 002.707-1.121 3.819 3.819 0 001.114-2.898 3.815 3.815 0 002.898-1.114 3.817 3.817 0 001.116-2.86 3.802 3.802 0 002.86-1.117 3.817 3.817 0 001.116-2.86 3.802 3.802 0 002.86-1.117c.368-.367.645-.791.831-1.244a.992.992 0 00.274-.194l1.97-1.97c4.966-4.965 6.013-12.692 2.545-18.79zM8.997 33.148c-.48 0-.93-.186-1.27-.526-.34-.339-.526-.79-.526-1.27s.186-.93.526-1.27l1.75-1.75c.34-.34.79-.526 1.27-.526s.931.186 1.27.526c.7.7.7 1.84 0 2.54l-1.75 1.75c-.34.34-.79.526-1.27.526zm2.707 3.45a1.78 1.78 0 01-.527-1.27c0-.479.187-.93.527-1.27l1.75-1.75c.34-.339.79-.526 1.27-.526s.93.187 1.27.526c.7.7.7 1.84 0 2.54l-1.75 1.75c-.7.701-1.84.701-2.54 0zm3.976 3.977c-.34-.339-.526-.79-.526-1.27s.187-.93.526-1.27l1.75-1.75c.34-.34.79-.526 1.27-.526s.931.186 1.27.526c.7.7.7 1.84 0 2.54l-1.75 1.75c-.7.7-1.84.7-2.54 0zm8.267 2.227l-1.75 1.75c-.34.34-.79.526-1.27.526s-.931-.186-1.27-.526c-.7-.7-.7-1.84 0-2.54l1.75-1.75c.34-.34.79-.527 1.27-.527s.93.187 1.27.526c.34.34.526.79.526 1.27s-.187.931-.526 1.27zm18.966-9.718c-.34.34-.79.526-1.27.526s-.931-.187-1.27-.526l-4.228-4.228-3.977-3.977a1.016 1.016 0 00-1.436 1.437l8.204 8.204a1.798 1.798 0 01-1.27 3.066c-.48 0-.93-.186-1.27-.526l-8.205-8.204a1.016 1.016 0 00-1.436 1.436l3.976 3.976v.001l4.228 4.228c.7.7.7 1.84 0 2.54s-1.84.7-2.54 0l-4.227-4.228a1.012 1.012 0 00-.26-.187l-1.206-1.206a1.016 1.016 0 00-1.436 1.436l5.657 5.657a1.798 1.798 0 01-1.27 3.066 1.78 1.78 0 01-1.27-.526l-2.153-2.152c.164-.43.25-.891.25-1.366a3.803 3.803 0 00-1.12-2.706 3.803 3.803 0 00-2.861-1.117 3.818 3.818 0 00-1.116-2.86 3.803 3.803 0 00-2.86-1.117 3.817 3.817 0 00-1.116-2.86 3.803 3.803 0 00-2.861-1.117 3.817 3.817 0 00-1.116-2.859 3.832 3.832 0 00-5.413 0l-1.75 1.75a3.84 3.84 0 00-.564.719 13.518 13.518 0 01-3.695-9.325c0-3.636 1.416-7.055 3.987-9.626a13.525 13.525 0 019.626-3.987c3.305 0 6.43 1.17 8.902 3.313l-6.242 6.241a4.336 4.336 0 00-1.278 3.087 4.34 4.34 0 001.278 3.086 4.351 4.351 0 003.086 1.276 4.35 4.35 0 003.086-1.276l2.766-2.766h3.58c.296 0 .588-.02.877-.056l11.213 11.213c.7.7.7 1.84 0 2.54z" fill="#4E325F"/></svg>