<svg width="51" height="51" fill="none" xmlns="http://www.w3.org/2000/svg"><path d="M22.512 44.426h5.976c.55 0 .996-.446.996-.996v-4.98h4.98c.55 0 .997-.447.997-.997v-5.976a.996.996 0 00-.996-.997h-4.98V25.5a.996.996 0 00-.997-.996h-5.976a.996.996 0 00-.996.996v4.98h-4.98a.996.996 0 00-.997.997v5.976c0 .55.446.996.996.996h4.98v4.98c0 .55.447.997.997.997zm-4.98-7.969v-3.984h4.98c.55 0 .996-.446.996-.996v-4.98h3.984v4.98c0 .55.446.996.996.996h4.98v3.984h-4.98a.996.996 0 00-.996.996v4.98h-3.984v-4.98a.996.996 0 00-.996-.996h-4.98zM25.5 51a.996.996 0 100-1.992.996.996 0 000 1.992z" fill="#7C6645"/><path d="M3.984 51h17.034a.996.996 0 100-1.992H3.984a1.994 1.994 0 01-1.992-1.992V20.52h3.985v4.98c0 .55.446.996.996.996h5.976c.55 0 .996-.446.996-.996v-4.98h23.11v4.98c0 .55.446.996.996.996h5.976c.55 0 .996-.446.996-.996v-4.98h3.985v26.496a1.994 1.994 0 01-1.992 1.992H29.982a.996.996 0 000 1.992h17.034A3.989 3.989 0 0051 47.016v-33.47a3.989 3.989 0 00-3.984-3.983h-8.567V3.984A3.989 3.989 0 0034.465 0h-17.93a3.989 3.989 0 00-3.984 3.984v5.579H3.984A3.989 3.989 0 000 13.546v33.469A3.989 3.989 0 003.984 51zm7.97-26.496H7.968v-3.985h3.984v3.985zm31.077 0h-3.984v-3.985h3.984v3.985zM14.543 3.984c0-1.098.894-1.992 1.992-1.992h17.93c1.098 0 1.992.894 1.992 1.992v5.579H14.543V3.984zm-10.559 7.57h43.032c1.098 0 1.992.894 1.992 1.993v4.98H1.992v-4.98c0-1.099.894-1.992 1.992-1.992z" fill="#7C6645"/></svg>