<svg width="198" height="80" fill="none" xmlns="http://www.w3.org/2000/svg"><g filter="url(#filter0_d)"><path d="M15 17a7 7 0 017-7h32a7 7 0 017 7v32a7 7 0 01-7 7H37.233c-1.416 0-2.76.623-3.675 1.705l-.414.489c-1.838 2.171-5.236 2.007-6.855-.332A4.323 4.323 0 0022.735 56h-1.173A6.562 6.562 0 0115 49.438V17z" fill="#000"/></g><g clip-path="url(#clip0)" fill="#F4CB38"><path d="M42.311 33.59a6.35 6.35 0 00-4.808-3.785 6.35 6.35 0 00-5.782 2.006l-3.534 3.898a4.009 4.009 0 00-1.027 2.317 4.01 4.01 0 00.556 2.473 4.01 4.01 0 001.922 1.653 4.009 4.009 0 002.529.181l.057-.014a7.935 7.935 0 016.227 1.07 4.014 4.014 0 002.448.655 4.01 4.01 0 002.357-.934 4.008 4.008 0 001.334-2.155 4.01 4.01 0 00-.213-2.526l-2.066-4.839zm-12.635-2.129c.887-.18 1.633-.745 2.1-1.59.445-.806.582-1.776.388-2.732-.196-.956-.702-1.795-1.426-2.363-.76-.595-1.668-.824-2.553-.643-1.782.362-2.897 2.301-2.486 4.323.328 1.61 1.527 2.792 2.902 3.023.35.06.713.056 1.075-.018zm6.009-2.509c2.092.351 4.12-1.302 4.52-3.685.4-2.384-.975-4.61-3.067-4.96-2.092-.352-4.12 1.301-4.52 3.685-.4 2.383.975 4.608 3.067 4.96zm6.374 2.162c.304.161.623.268.95.322 1.526.257 3.2-.604 4.053-2.215.492-.927.645-1.97.431-2.934-.224-1.01-.818-1.816-1.672-2.27-.855-.452-1.855-.491-2.817-.11-.918.365-1.695 1.077-2.186 2.005-1.037 1.956-.48 4.29 1.24 5.203zm8.074.839v-.001c-1.264-1.308-3.5-1.209-4.984.222-1.483 1.431-1.663 3.66-.402 4.97.46.477 1.05.767 1.685.874 1.107.186 2.354-.186 3.298-1.096 1.484-1.431 1.664-3.66.403-4.97z"/></g><path d="M91.446 26.4V39h-4.248v-4.644h-3.924V39h-4.248V26.4h4.248v4.464h3.924V26.4h4.248zm11.803 10.404h-4.788L97.615 39h-4.32l5.508-12.6h4.176l5.508 12.6h-4.392l-.846-2.196zm-1.17-3.06l-1.224-3.168-1.224 3.168h2.448zm14.322-7.344c1.164 0 2.178.192 3.042.576.864.384 1.53.936 1.998 1.656.468.72.702 1.56.702 2.52s-.234 1.8-.702 2.52c-.468.72-1.134 1.272-1.998 1.656-.864.384-1.878.576-3.042.576h-1.818V39h-4.248V26.4h6.066zm-.27 6.228c.576 0 1.008-.126 1.296-.378.288-.264.432-.63.432-1.098 0-.468-.144-.828-.432-1.08-.288-.264-.72-.396-1.296-.396h-1.548v2.952h1.548zm14.641-6.228c1.164 0 2.178.192 3.042.576.864.384 1.53.936 1.998 1.656.468.72.702 1.56.702 2.52s-.234 1.8-.702 2.52c-.468.72-1.134 1.272-1.998 1.656-.864.384-1.878.576-3.042.576h-1.818V39h-4.248V26.4h6.066zm-.27 6.228c.576 0 1.008-.126 1.296-.378.288-.264.432-.63.432-1.098 0-.468-.144-.828-.432-1.08-.288-.264-.72-.396-1.296-.396h-1.548v2.952h1.548zm16.063 1.8V39h-4.248v-4.626l-4.752-7.974h4.482l2.574 4.356 2.592-4.356h4.104l-4.752 8.028zm19.094-8.028c1.164 0 2.178.192 3.042.576.864.384 1.53.936 1.998 1.656.468.72.702 1.56.702 2.52s-.234 1.8-.702 2.52c-.468.72-1.134 1.272-1.998 1.656-.864.384-1.878.576-3.042.576h-1.818V39h-4.248V26.4h6.066zm-.27 6.228c.576 0 1.008-.126 1.296-.378.288-.264.432-.63.432-1.098 0-.468-.144-.828-.432-1.08-.288-.264-.72-.396-1.296-.396h-1.548v2.952h1.548zm19.051 3.168V39h-10.476V26.4h10.242v3.204h-6.066v1.476h5.328v3.06h-5.328v1.656h6.3zm5.541-6.102h-3.69V26.4h11.628v3.294h-3.69V39h-4.248v-9.306z" fill="#000"/><defs><clipPath id="clip0"><path fill="#fff" transform="rotate(9.539 -88.21 172.345)" d="M0 0h26.189v26.189H0z"/></clipPath><filter id="filter0_d" x="0" y="0" width="76" height="79.725" filterUnits="userSpaceOnUse" color-interpolation-filters="sRGB"><feFlood flood-opacity="0" result="BackgroundImageFix"/><feColorMatrix in="SourceAlpha" values="0 0 0 0 0 0 0 0 0 0 0 0 0 0 0 0 0 0 127 0"/><feOffset dy="5"/><feGaussianBlur stdDeviation="7.5"/><feColorMatrix values="0 0 0 0 0 0 0 0 0 0 0 0 0 0 0 0 0 0 0.33 0"/><feBlend in2="BackgroundImageFix" result="effect1_dropShadow"/><feBlend in="SourceGraphic" in2="effect1_dropShadow" result="shape"/></filter></defs></svg>