<svg width="29" height="29" fill="none" xmlns="http://www.w3.org/2000/svg"><g clip-path="url(#clip0)" fill="#F52456"><path d="M19.393 15.37a7.032 7.032 0 00-5.946-3.252 7.031 7.031 0 00-5.945 3.252l-3.144 4.905a4.44 4.44 0 00-.696 2.718 4.44 4.44 0 001.061 2.599 4.442 4.442 0 002.402 1.452 4.44 4.44 0 002.795-.265l.059-.027a8.786 8.786 0 016.996.027 4.445 4.445 0 002.794.265 4.44 4.44 0 002.402-1.452 4.439 4.439 0 001.062-2.598 4.44 4.44 0 00-.696-2.72l-3.144-4.905zm-14.188-.007c.935-.36 1.646-1.113 2.001-2.123.338-.96.31-2.045-.078-3.054-.389-1.008-1.095-1.831-1.99-2.318-.94-.51-1.973-.594-2.906-.234C.352 8.357-.51 10.678.31 12.811c.654 1.698 2.18 2.77 3.724 2.77.394 0 .79-.07 1.171-.218zm6.101-3.843c2.349 0 4.26-2.177 4.26-4.853 0-2.677-1.911-4.854-4.26-4.854-2.348 0-4.26 2.177-4.26 4.854 0 2.676 1.912 4.853 4.26 4.853zm7.357 1.192c.361.12.73.178 1.097.178 1.713 0 3.382-1.247 4.02-3.163.366-1.103.342-2.27-.069-3.284-.43-1.062-1.226-1.833-2.242-2.17-1.017-.338-2.116-.198-3.096.396-.936.567-1.653 1.486-2.02 2.59-.773 2.326.263 4.773 2.31 5.453zm8.971-.566h-.001c-1.62-1.197-4.042-.679-5.4 1.156-1.358 1.835-1.145 4.303.472 5.5a3.33 3.33 0 002 .646c1.243 0 2.537-.634 3.401-1.801 1.357-1.836 1.145-4.303-.473-5.501z"/></g><defs><clipPath id="clip0"><path fill="#fff" d="M0 0h29v29H0z"/></clipPath></defs></svg>