<svg width="24" height="24" fill="none" xmlns="http://www.w3.org/2000/svg"><g clip-path="url(#clip0)" fill="#000"><path d="M23.45 1.394a1.873 1.873 0 00-2.651 0l-4.233 4.24a3.28 3.28 0 00-4.285.309L8.603 9.62a3.285 3.285 0 00-4.072 2.722 2.581 2.581 0 00-2.833 2.799H.468a.469.469 0 00-.44.626l2.53 7.078a.47.47 0 00.442.311h3.375c.259 0 .469-.21.469-.468 0-.517.42-.938.937-.938h2.11a.469.469 0 000-.937H7.78c-.872 0-1.607.598-1.816 1.406H3.33l-2.196-6.14h21.731l-2.196 6.14h-2.635a1.878 1.878 0 00-1.816-1.406H14.11a.469.469 0 000 .937h2.11c.516 0 .937.42.937.938 0 .258.21.468.469.468H21a.469.469 0 00.441-.31l2.531-7.079a.469.469 0 00-.441-.626h-1.253a3.286 3.286 0 00-3.15-2.81c.97-1.18.98-2.86.09-4.045l4.232-4.241a1.873 1.873 0 000-2.651zM21.328 15.14H2.642a1.642 1.642 0 012.172-1.781.47.47 0 00.625-.459 2.344 2.344 0 114.685-.104.469.469 0 00.938 0c0-.307-.042-.608-.124-.897a1.628 1.628 0 011.61.54.47.47 0 00.675.04 2.348 2.348 0 013.801.947.469.469 0 00.703.235 2.348 2.348 0 013.6 1.48zm1.459-11.759l-4.54 4.55a.469.469 0 000 .662 2.342 2.342 0 010 3.314l-.617.617a3.31 3.31 0 00-1.381-1.27l.672-.672a.469.469 0 00-.663-.663l-1.03 1.03a3.272 3.272 0 00-2.292.56 2.549 2.549 0 00-.565-.355l2.562-2.561a.469.469 0 10-.663-.663l-2.992 2.992a2.59 2.59 0 00-.731.11 3.317 3.317 0 00-1.02-1.012l3.417-3.416a2.342 2.342 0 013.314 0c.183.184.48.183.663 0l4.54-4.549a.936.936 0 111.326 1.326z"/><path d="M12 21.75a.469.469 0 100-.938.469.469 0 000 .938z"/></g><defs><clipPath id="clip0"><path fill="#fff" d="M0 0h24v24H0z"/></clipPath></defs></svg>