<svg width="26" height="75" viewBox="0 0 26 75" fill="none" xmlns="http://www.w3.org/2000/svg">
<path fill-rule="evenodd" clip-rule="evenodd" d="M14.6734 0H25.67V74.9H11.25V16.2402C10.9952 16.33 10.7162 16.4253 10.4146 16.5259C9.37402 16.8929 8.21698 17.258 6.94472 17.6215L6.9233 17.6276L6.90162 17.6328C5.65477 17.9297 4.49939 18.2259 3.43505 18.5215C2.42061 18.82 1.75335 19.0451 1.39392 19.1991L0 19.7965V8.30528L0.663664 8.06826C1.47688 7.77782 2.50616 7.36654 3.75608 6.83086C4.99969 6.29788 6.30448 5.70491 7.67059 5.05167C9.06792 4.35258 10.3426 3.59854 11.4965 2.79077L11.5058 2.78426L11.5153 2.77795C12.7198 1.97494 13.6664 1.16184 14.3743 0.34507L14.6734 0ZM15.5746 2C14.7751 2.85349 13.7906 3.66396 12.6341 4.43576C11.3927 5.30399 10.0331 6.10648 8.55721 6.84443L8.54937 6.84835L8.54146 6.85213C7.15046 7.5174 5.81789 8.12316 4.54392 8.66915C3.58059 9.082 2.73195 9.42835 2 9.70665V16.8671C2.26761 16.7828 2.56061 16.6939 2.87783 16.6006L2.88508 16.5985L2.89236 16.5965C3.97972 16.2944 5.15462 15.9931 6.41661 15.6924C7.65246 15.3389 8.76555 14.987 9.75718 14.637L9.76545 14.6341L9.77377 14.6313C10.8622 14.2685 11.516 14.019 11.8028 13.8756L13.25 13.152V72.9H23.67V2H15.5746Z" fill="#58BFE8"/>
</svg>
