<svg width="40" height="77" viewBox="0 0 40 77" fill="none" xmlns="http://www.w3.org/2000/svg">
<path fill-rule="evenodd" clip-rule="evenodd" d="M19.9 2C16.0081 2 12.7635 2.75489 10.1241 4.21504L10.1169 4.21902L10.1096 4.22288C7.47807 5.62263 5.46271 7.68875 4.05265 10.4508C2.70018 13.1574 2 16.5041 2 20.53V23.04H12.33V21.3302L12.3302 21.3204C12.3917 18.1844 12.8528 15.5515 13.7638 13.4692L13.769 13.4573L13.7745 13.4456C14.3078 12.308 15.1093 11.4235 16.1769 10.8344C17.2325 10.252 18.49 9.99 19.9 9.99C22.7581 9.99 24.9587 10.9497 26.0919 13.1285C27.1616 15.074 27.65 17.6605 27.65 20.8C27.65 24.649 27.0165 27.6689 25.5699 29.6665L25.565 29.6733L25.56 29.68C24.0295 31.7207 21.3685 32.6275 17.9382 32.6898L17.9291 32.69H17.0305L17.03 40.68H18.1268L18.1535 40.6814C21.7096 40.8719 24.3609 42.1353 25.7265 44.7083C27.0415 47.0181 27.65 50.1196 27.65 53.92C27.65 56.3589 27.468 58.4948 27.0926 60.3165C26.768 62.1844 26.0704 63.7201 24.9156 64.8086C23.7568 65.9594 22.0764 66.44 20.08 66.44C18.1822 66.44 16.5533 65.9805 15.3043 64.9519L15.2928 64.9424L15.2815 64.9326C14.119 63.9154 13.3761 62.4723 12.9838 60.7069C12.6058 59.006 12.3915 56.9885 12.3303 54.6663L12.33 54.6532V53.4809L2 53.48V55C2 59.1004 2.61501 62.66 3.81854 65.6988C5.00101 68.625 6.87244 70.884 9.44261 72.5073C12.0577 74.0618 15.5493 74.88 19.99 74.88C24.4856 74.88 27.959 73.974 30.5012 72.2607L30.5094 72.2552C33.1427 70.5184 35.0205 68.1149 36.1502 65.0083L36.1537 64.9989C37.3634 61.7729 37.98 58.0257 37.98 53.74C37.98 50.4573 37.5689 47.7288 36.7788 45.5279L36.7737 45.5135L36.769 45.4991C36.0263 43.2139 34.9878 41.442 33.6829 40.1371L33.6757 40.1299L33.6686 40.1225C32.3412 38.7398 30.8053 37.7825 29.0517 37.2345L25.924 36.2571L29.0645 35.3216C31.63 34.5574 33.7553 32.9207 35.4424 30.3337C37.1081 27.7797 37.98 24.4454 37.98 20.26C37.98 16.2367 37.2508 12.9285 35.8471 10.2896L35.8412 10.2785L35.8356 10.2672C34.4877 7.57142 32.5054 5.53447 29.8704 4.13288C27.2315 2.72919 23.9233 2 19.9 2ZM9.16306 2.46103C12.1621 0.803833 15.7552 0 19.9 0C24.1567 0 27.8085 0.770811 30.8096 2.36713C33.8109 3.96358 36.0867 6.30283 37.6188 9.36151C39.2111 12.3605 39.98 16.0085 39.98 20.26C39.98 24.7146 39.0519 28.4603 37.1176 31.4263C35.7087 33.5866 33.9841 35.2208 31.9447 36.2979C33.0985 36.9279 34.1525 37.74 35.1045 38.7303C36.6729 40.3014 37.8505 42.3621 38.6664 44.8666C39.5528 47.3427 39.98 50.3093 39.98 53.74C39.98 58.2123 39.3372 62.2035 38.0281 65.6964C36.7582 69.186 34.6179 71.9401 31.6146 73.9222C28.6373 75.927 24.7321 76.88 19.99 76.88C15.3168 76.88 11.4319 76.0204 8.40819 74.2191L8.39736 74.2127L8.3867 74.2059C5.44332 72.3503 3.29872 69.7526 1.96276 66.4445L1.96032 66.4384C0.644597 63.1177 0 59.2983 0 55V51.48H14.33V54.6268C14.3893 56.8589 14.5948 58.737 14.9362 60.2731C15.2623 61.7405 15.8353 62.7545 16.5873 63.4176C17.3778 64.0632 18.5055 64.44 20.08 64.44C21.797 64.44 22.872 64.0238 23.5129 63.3829L23.5243 63.3715L23.5361 63.3605C24.2909 62.6528 24.849 61.5584 25.1245 59.9601L25.1274 59.9437L25.1307 59.9274C25.4731 58.2726 25.65 56.2739 25.65 53.92C25.65 50.2883 25.061 47.5749 23.9818 45.6861L23.9734 45.6716L23.9656 45.6568C23.0514 43.9246 21.2138 42.8537 18.0729 42.68H15.03V30.69H17.9109C21.0698 30.631 22.9651 29.8008 23.955 28.4867C25.0254 27.0034 25.65 24.5053 25.65 20.8C25.65 17.8257 25.1803 15.6163 24.3344 14.0831L24.3279 14.0713L24.3218 14.0594C23.6531 12.7667 22.3166 11.99 19.9 11.99C18.73 11.99 17.8275 12.208 17.1431 12.5856C16.474 12.9547 15.9573 13.5066 15.5908 14.283C14.826 16.0374 14.3891 18.3774 14.33 21.3499V25.04H0V20.53C0 16.2777 0.739202 12.6055 2.26557 9.55279L2.26921 9.54552C3.85777 6.43194 6.15936 4.0606 9.16306 2.46103Z" fill="#58BFE8"/>
</svg>
