<svg width="40" height="76" viewBox="0 0 40 76" fill="none" xmlns="http://www.w3.org/2000/svg">
<path fill-rule="evenodd" clip-rule="evenodd" d="M1.72758 0H36.47V13.16H14.1098L13.5252 27.4105C14.237 26.9319 15.0427 26.5195 15.9343 26.1693L15.9453 26.1649C17.7922 25.4644 19.8142 25.0567 22.0029 24.9316L22.0132 24.931C26.0188 24.7433 29.3869 25.5852 32.02 27.56C34.6132 29.5049 36.4876 32.3004 37.6787 35.8738C38.8615 39.4221 39.44 43.6144 39.44 48.43C39.44 52.3127 39.1673 55.9055 38.6179 59.2056C38.1224 62.5436 37.1584 65.4842 35.7069 68.0085L35.7014 68.018C34.223 70.5249 32.1332 72.4815 29.4585 73.8835C26.8056 75.3057 23.4179 75.98 19.36 75.98C14.3948 75.98 10.3924 75.0635 7.4653 73.1121L7.45666 73.1062C4.61409 71.1681 2.65565 68.4228 1.5746 64.9253C0.517992 61.5069 0 57.5331 0 53.02V52.02H14.15V53.02C14.15 55.4334 14.2968 57.5642 14.5852 59.4176C14.9193 61.1316 15.5112 62.4073 16.3075 63.3131C17.0739 64.0667 18.2345 64.4944 19.9588 64.4405L19.9744 64.44H19.99C21.8786 64.44 22.9604 63.8596 23.5563 62.9231L23.5623 62.9137C24.3436 61.7158 24.8839 60 25.1149 57.6913C25.3508 55.2721 25.47 52.4562 25.47 49.24C25.47 46.4597 25.2923 44.0586 24.9444 42.029L24.942 42.0152L24.9401 42.0014C24.6559 40.0121 24.0737 38.5925 23.2751 37.6441L23.267 37.6345L23.2591 37.6247C22.5469 36.7344 21.383 36.2 19.54 36.2C18.0584 36.2 16.8856 36.6986 15.945 37.6888L15.9362 37.698L15.9271 37.7071C14.9338 38.7004 14.1671 40.067 13.6627 41.8608L13.4575 42.59H0.972104L1.72758 0ZM3.69242 2L3.0079 40.59H11.9619C12.5385 38.8726 13.3778 37.4312 14.5039 36.3019C15.8419 34.8983 17.5461 34.2 19.54 34.2C21.7721 34.2 23.6051 34.8627 24.8129 36.3654C25.9271 37.6934 26.6021 39.5055 26.918 41.7047C27.2884 43.872 27.47 46.3863 27.47 49.24C27.47 52.5031 27.3492 55.3867 27.1053 57.8871L27.105 57.8895C26.8562 60.3779 26.2575 62.4402 25.2407 64.0016C24.1586 65.698 22.3077 66.4367 20.0056 66.44C17.9121 66.5026 16.1436 65.9778 14.8729 64.7071L14.8521 64.6863L14.8326 64.6644C13.7217 63.4146 13.002 61.7629 12.6182 59.78L12.6148 59.7623L12.612 59.7444C12.3441 58.0301 12.1941 56.1209 12.1584 54.02H2.00895C2.08033 57.9646 2.57788 61.3986 3.4854 64.3347C4.4438 67.4354 6.14395 69.7892 8.57911 71.4509C11.0518 73.0976 14.608 73.98 19.36 73.98C23.2199 73.98 26.2507 73.335 28.5172 72.1189L28.526 72.1142C30.8874 70.8772 32.6953 69.1762 33.9759 67.0067C35.2816 64.7342 36.1762 62.0395 36.6408 58.9035L36.6421 58.8945L36.6436 58.8856C37.1732 55.7081 37.44 52.2239 37.44 48.43C37.44 43.7657 36.8785 39.7979 35.7813 36.5062C34.6924 33.2396 33.0268 30.8151 30.82 29.16C28.654 27.5355 25.7838 26.7574 22.1117 26.9287C20.1049 27.0438 18.2905 27.4152 16.6602 28.0329C15.0962 28.6481 13.9634 29.432 13.1982 30.3502L11.3099 32.6161L12.1902 11.16H34.47V2H3.69242Z" fill="#58BFE8"/>
</svg>
