<svg width="41" height="77" viewBox="0 0 41 77" fill="none" xmlns="http://www.w3.org/2000/svg">
<path fill-rule="evenodd" clip-rule="evenodd" d="M19.99 2C15.147 2 11.5293 3.08024 9.00676 5.10921C6.42899 7.18264 4.61372 10.0247 3.58265 13.6907L3.58152 13.6947C2.53166 17.3693 2 21.5345 2 26.2V51.76C2 56.163 2.61583 60.1277 3.83232 63.6651C5.09182 67.0953 7.04972 69.7764 9.69727 71.748C12.3017 73.6874 15.7346 74.7 20.08 74.7C24.6748 74.7 28.1826 73.6533 30.7137 71.6725C33.2981 69.6499 35.1715 66.8868 36.3176 63.335C37.4807 59.6704 38.07 55.5157 38.07 50.86C38.07 46.8616 37.57 43.3377 36.5878 40.2754L36.5852 40.2672L36.5827 40.259C35.673 37.2459 34.1574 34.9404 32.0604 33.2849C30.0169 31.6716 27.1483 30.8321 23.3351 30.8899L23.3276 30.89H23.32C21.1637 30.89 19.3069 31.2868 17.7248 32.0506L17.718 32.0538L17.7111 32.057C16.1835 32.7663 15.0868 33.7228 14.3642 34.91L12.51 37.9561V25.66C12.51 21.9721 12.7208 18.9896 13.1584 16.7391L13.1604 16.7289L13.1626 16.7187C13.6588 14.4239 14.4335 12.6123 15.5929 11.4529C16.7687 10.2771 18.2977 9.72 20.08 9.72C22.8529 9.72 25.0049 10.6059 26.021 12.7162C26.8083 14.3514 27.2038 16.6191 27.2773 19.44H37.17V19.27C37.17 15.4103 36.5552 12.2344 35.3738 9.70289C34.2097 7.20843 32.3905 5.33108 29.8849 4.05044L29.8729 4.04433L29.8611 4.0379C27.4165 2.70446 24.1483 2 19.99 2ZM39.17 19.7555C39.229 19.9783 39.26 20.2071 39.26 20.44V21.44H25.29V20.44C25.29 17.2483 24.9007 14.9997 24.219 13.5838C23.6751 12.4541 22.4671 11.72 20.08 11.72C18.7423 11.72 17.7513 12.1229 17.0071 12.8671C16.2477 13.6266 15.5833 14.9918 15.1196 17.1312C14.7185 19.1998 14.51 22.034 14.51 25.66V31.7215C15.1952 31.1469 15.9813 30.6557 16.8621 30.2461C18.7563 29.3331 20.9147 28.8909 23.3124 28.89C27.4158 28.829 30.7846 29.7296 33.2996 31.7151C35.7606 33.658 37.4841 36.3297 38.4948 39.6727C39.5508 42.9685 40.07 46.7019 40.07 50.86C40.07 55.6833 39.4596 60.0478 38.2231 63.9426L38.2217 63.947C36.9677 67.8343 34.8814 70.9505 31.9463 73.2475C28.9574 75.5867 24.9652 76.7 20.08 76.7C15.4254 76.7 11.5383 75.6126 8.50274 73.3521C5.51269 71.1254 3.33175 68.1096 1.95112 64.3443L1.9477 64.3349L1.94446 64.3255C0.643079 60.5453 0 56.3531 0 51.76V26.2C0 21.3864 0.548149 17.0323 1.65788 13.1474C2.78692 9.13427 4.81148 5.91699 7.75324 3.55079C10.7507 1.13976 14.873 0 19.99 0C24.3456 0 27.9733 0.733491 30.807 2.27564C33.6954 3.75496 35.8321 5.95555 37.1862 8.85712C38.5248 11.7256 39.17 15.2097 39.17 19.27V19.7555ZM16.7916 39.0571C17.8235 38.5781 18.9234 38.34 20.08 38.34C22.3733 38.34 24.2361 39.0357 25.3869 40.6392C26.4291 42.0335 27.0042 43.8762 27.195 46.0787C27.4394 48.1628 27.56 50.538 27.56 53.2C27.56 55.8234 27.3772 58.1378 27.0029 60.1343C26.6231 62.16 25.9419 63.8378 24.8982 65.0902C23.7639 66.4514 22.1297 67.07 20.17 67.07C18.272 67.07 16.6513 66.4856 15.4129 65.2471L15.3921 65.2263L15.3726 65.2044C14.2806 63.9758 13.5274 62.4067 13.0779 60.5446L13.0741 60.5287L13.0707 60.5126C12.6951 58.697 12.51 56.7383 12.51 54.64V42.933L12.6525 42.6955C13.0624 42.0124 13.5969 41.3489 14.2429 40.7029L14.2597 40.6861L14.2773 40.6701C15.0178 39.9969 15.8577 39.4591 16.7916 39.0571ZM20.08 40.34C19.2021 40.34 18.3868 40.5197 17.6229 40.8762L17.6085 40.8829L17.5939 40.8892C16.8611 41.2032 16.2116 41.6181 15.6401 42.1341C15.1745 42.6017 14.8005 43.0567 14.51 43.498V54.64C14.51 56.6153 14.6838 58.4312 15.0259 60.0912C15.4136 61.6886 16.0321 62.9272 16.8476 63.8532C17.647 64.6418 18.7205 65.07 20.17 65.07C21.6903 65.07 22.6961 64.6086 23.3618 63.8098C24.1181 62.9022 24.6969 61.58 25.0371 59.7657C25.3828 57.9222 25.56 55.7366 25.56 53.2C25.56 50.5887 25.4412 48.289 25.2069 46.2968L25.205 46.2812L25.2037 46.2654C25.0335 44.2797 24.5309 42.8313 23.78 41.83L23.773 41.8207L23.7663 41.8112C23.1165 40.9015 21.9821 40.34 20.08 40.34Z" fill="#58BFE8"/>
</svg>
