<svg width="127" height="54" viewBox="0 0 127 54" fill="none" xmlns="http://www.w3.org/2000/svg">
<g clip-path="url(#clip0)">
<path d="M66.5244 51.9884V38.4346H69.8476C70.4484 38.4346 70.9916 38.4922 71.4773 38.601C71.963 38.7097 72.3784 38.9017 72.7299 39.1641C73.0814 39.4265 73.3498 39.7784 73.5415 40.2264C73.7333 40.6743 73.8227 41.2375 73.8227 41.9158C73.8227 42.4598 73.746 42.9333 73.599 43.3237C73.4521 43.714 73.2284 44.0212 72.9408 44.2516C72.6532 44.482 72.2889 44.6356 71.8544 44.7124C72.3912 44.8019 72.8321 44.9875 73.1836 45.2755C73.5351 45.5571 73.7972 45.9282 73.9697 46.389C74.1423 46.8433 74.2253 47.4001 74.2253 48.0464C74.2253 48.6928 74.1423 49.2623 73.9825 49.7615C73.8227 50.2606 73.5799 50.6702 73.2667 50.9965C72.9472 51.3229 72.5573 51.5725 72.078 51.7389C71.6051 51.9052 71.0491 51.9884 70.4164 51.9884H66.5244ZM68.9977 43.97H69.8349C70.3269 43.97 70.704 43.8996 70.9724 43.7524C71.2408 43.6053 71.4262 43.3877 71.5348 43.0805C71.6435 42.7797 71.6946 42.4022 71.6946 41.9414C71.6946 41.4615 71.6115 41.0903 71.4517 40.8279C71.292 40.5656 71.0491 40.3864 70.7232 40.2904C70.3972 40.1944 69.9882 40.1496 69.4898 40.1496H69.0041V43.97H68.9977ZM68.9977 50.2478H69.9307C70.6784 50.2478 71.1833 50.0686 71.4517 49.7039C71.7201 49.3391 71.8544 48.7824 71.8544 48.0208C71.8544 47.4769 71.7904 47.0289 71.6626 46.6898C71.5348 46.3506 71.3239 46.0946 71.0299 45.9282C70.736 45.7618 70.3397 45.6787 69.854 45.6787H69.0041V50.2478H68.9977Z" fill="white" fill-opacity="0.87"/>
<path d="M79.5423 52.174C78.539 52.174 77.7593 51.9884 77.2033 51.6237C76.6473 51.2589 76.2638 50.7342 76.0529 50.0494C75.842 49.3711 75.7334 48.552 75.7334 47.6049V38.4346H78.1363V47.8864C78.1363 48.3088 78.1619 48.712 78.2194 49.0831C78.2769 49.4543 78.4048 49.7551 78.6093 49.9854C78.8138 50.2158 79.1269 50.331 79.5359 50.331C79.9705 50.331 80.2837 50.2158 80.4818 49.9854C80.6799 49.7551 80.8077 49.4543 80.8652 49.0831C80.9291 48.712 80.9547 48.3088 80.9547 47.8864V38.4346H83.3449V47.6049C83.3449 48.552 83.2362 49.3647 83.0253 50.0494C82.8144 50.7278 82.431 51.2525 81.8814 51.6237C81.3381 51.9884 80.5585 52.174 79.5423 52.174Z" fill="white" fill-opacity="0.87"/>
<path d="M88.7005 52.174C87.8889 52.174 87.2051 52.0141 86.6619 51.6941C86.1186 51.3741 85.7032 50.9134 85.4284 50.299C85.1472 49.6847 84.9939 48.936 84.9619 48.04L87.0837 47.6241C87.1092 48.1488 87.1667 48.6096 87.2754 49.0127C87.384 49.4159 87.5438 49.7231 87.7611 49.9407C87.9784 50.1582 88.266 50.267 88.6238 50.267C89.0265 50.267 89.3077 50.1454 89.4738 49.9087C89.64 49.6655 89.7231 49.3647 89.7231 48.9936C89.7231 48.4048 89.5889 47.9185 89.3204 47.5345C89.052 47.1569 88.6941 46.7794 88.2532 46.3954L86.5468 44.8916C86.0675 44.482 85.6841 44.0212 85.4029 43.5093C85.1217 43.0037 84.9747 42.3766 84.9747 41.6279C84.9747 40.5592 85.2878 39.7337 85.9078 39.1513C86.5341 38.569 87.384 38.281 88.4641 38.281C89.0968 38.281 89.6272 38.377 90.049 38.5754C90.4708 38.7738 90.8095 39.0425 91.0587 39.3881C91.308 39.7337 91.4933 40.124 91.6211 40.5656C91.7426 41.0071 91.8192 41.4743 91.8576 41.9606L89.755 42.3254C89.7295 41.903 89.6847 41.5255 89.6144 41.1863C89.5441 40.8536 89.4163 40.5912 89.231 40.3992C89.0456 40.2072 88.7772 40.1176 88.4193 40.1176C88.0487 40.1176 87.7675 40.2392 87.5758 40.476C87.384 40.7128 87.2818 41.0135 87.2818 41.3719C87.2818 41.8263 87.3776 42.2038 87.563 42.4982C87.7547 42.7926 88.0231 43.0997 88.381 43.4133L90.0682 44.9044C90.6242 45.3715 91.1035 45.9219 91.4997 46.5554C91.8959 47.1889 92.094 47.9505 92.094 48.84C92.094 49.4863 91.9535 50.0622 91.6659 50.5614C91.3847 51.0605 90.9884 51.4573 90.4772 51.7389C89.9723 52.0269 89.378 52.174 88.7005 52.174Z" fill="white" fill-opacity="0.87"/>
<path d="M93.481 51.9884V38.4346H95.9222V51.9884H93.481Z" fill="white" fill-opacity="0.87"/>
<path d="M98.0059 51.9884V38.4346H99.725L103.016 46.165V38.4346H105.055V51.9884H103.419L100.108 43.8868V51.9884H98.0059Z" fill="white" fill-opacity="0.87"/>
<path d="M107.112 51.9884V38.4346H112.794V40.1752H109.586V44.0724H112.11V45.7938H109.586V50.2798H112.826V51.9884H107.112Z" fill="white" fill-opacity="0.87"/>
<path d="M117.677 52.174C116.865 52.174 116.181 52.0141 115.638 51.6941C115.095 51.3741 114.679 50.9134 114.405 50.299C114.123 49.6847 113.97 48.936 113.938 48.04L116.06 47.6241C116.079 48.1488 116.143 48.6096 116.251 49.0127C116.36 49.4159 116.52 49.7231 116.737 49.9407C116.954 50.1582 117.242 50.267 117.6 50.267C118.003 50.267 118.284 50.1454 118.45 49.9087C118.616 49.6655 118.699 49.3647 118.699 48.9936C118.699 48.4048 118.565 47.9185 118.297 47.5345C118.028 47.1569 117.67 46.7794 117.229 46.3954L115.523 44.8916C115.044 44.482 114.66 44.0212 114.379 43.5093C114.098 43.0037 113.951 42.3766 113.951 41.6279C113.951 40.5592 114.264 39.7337 114.884 39.1513C115.51 38.569 116.36 38.281 117.44 38.281C118.073 38.281 118.603 38.377 119.025 38.5754C119.447 38.7738 119.786 39.0425 120.035 39.3881C120.284 39.7337 120.469 40.124 120.597 40.5656C120.719 41.0071 120.795 41.4743 120.834 41.9606L118.731 42.3254C118.706 41.903 118.661 41.5255 118.59 41.1863C118.52 40.8536 118.392 40.5912 118.207 40.3992C118.022 40.2072 117.753 40.1176 117.395 40.1176C117.025 40.1176 116.744 40.2392 116.552 40.476C116.36 40.7128 116.258 41.0135 116.258 41.3719C116.258 41.8263 116.354 42.2038 116.539 42.4982C116.731 42.7926 116.999 43.0997 117.357 43.4133L119.044 44.9044C119.6 45.3715 120.08 45.9219 120.476 46.5554C120.872 47.1889 121.07 47.9505 121.07 48.84C121.07 49.4863 120.93 50.0622 120.642 50.5614C120.361 51.0605 119.965 51.4573 119.453 51.7389C118.948 52.0269 118.354 52.174 117.677 52.174Z" fill="white" fill-opacity="0.87"/>
<path d="M125.793 52.174C124.981 52.174 124.297 52.0141 123.754 51.6941C123.211 51.3741 122.796 50.9134 122.521 50.299C122.24 49.6847 122.086 48.936 122.054 48.04L124.176 47.6241C124.195 48.1488 124.259 48.6096 124.368 49.0127C124.476 49.4159 124.636 49.7231 124.853 49.9407C125.071 50.1582 125.358 50.267 125.716 50.267C126.119 50.267 126.4 50.1454 126.566 49.9087C126.732 49.6655 126.815 49.3647 126.815 48.9936C126.815 48.4048 126.681 47.9185 126.413 47.5345C126.144 47.1569 125.786 46.7794 125.345 46.3954L123.639 44.8916C123.16 44.482 122.776 44.0212 122.495 43.5093C122.214 43.0037 122.067 42.3766 122.067 41.6279C122.067 40.5592 122.38 39.7337 123 39.1513C123.626 38.569 124.476 38.281 125.556 38.281C126.189 38.281 126.719 38.377 127.141 38.5754C127.563 38.7738 127.902 39.0425 128.151 39.3881C128.4 39.7337 128.586 40.124 128.713 40.5656C128.841 41.0071 128.912 41.4743 128.95 41.9606L126.847 42.3254C126.822 41.903 126.777 41.5255 126.707 41.1863C126.636 40.8536 126.509 40.5912 126.323 40.3992C126.138 40.2072 125.87 40.1176 125.512 40.1176C125.141 40.1176 124.86 40.2392 124.668 40.476C124.476 40.7128 124.374 41.0135 124.374 41.3719C124.374 41.8263 124.47 42.2038 124.655 42.4982C124.847 42.7926 125.115 43.0997 125.473 43.4133L127.16 44.9044C127.716 45.3715 128.196 45.9219 128.592 46.5554C128.988 47.1889 129.186 47.9505 129.186 48.84C129.186 49.4863 129.046 50.0622 128.758 50.5614C128.477 51.0605 128.081 51.4573 127.569 51.7389C127.071 52.0269 126.477 52.174 125.793 52.174Z" fill="white" fill-opacity="0.87"/>
<path d="M66.5693 34.4478V32.7968C67.7197 32.7968 68.6208 32.72 69.2727 32.5664C69.9245 32.4128 70.4102 32.1312 70.7298 31.7217C71.0493 31.3121 71.2538 30.7234 71.3433 29.9554C71.4327 29.1875 71.4775 28.1892 71.4775 26.9605V1.59344H73.5481V27.1845C73.5481 28.8484 73.4203 30.2178 73.1647 31.2929C72.909 32.368 72.3594 33.1615 71.5158 33.6735C70.6722 34.1854 69.3813 34.4414 67.643 34.4414H66.5693V34.4478Z" fill="white" fill-opacity="0.87"/>
<path d="M86.6744 33.1423C84.6549 33.1423 83.0828 32.8032 81.9516 32.1248C80.8268 31.4465 80.0408 30.525 79.5934 29.3603C79.146 28.1956 78.9224 26.8837 78.9224 25.4247V1.59344H80.993V25.4567C80.993 26.583 81.1528 27.6005 81.4723 28.5092C81.7918 29.4179 82.367 30.1282 83.1978 30.6402C84.0286 31.1521 85.1854 31.4081 86.668 31.4081C88.074 31.4081 89.1924 31.1457 90.0232 30.621C90.854 30.0962 91.4484 29.3859 91.8062 28.49C92.1641 27.5941 92.3431 26.583 92.3431 25.4567V1.59344H94.3753V25.4183C94.3753 26.8773 94.1325 28.1892 93.6468 29.3539C93.1611 30.5186 92.3622 31.4401 91.2502 32.1184C90.151 32.8032 88.6172 33.1423 86.6744 33.1423Z" fill="white" fill-opacity="0.87"/>
<path d="M105.975 33.1039C104.339 33.1039 102.99 32.7712 101.929 32.1056C100.869 31.4401 100.063 30.5058 99.5137 29.3027C98.9641 28.0996 98.6254 26.679 98.4976 25.0343L100.3 24.4584C100.479 25.815 100.754 27.0181 101.124 28.0676C101.495 29.1171 102.064 29.9298 102.831 30.5058C103.597 31.0817 104.658 31.3697 106.013 31.3697C107.547 31.3697 108.755 30.9857 109.637 30.2178C110.519 29.4499 110.96 28.17 110.96 26.3718C110.96 25.0151 110.608 23.7928 109.905 22.705C109.202 21.6171 108.212 20.446 106.933 19.1917L101.252 13.5411C100.306 12.5684 99.616 11.5957 99.1814 10.6229C98.7468 9.65024 98.5295 8.65194 98.5295 7.62804C98.5295 5.58025 99.1622 4.006 100.428 2.90531C101.693 1.80462 103.335 1.25427 105.361 1.25427C106.409 1.25427 107.355 1.38866 108.199 1.65743C109.042 1.92621 109.777 2.36136 110.404 2.9629C111.03 3.56444 111.522 4.36437 111.88 5.36267C112.238 6.36097 112.468 7.58965 112.57 9.0551L110.806 9.47746C110.704 8.0184 110.461 6.80252 110.078 5.82982C109.694 4.85712 109.132 4.13399 108.391 3.66043C107.649 3.18688 106.652 2.9501 105.4 2.9501C103.994 2.9501 102.818 3.30847 101.872 4.0252C100.926 4.74193 100.453 5.89381 100.453 7.48086C100.453 8.27438 100.613 9.0423 100.932 9.78463C101.252 10.527 101.846 11.3333 102.716 12.2036L108.32 17.739C109.573 18.9677 110.653 20.2796 111.56 21.6747C112.468 23.0697 112.922 24.5992 112.922 26.2694C112.922 27.8308 112.628 29.1171 112.04 30.1282C111.452 31.1393 110.634 31.888 109.586 32.3744C108.538 32.8607 107.33 33.1039 105.975 33.1039Z" fill="white" fill-opacity="0.87"/>
<path d="M121.21 32.72V3.28928H114.992V1.59344H129.346V3.28288H123.281V32.7136H121.21V32.72Z" fill="white" fill-opacity="0.87"/>
<path d="M20.5465 22.065C20.1248 22.9033 19.8244 23.812 19.6518 24.7847C19.23 27.1845 19.7094 29.5395 20.8469 31.4977L27.781 23.3449L20.5465 22.065Z" fill="white" fill-opacity="0.87"/>
<path d="M20.9427 30.6133C20.1082 28.8893 19.7882 26.8976 20.1442 24.8717C20.2858 24.0735 20.5173 23.3233 20.8338 22.6236L26.835 23.6853L20.9427 30.6133Z" stroke="white" stroke-opacity="0.87"/>
<path d="M28.88 16.6C25.4737 16.7728 22.4061 18.7118 20.7637 21.6491L31.3533 23.5241L28.88 16.6Z" fill="white" fill-opacity="0.87"/>
<path d="M30.5928 22.8817L21.5717 21.2844C23.1295 18.9394 25.692 17.3834 28.5367 17.1254L30.5928 22.8817Z" stroke="white" stroke-opacity="0.87"/>
<path d="M38.2554 30.9409C38.6772 30.1026 38.9776 29.1939 39.1501 28.2212C39.5719 25.8214 39.0926 23.4665 37.9614 21.5146L31.021 29.6674L38.2554 30.9409Z" fill="white" fill-opacity="0.87"/>
<path d="M37.8649 22.3994C38.694 24.1184 39.0136 26.1092 38.6577 28.1342C38.5161 28.9325 38.2846 29.6829 37.968 30.3826L31.9679 29.3264L37.8649 22.3994Z" stroke="white" stroke-opacity="0.87"/>
<path d="M37.7123 21.1243C36.268 18.8909 33.9417 17.2399 31.117 16.7407C30.5226 16.6384 29.9283 16.5872 29.3403 16.5872L32.9511 26.711L37.7123 21.1243Z" fill="white" fill-opacity="0.87"/>
<path d="M30.059 17.1138C30.3819 17.1376 30.7063 17.1774 31.031 17.2333C33.5812 17.6842 35.7034 19.1235 37.0855 21.089L33.1316 25.7284L30.059 17.1138Z" stroke="white" stroke-opacity="0.87"/>
<path d="M21.0898 31.888C22.5342 34.1214 24.8604 35.7724 27.6788 36.2652C28.3115 36.3804 28.9442 36.4252 29.5705 36.4188L25.851 26.295L21.0898 31.888Z" fill="white" fill-opacity="0.87"/>
<path d="M27.7683 35.7733L27.7649 35.7727C25.221 35.3279 23.0989 33.8891 21.7166 31.9232L25.6769 27.2709L28.8478 35.9017C28.4875 35.8802 28.1273 35.8386 27.7683 35.7733Z" stroke="white" stroke-opacity="0.87"/>
<path d="M30.0308 36.3996C33.3924 36.1884 36.4088 34.2622 38.0385 31.3569L27.4937 29.4947L30.0308 36.3996Z" fill="white" fill-opacity="0.87"/>
<path d="M28.2628 30.1383L37.2293 31.7217C35.6873 34.0372 33.1707 35.5816 30.3689 35.87L28.2628 30.1383Z" stroke="white" stroke-opacity="0.87"/>
<path d="M23.6395 34.3646C16.0089 40.252 8.14182 46.357 0.517578 52.2381" stroke="white" stroke-opacity="0.87" stroke-miterlimit="10"/>
<path d="M58.1116 15.2369V52.2444C50.4362 46.3762 42.4029 40.2264 34.7212 34.3646" stroke="white" stroke-opacity="0.87" stroke-miterlimit="10"/>
<path d="M35.2388 18.6989L58.1115 1.04309" stroke="white" stroke-opacity="0.87" stroke-miterlimit="10"/>
<path d="M0.517578 38.0506V1.04309L23.5181 18.6094" stroke="white" stroke-opacity="0.87" stroke-miterlimit="10"/>
</g>
<defs>
<clipPath id="clip0">
<path d="M0 0H130V54H0V0Z" fill="white"/>
</clipPath>
</defs>
</svg>
