<svg width="38" height="50" viewBox="0 0 38 50" fill="none" xmlns="http://www.w3.org/2000/svg">
<path fill-rule="evenodd" clip-rule="evenodd" d="M17.9249 50.0002C19.488 50.0002 20.7551 48.7331 20.7551 47.17C20.7551 45.607 19.488 44.3398 17.9249 44.3398C16.3618 44.3398 15.0947 45.607 15.0947 47.17C15.0947 48.7331 16.3618 50.0002 17.9249 50.0002Z" fill="#58BFE8"/>
<path fill-rule="evenodd" clip-rule="evenodd" d="M13.1153 36.3485C10.222 35.673 26.7616 34.5544 22.7043 36.3485C18.6471 38.1426 17.925 42.4529 17.925 42.4529C17.925 42.4529 16.0085 37.024 13.1153 36.3485Z" fill="#58BFE8"/>
<path d="M1.99819 10.4146C1.19923 12.0069 0.616661 13.7436 0.289309 15.5856C-0.5152 20.1574 0.394731 24.6349 2.56413 28.3579L15.7747 12.8503L1.99819 10.4146Z" fill="#58BFE8"/>
<path d="M17.8833 0.0224609C11.3918 0.355361 5.54936 4.03944 2.41455 9.63217L22.5883 13.1942L17.8833 0.0224609Z" fill="#58BFE8"/>
<path d="M35.7374 27.3087C36.5364 25.7163 37.119 23.9797 37.4463 22.1376C38.2509 17.5658 37.3409 13.0939 35.1771 9.37646L21.9609 24.8785L35.7374 27.3087Z" fill="#58BFE8"/>
<path d="M34.7111 8.62789C31.9646 4.37786 27.526 1.2375 22.1496 0.288738C21.0122 0.0889983 19.8804 -0.00531726 18.7651 0.000231076L25.6451 19.2641L34.7111 8.62789Z" fill="#58BFE8"/>
<path d="M3.03027 29.107C5.7767 33.3515 10.2154 36.4919 15.5861 37.4406C16.7957 37.657 17.9997 37.7458 19.187 37.7292L12.0963 18.4653L3.03027 29.107Z" fill="#58BFE8"/>
<path d="M20.0691 37.6899C26.4719 37.2849 32.22 33.623 35.3215 28.0913L15.231 24.5459L20.0691 37.6899Z" fill="#58BFE8"/>
</svg>
