<svg width="21" height="24" viewBox="0 0 21 24" fill="none" xmlns="http://www.w3.org/2000/svg">
<path d="M9.9433 0.007865C9.54513 0.0472288 9.16812 0.207714 8.86534 0.468127L0.725964 7.44473C0.315663 7.77328 0.0567515 8.25471 0.00830287 8.77707C-0.0401457 9.29942 0.124882 9.81871 0.465542 10.2184C0.807709 10.6166 1.29522 10.8604 1.81908 10.8922C2.34295 10.924 2.8577 10.7423 3.24529 10.388L10.125 4.48929L17.0047 10.388C17.3923 10.7423 17.9071 10.924 18.4309 10.8922C18.9548 10.8604 19.4423 10.6166 19.7845 10.2184C20.1251 9.81876 20.2901 9.29942 20.2417 8.77707C20.1932 8.25472 19.9344 7.77329 19.524 7.44473L11.3847 0.468127C10.9865 0.12596 10.4657 -0.0390719 9.9433 0.007865Z" fill="white"/>
<path d="M9.9433 13.0079C9.54513 13.0472 9.16812 13.2077 8.86534 13.4681L0.725964 20.4447C0.315663 20.7733 0.0567515 21.2547 0.00830287 21.7771C-0.0401457 22.2994 0.124882 22.8187 0.465542 23.2184C0.807709 23.6166 1.29522 23.8604 1.81908 23.8922C2.34295 23.924 2.8577 23.7423 3.24529 23.388L10.125 17.4893L17.0047 23.388C17.3923 23.7423 17.9071 23.924 18.4309 23.8922C18.9548 23.8604 19.4423 23.6166 19.7845 23.2184C20.1251 22.8188 20.2901 22.2994 20.2417 21.7771C20.1932 21.2547 19.9344 20.7733 19.524 20.4447L11.3847 13.4681C10.9865 13.126 10.4657 12.9609 9.9433 13.0079Z" fill="white"/>
</svg>
